<svg width="19" height="18" viewBox="0 0 19 18" fill="none" xmlns="http://www.w3.org/2000/svg">
<path d="M14.3114 13.5901C13.1029 13.5901 12.1064 14.5654 12.1064 15.795C12.1064 17.0035 13.0817 18 14.3114 18C15.5199 18 16.5163 17.0247 16.5163 15.795C16.4951 14.5866 15.5199 13.5901 14.3114 13.5901Z" fill="white"/>
<path d="M18.1908 3.0742C18.1484 3.0742 18.0848 3.053 18.0212 3.053H4.66431L4.4523 1.63251C4.32509 0.699647 3.51943 0 2.56537 0H0.848056C0.381625 0 0 0.381625 0 0.848056C0 1.31449 0.381625 1.69611 0.848056 1.69611H2.56537C2.67138 1.69611 2.75618 1.78092 2.77738 1.88693L4.09187 10.8339C4.26148 11.9576 5.23675 12.8057 6.38162 12.8057H15.2014C16.3039 12.8057 17.2579 12.0212 17.4912 10.9399L18.8693 4.04947C18.9541 3.60424 18.6572 3.15901 18.1908 3.0742Z" fill="white"/>
<path d="M8.90489 15.689C8.86248 14.5229 7.88722 13.5901 6.72114 13.5901C5.49146 13.6537 4.5586 14.6714 4.601 15.8798C4.6434 17.0459 5.59747 17.9788 6.76354 17.9788H6.80595C8.01443 17.9152 8.96849 16.8975 8.90489 15.689Z" fill="white"/>
</svg>
