<svg width="25" height="25" viewBox="0 0 25 25" fill="none" xmlns="http://www.w3.org/2000/svg">
<circle cx="12.5" cy="12.5" r="12.5" fill="#8E6BF1"/>
<path d="M16.1562 6C14.5881 6 13.3125 7.27562 13.3125 8.84375C13.3125 10.303 15.594 12.8876 15.854 13.1776C15.9312 13.2629 16.0409 13.3125 16.1562 13.3125C16.2716 13.3125 16.3813 13.2629 16.4585 13.1776C16.7185 12.8876 19 10.303 19 8.84375C19 7.27562 17.7244 6 16.1562 6ZM16.1562 10.0625C15.4835 10.0625 14.9375 9.5165 14.9375 8.84375C14.9375 8.171 15.4835 7.625 16.1562 7.625C16.829 7.625 17.375 8.171 17.375 8.84375C17.375 9.5165 16.829 10.0625 16.1562 10.0625Z" fill="white"/>
<path d="M6.25513 10.7726C6.10156 10.8344 6 10.9839 6 11.1504V18.5938C6 18.7286 6.06744 18.8546 6.17875 18.9301C6.247 18.9756 6.32581 19 6.40625 19C6.45744 19 6.50862 18.9902 6.55738 18.9707L10.0625 17.5684V9.25L6.25513 10.7726Z" fill="white"/>
<path d="M17.063 13.7204C16.8323 13.9771 16.5016 14.125 16.1562 14.125C15.8109 14.125 15.4802 13.9771 15.2495 13.7204C15.1666 13.6286 15.0602 13.5075 14.9375 13.3637V19L18.7449 17.4774C18.8992 17.4164 19 17.2661 19 17.1004V11.1277C18.3346 12.2546 17.4449 13.2946 17.063 13.7204Z" fill="white"/>
<path d="M12.7559 10.0024L10.875 9.25V17.5684L14.125 18.8684V12.344C13.6058 11.6444 13.0639 10.8019 12.7559 10.0024Z" fill="white"/>
</svg>
