<svg width="527" height="398" viewBox="0 0 527 398" fill="none" xmlns="http://www.w3.org/2000/svg">
<path d="M181.912 52.9003C173.424 53.0924 166.509 60.0193 166.305 68.5069C166.221 72.1444 167.35 75.5059 169.306 78.231L169.463 78.4471C169.475 78.4591 169.475 78.4711 169.487 78.4831L180.807 93.8857C181.804 95.2422 183.845 95.1942 184.781 93.8016L195.021 78.5792C196.954 75.6259 198.287 72.5406 198.287 68.9031C198.287 59.9233 190.916 52.6842 181.912 52.9003ZM182.284 78.3511C177.254 78.3511 173.172 74.2693 173.172 69.2392C173.172 64.2091 177.254 60.1274 182.284 60.1274C187.314 60.1274 191.396 64.2091 191.396 69.2392C191.396 74.2693 187.314 78.3511 182.284 78.3511Z" fill="#F33D3D"/>
<path d="M525.823 37.3417C525.799 37.4017 525.126 37.1616 523.89 36.9095C522.653 36.6574 520.804 36.4533 518.583 36.7654C516.375 37.0776 513.757 37.9779 511.476 39.8748C509.195 41.7355 507.251 44.5327 506.47 47.8461L506.446 47.9302L506.146 49.1067L505.69 47.9902C504.417 44.8329 502.149 42.3238 499.687 40.7271C497.226 39.0944 494.573 38.4101 492.352 38.23C487.838 37.9179 485.197 39.3345 485.161 39.1424C485.149 39.1064 485.762 38.7463 486.986 38.3501C488.211 37.9539 490.059 37.5578 492.388 37.6658C494.693 37.7739 497.491 38.4221 500.096 40.1028C502.689 41.7475 505.09 44.3647 506.434 47.6901L505.678 47.7501L505.702 47.654C506.53 44.1486 508.595 41.2073 511.02 39.2865C513.445 37.3297 516.206 36.4413 518.511 36.1892C520.828 35.9251 522.725 36.2372 523.962 36.5854C525.21 36.9575 525.835 37.3057 525.823 37.3417Z" fill="#E0E0E0"/>
<path d="M0.81543 140.597L43.7817 373.916L133.184 390.123L213.282 338.585L298.95 359.27L387.788 302.27L344.293 80.9322L255.852 125.027L179.535 108.46L96.46 152.446L0.81543 140.597Z" fill="white" stroke="#E0E0E0" stroke-miterlimit="10"/>
<path d="M10.0479 148.041L50.6251 369.318L132.584 381.72L212.454 328.693L296.333 348.658L379.421 298.44L340.284 90.1881L257.257 132.602L179.464 119.132L94.5277 160.586L56.5196 154.944L10.0479 148.041Z" fill="#EBEBEB"/>
<path d="M71.3939 156.12L71.634 239.327L358.027 312.847L343.765 322.258L73.4948 252.017L71.1538 372.428L53.7344 369.787L56.5196 154.944L71.3939 156.12Z" fill="#FAFAFA"/>
<path d="M14.5137 167.837L57.5399 177.501L56.0513 191.175L16.0503 180.815L14.5137 167.837Z" fill="#FAFAFA"/>
<path d="M24.8252 228.679L55.6423 221.884L55.4502 237.551L27.0581 243.901L24.8252 228.679Z" fill="#FAFAFA"/>
<path d="M36.1826 290.541L54.7425 292.174L54.6224 301.13L37.6472 300.589L36.1826 290.541Z" fill="#FAFAFA"/>
<path d="M71.1533 372.428L94.8994 376.017L100.386 328.117L137.674 331.911L141.251 375.969L157.014 365.501L156.69 273.638L73.4943 252.017L71.1533 372.428Z" fill="#E0E0E0"/>
<path d="M166.209 276.123L165.753 325.464L165.428 359.906L157.013 365.501L156.148 269.976L166.209 276.123Z" fill="#FAFAFA"/>
<path d="M204.781 333.783L165.753 325.464L165.645 337.025L192.5 341.935L204.781 333.783Z" fill="#FAFAFA"/>
<path d="M115.319 150.43L109.028 248.931L123.17 252.557L131.142 142.71L115.319 150.43Z" fill="#FAFAFA"/>
<path d="M157.781 261.441L160.17 138.449L168.682 141.846L168.022 184.632L256.487 210.251L277.508 125.267L293.691 116.215L267.796 212.892L247.747 288.296C247.747 288.296 236.066 285.583 236.475 283.662C236.883 281.741 252.465 225.762 252.465 225.762L166.653 197.934L165.104 268.644L157.781 261.441Z" fill="#FAFAFA"/>
<path d="M259.609 224.729L319.071 242.113L346.682 124.235L341.46 98.2555L310.763 226.434L261.902 211.439L259.609 224.729Z" fill="#FAFAFA"/>
<path d="M226.571 332.943L236.487 283.674L248.24 286.483L237.784 336.328L226.571 332.943Z" fill="#FAFAFA"/>
<path d="M349.036 211.62L324.737 331.49L346.238 317.937L367.403 238.499L364.354 217.73L349.036 211.62Z" fill="#E0E0E0"/>
<path opacity="0.1" d="M94.5277 160.586L132.584 381.72L50.6251 369.318L10.0479 148.041L94.5277 160.586Z" fill="black"/>
<path d="M149.007 133.995L157.398 137.344L364.714 220.167L358.64 187.886L179.464 119.132L149.007 133.995Z" fill="#E0E0E0"/>
<path opacity="0.1" d="M179.463 119.132L212.453 328.693L296.332 348.658L257.256 132.602L179.463 119.132Z" fill="black"/>
<path d="M141.072 85.362C141.048 85.4461 139.691 84.8818 137.146 84.3176C134.613 83.7653 130.808 83.2731 126.198 83.8974C121.624 84.5097 116.197 86.3464 111.443 90.2601C106.701 94.1017 102.644 99.9002 101.023 106.791C101.011 106.851 100.987 106.911 100.975 106.971L100.675 108.148L100.219 107.031C97.5655 100.488 92.8595 95.2782 87.7453 91.9768C82.6191 88.6034 77.1088 87.2108 72.5228 86.8987C67.9009 86.5745 64.1433 87.2348 61.6462 87.8951C59.1372 88.5554 57.8046 89.1436 57.7806 89.0716C57.7686 89.0476 58.0927 88.8915 58.729 88.6154C59.3533 88.3393 60.3137 87.9671 61.5622 87.607C64.0593 86.8507 67.8529 86.0943 72.5589 86.3464C77.2288 86.5985 82.8832 87.9551 88.1535 91.3646C93.3997 94.714 98.2378 100.02 100.963 106.743L100.207 106.803C100.219 106.743 100.243 106.683 100.255 106.611C101.923 99.528 106.101 93.5855 110.987 89.6839C115.885 85.7102 121.456 83.8854 126.126 83.3332C130.832 82.7689 134.685 83.3572 137.218 84.0054C138.491 84.3296 139.463 84.6537 140.1 84.9178C140.748 85.1939 141.072 85.338 141.072 85.362Z" fill="#263238"/>
<path d="M259.178 42.7559C259.154 42.8159 258.41 42.5398 257.005 42.2517C255.613 41.9636 253.536 41.7235 251.015 42.0716C248.518 42.4198 245.564 43.4402 242.983 45.5771C240.414 47.678 238.205 50.8354 237.329 54.5809L237.305 54.677L237.005 55.8535L236.549 54.737C235.108 51.1715 232.551 48.3383 229.766 46.5255C226.981 44.6887 223.979 43.9084 221.47 43.7163C218.949 43.5243 216.884 43.8724 215.516 44.2085C214.135 44.5447 213.391 44.8448 213.367 44.7848C213.355 44.7608 213.535 44.6647 213.871 44.4967C214.219 44.3286 214.735 44.1245 215.432 43.9084C216.8 43.4762 218.901 43.032 221.506 43.1521C224.099 43.2721 227.233 44.0165 230.162 45.9013C233.079 47.75 235.768 50.6913 237.281 54.4249L236.525 54.4849L236.549 54.3769C237.473 50.4392 239.802 47.1378 242.515 44.9769C245.24 42.7799 248.35 41.7715 250.931 41.4834C253.536 41.1833 255.673 41.5314 257.065 41.9156C257.774 42.1077 258.302 42.2997 258.65 42.4558C259.01 42.6359 259.19 42.7199 259.178 42.7559Z" fill="#263238"/>
<path d="M178.96 0.702102C179.008 0.750122 178.216 1.56647 176.859 3.09111C175.503 4.61576 173.654 6.93274 171.721 10.0301C167.843 16.1406 163.954 25.8648 164.086 37.0295C164.086 37.1496 164.086 37.2576 164.086 37.3657L163.294 37.4257C162.465 31.9754 160.652 26.9812 158.359 22.8035C156.066 18.6137 153.389 15.2163 150.844 12.6472C148.311 10.0781 145.994 8.26531 144.326 7.12483C142.669 5.97234 141.696 5.39609 141.732 5.33607C141.744 5.31206 141.997 5.43211 142.465 5.68421C142.921 5.94833 143.641 6.29647 144.494 6.86071C146.222 7.92917 148.611 9.69391 151.228 12.251C153.846 14.7961 156.631 18.2055 158.984 22.4433C161.349 26.6691 163.222 31.7473 164.062 37.3056L163.27 37.3657C163.27 37.2576 163.27 37.1376 163.27 37.0175C163.137 25.6607 167.171 15.8045 171.217 9.70592C173.234 6.62061 175.167 4.32764 176.607 2.86302C177.303 2.1067 177.916 1.59048 178.3 1.21832C178.732 0.870173 178.948 0.690096 178.96 0.702102Z" fill="#263238"/>
<path d="M363.561 35.9731H278.121V397.29H363.561V35.9731Z" fill="#455A64"/>
<path d="M319.909 54.0048H293.942V104.042H319.909V54.0048Z" fill="white"/>
<path d="M307.666 104.054C307.473 104.054 307.317 92.8532 307.317 79.0354C307.317 65.2175 307.473 54.0168 307.666 54.0168C307.858 54.0168 308.014 65.2175 308.014 79.0354C308.014 92.8412 307.858 104.054 307.666 104.054Z" fill="#263238"/>
<path d="M319.911 71.3881C319.911 71.5802 314.1 71.7363 306.921 71.7363C299.754 71.7363 293.932 71.5802 293.932 71.3881C293.932 71.196 299.742 71.04 306.921 71.04C314.1 71.04 319.911 71.196 319.911 71.3881Z" fill="#263238"/>
<path d="M320.055 89.2877C320.055 89.4798 314.197 89.6359 306.97 89.6359C299.743 89.6359 293.872 89.4798 293.872 89.2877C293.872 89.0956 299.731 88.9396 306.97 88.9396C314.185 88.9396 320.055 89.0956 320.055 89.2877Z" fill="#263238"/>
<path d="M320.02 120.033H294.053V170.07H320.02V120.033Z" fill="white"/>
<path d="M307.761 170.07C307.569 170.07 307.413 158.869 307.413 145.051C307.413 131.234 307.569 120.033 307.761 120.033C307.953 120.033 308.109 131.234 308.109 145.051C308.109 158.869 307.953 170.07 307.761 170.07Z" fill="#263238"/>
<path d="M320.018 137.416C320.018 137.608 314.208 137.764 307.029 137.764C299.862 137.764 294.039 137.608 294.039 137.416C294.039 137.224 299.85 137.068 307.029 137.068C314.208 137.068 320.018 137.224 320.018 137.416Z" fill="#263238"/>
<path d="M320.151 155.316C320.151 155.508 314.292 155.664 307.065 155.664C299.838 155.664 293.968 155.508 293.968 155.316C293.968 155.124 299.826 154.968 307.065 154.968C314.292 154.968 320.151 155.124 320.151 155.316Z" fill="#263238"/>
<path d="M320.02 185.485H294.053V235.522H320.02V185.485Z" fill="white"/>
<path d="M307.761 235.534C307.569 235.534 307.413 224.333 307.413 210.515C307.413 196.697 307.569 185.497 307.761 185.497C307.953 185.497 308.109 196.697 308.109 210.515C308.109 224.321 307.953 235.534 307.761 235.534Z" fill="#263238"/>
<path d="M320.018 202.868C320.018 203.06 314.208 203.216 307.029 203.216C299.862 203.216 294.039 203.06 294.039 202.868C294.039 202.676 299.85 202.52 307.029 202.52C314.208 202.52 320.018 202.676 320.018 202.868Z" fill="#263238"/>
<path d="M320.151 220.767C320.151 220.96 314.292 221.116 307.065 221.116C299.838 221.116 293.968 220.96 293.968 220.767C293.968 220.575 299.826 220.419 307.065 220.419C314.292 220.419 320.151 220.575 320.151 220.767Z" fill="#263238"/>
<path d="M320.02 252.821H294.053V302.858H320.02V252.821Z" fill="white"/>
<path d="M307.761 302.87C307.569 302.87 307.413 291.67 307.413 277.852C307.413 264.034 307.569 252.833 307.761 252.833C307.953 252.833 308.109 264.034 308.109 277.852C308.109 291.67 307.953 302.87 307.761 302.87Z" fill="#263238"/>
<path d="M320.018 270.216C320.018 270.409 314.208 270.565 307.029 270.565C299.862 270.565 294.039 270.409 294.039 270.216C294.039 270.024 299.85 269.868 307.029 269.868C314.208 269.868 320.018 270.024 320.018 270.216Z" fill="#263238"/>
<path d="M320.151 288.104C320.151 288.296 314.292 288.452 307.065 288.452C299.838 288.452 293.968 288.296 293.968 288.104C293.968 287.912 299.826 287.756 307.065 287.756C314.292 287.756 320.151 287.912 320.151 288.104Z" fill="#263238"/>
<path d="M399.901 35.9731H337.643V397.29H399.901V35.9731Z" fill="#455A64"/>
<g opacity="0.3">
<path opacity="0.3" d="M399.901 35.9731H337.643V397.29H399.901V35.9731Z" fill="black"/>
</g>
<path d="M381.28 54.0048H355.312V104.042H381.28V54.0048Z" fill="white"/>
<path d="M369.037 104.054C368.845 104.054 368.688 92.8532 368.688 79.0354C368.688 65.2175 368.845 54.0168 369.037 54.0168C369.229 54.0168 369.385 65.2175 369.385 79.0354C369.385 92.8412 369.229 104.054 369.037 104.054Z" fill="#263238"/>
<path d="M381.281 71.3881C381.281 71.5802 375.47 71.7363 368.291 71.7363C361.124 71.7363 355.302 71.5802 355.302 71.3881C355.302 71.196 361.112 71.04 368.291 71.04C375.47 71.04 381.281 71.196 381.281 71.3881Z" fill="#263238"/>
<path d="M381.425 89.2877C381.425 89.4798 375.567 89.6359 368.339 89.6359C361.112 89.6359 355.254 89.4798 355.254 89.2877C355.254 89.0956 361.112 88.9396 368.339 88.9396C375.567 88.9396 381.425 89.0956 381.425 89.2877Z" fill="#263238"/>
<path d="M381.39 121.918H355.423V171.955H381.39V121.918Z" fill="white"/>
<path d="M369.131 171.967C368.939 171.967 368.783 160.766 368.783 146.948C368.783 133.13 368.939 121.93 369.131 121.93C369.323 121.93 369.479 133.13 369.479 146.948C369.479 160.754 369.323 171.967 369.131 171.967Z" fill="#263238"/>
<path d="M381.39 139.301C381.39 139.493 375.579 139.649 368.412 139.649C361.245 139.649 355.423 139.493 355.423 139.301C355.423 139.109 361.233 138.953 368.412 138.953C375.579 138.953 381.39 139.109 381.39 139.301Z" fill="#263238"/>
<path d="M381.521 157.201C381.521 157.393 375.663 157.549 368.435 157.549C361.208 157.549 355.338 157.393 355.338 157.201C355.338 157.008 361.196 156.852 368.435 156.852C375.663 156.852 381.521 157.008 381.521 157.201Z" fill="#263238"/>
<path d="M381.39 185.485H355.423V235.522H381.39V185.485Z" fill="white"/>
<path d="M369.131 235.534C368.939 235.534 368.783 224.333 368.783 210.515C368.783 196.697 368.939 185.497 369.131 185.497C369.323 185.497 369.479 196.697 369.479 210.515C369.479 224.321 369.323 235.534 369.131 235.534Z" fill="#263238"/>
<path d="M381.39 202.868C381.39 203.06 375.579 203.216 368.412 203.216C361.245 203.216 355.423 203.06 355.423 202.868C355.423 202.676 361.233 202.52 368.412 202.52C375.579 202.52 381.39 202.676 381.39 202.868Z" fill="#263238"/>
<path d="M381.521 220.767C381.521 220.96 375.663 221.116 368.435 221.116C361.208 221.116 355.338 220.96 355.338 220.767C355.338 220.575 361.196 220.419 368.435 220.419C375.663 220.419 381.521 220.575 381.521 220.767Z" fill="#263238"/>
<path d="M382.445 253.914H356.478V303.951H382.445V253.914Z" fill="white"/>
<path d="M370.2 303.951C370.008 303.951 369.852 292.75 369.852 278.932C369.852 265.114 370.008 253.914 370.2 253.914C370.392 253.914 370.548 265.114 370.548 278.932C370.548 292.75 370.392 303.951 370.2 303.951Z" fill="#263238"/>
<path d="M382.445 271.297C382.445 271.489 376.634 271.645 369.455 271.645C362.288 271.645 356.466 271.489 356.466 271.297C356.466 271.105 362.276 270.949 369.455 270.949C376.634 270.949 382.445 271.105 382.445 271.297Z" fill="#263238"/>
<path d="M382.589 289.197C382.589 289.389 376.731 289.545 369.504 289.545C362.277 289.545 356.406 289.389 356.406 289.197C356.406 289.004 362.265 288.848 369.504 288.848C376.719 288.848 382.589 289.004 382.589 289.197Z" fill="#263238"/>
<path d="M320.02 321.754H294.053V371.792H320.02V321.754Z" fill="white"/>
<path d="M307.761 371.804C307.569 371.804 307.413 360.603 307.413 346.785C307.413 332.967 307.569 321.766 307.761 321.766C307.953 321.766 308.109 332.967 308.109 346.785C308.109 360.591 307.953 371.804 307.761 371.804Z" fill="#263238"/>
<path d="M320.018 339.138C320.018 339.33 314.208 339.486 307.029 339.486C299.862 339.486 294.039 339.33 294.039 339.138C294.039 338.946 299.85 338.79 307.029 338.79C314.208 338.79 320.018 338.946 320.018 339.138Z" fill="#263238"/>
<path d="M320.151 357.037C320.151 357.229 314.292 357.385 307.065 357.385C299.838 357.385 293.968 357.229 293.968 357.037C293.968 356.845 299.826 356.689 307.065 356.689C314.292 356.689 320.151 356.845 320.151 357.037Z" fill="#263238"/>
<path d="M381.39 323.903H355.423V373.94H381.39V323.903Z" fill="white"/>
<path d="M369.131 373.94C368.939 373.94 368.783 362.74 368.783 348.922C368.783 335.104 368.939 323.903 369.131 323.903C369.323 323.903 369.479 335.104 369.479 348.922C369.479 362.74 369.323 373.94 369.131 373.94Z" fill="#263238"/>
<path d="M381.39 341.287C381.39 341.479 375.579 341.635 368.412 341.635C361.245 341.635 355.423 341.479 355.423 341.287C355.423 341.094 361.233 340.938 368.412 340.938C375.579 340.938 381.39 341.094 381.39 341.287Z" fill="#263238"/>
<path d="M381.521 359.186C381.521 359.378 375.663 359.534 368.435 359.534C361.208 359.534 355.338 359.378 355.338 359.186C355.338 358.994 361.196 358.838 368.435 358.838C375.663 358.838 381.521 358.994 381.521 359.186Z" fill="#263238"/>
<path d="M442.414 236.447H472.69V192.688H442.414V236.447Z" fill="#FF725E"/>
<g opacity="0.3">
<path opacity="0.3" d="M442.414 236.447H472.69V192.688H442.414V236.447Z" fill="black"/>
</g>
<path d="M415.173 236.447H445.45V192.688H415.173V236.447Z" fill="#FF725E"/>
<path d="M422.411 227.61C422.399 227.622 422.399 227.466 422.387 227.166C422.375 226.83 422.375 226.374 422.363 225.822C422.351 224.597 422.327 222.856 422.303 220.695C422.279 216.23 422.243 209.987 422.207 202.688V202.484H422.411C426.649 202.484 431.295 202.472 436.157 202.472C436.109 202.424 436.565 202.892 436.373 202.7V202.712V202.724V202.748V202.808V202.916V203.144V203.588V204.477C436.373 205.065 436.373 205.653 436.373 206.241C436.373 207.406 436.373 208.558 436.373 209.699C436.373 211.968 436.361 214.165 436.361 216.266C436.349 220.467 436.337 224.309 436.325 227.634V227.802H436.157C431.943 227.766 428.498 227.73 426.061 227.718C424.908 227.706 423.996 227.682 423.336 227.682C423.047 227.67 422.819 227.67 422.639 227.658C422.483 227.622 422.411 227.622 422.411 227.61C422.423 227.61 422.507 227.598 422.675 227.598C422.867 227.598 423.107 227.586 423.408 227.574C424.08 227.562 425.004 227.55 426.169 227.538C428.57 227.514 431.979 227.49 436.157 227.454L435.989 227.622C435.977 224.297 435.965 220.455 435.953 216.254C435.953 214.153 435.941 211.956 435.941 209.687C435.941 208.558 435.941 207.406 435.941 206.229C435.941 205.641 435.941 205.053 435.941 204.465V203.576V203.132V202.904V202.796V202.736V202.712V202.7V202.688C435.749 202.496 436.205 202.952 436.157 202.904C431.307 202.904 426.661 202.892 422.411 202.892L422.615 202.688C422.579 209.939 422.543 216.134 422.519 220.563C422.495 222.748 422.471 224.501 422.459 225.738C422.447 226.314 422.435 226.782 422.435 227.13C422.435 227.442 422.423 227.61 422.411 227.61Z" fill="#263238"/>
<path d="M425.171 216.494C425.159 216.434 425.495 216.446 425.663 216.842C425.735 217.034 425.771 217.31 425.591 217.574C425.411 217.85 425.003 217.934 424.703 217.814C424.391 217.718 424.126 217.394 424.162 217.07C424.186 216.746 424.391 216.554 424.559 216.458C424.943 216.242 425.207 216.446 425.171 216.494C425.147 216.554 424.943 216.518 424.739 216.71C424.523 216.89 424.463 217.286 424.847 217.418C425.231 217.562 425.423 217.226 425.375 216.938C425.327 216.65 425.147 216.554 425.171 216.494Z" fill="#263238"/>
<path d="M384.337 397.563H509.898V228.327L384.337 228.327V397.563Z" fill="#FF725E"/>
<path d="M459.613 397.566L526.962 397.651V228.343H459.613V397.566Z" fill="#FF725E"/>
<g opacity="0.3">
<path opacity="0.3" d="M459.613 397.566L526.962 397.651V228.343H459.613V397.566Z" fill="black"/>
</g>
<path d="M393.555 343.121H416.521V320.155H393.555V343.121Z" fill="#EBEBEB"/>
<path d="M404.151 345.428C404.031 345.428 403.935 339.498 403.935 332.175C403.935 324.852 404.031 318.921 404.151 318.921C404.271 318.921 404.367 324.852 404.367 332.175C404.379 339.486 404.271 345.428 404.151 345.428Z" fill="#455A64"/>
<path d="M389.24 327.853C389.24 327.733 395.915 327.637 404.151 327.637C412.386 327.637 419.073 327.733 419.073 327.853C419.073 327.973 412.398 328.069 404.151 328.069C395.915 328.069 389.24 327.973 389.24 327.853Z" fill="#455A64"/>
<path d="M426.311 343.121H449.276V320.155H426.311V343.121Z" fill="#EBEBEB"/>
<path d="M436.914 345.428C436.794 345.428 436.698 339.498 436.698 332.175C436.698 324.852 436.794 318.921 436.914 318.921C437.034 318.921 437.13 324.852 437.13 332.175C437.13 339.486 437.034 345.428 436.914 345.428Z" fill="#455A64"/>
<path d="M421.991 327.853C421.991 327.733 428.666 327.637 436.902 327.637C445.137 327.637 451.824 327.733 451.824 327.853C451.824 327.973 445.149 328.069 436.902 328.069C428.666 328.069 421.991 327.973 421.991 327.853Z" fill="#455A64"/>
<path d="M393.555 306.84H416.521V283.874H393.555V306.84Z" fill="#EBEBEB"/>
<path d="M404.151 309.149C404.031 309.149 403.935 303.218 403.935 295.895C403.935 288.572 404.031 282.642 404.151 282.642C404.271 282.642 404.367 288.572 404.367 295.895C404.379 303.206 404.271 309.149 404.151 309.149Z" fill="#455A64"/>
<path d="M389.24 291.574C389.24 291.453 395.915 291.357 404.151 291.357C412.386 291.357 419.073 291.453 419.073 291.574C419.073 291.694 412.398 291.79 404.151 291.79C395.915 291.79 389.24 291.694 389.24 291.574Z" fill="#455A64"/>
<path d="M426.311 306.84H449.276V283.874H426.311V306.84Z" fill="#EBEBEB"/>
<path d="M436.914 309.149C436.794 309.149 436.698 303.218 436.698 295.895C436.698 288.572 436.794 282.642 436.914 282.642C437.034 282.642 437.13 288.572 437.13 295.895C437.13 303.206 437.034 309.149 436.914 309.149Z" fill="#455A64"/>
<path d="M421.991 291.574C421.991 291.453 428.666 291.357 436.902 291.357C445.137 291.357 451.824 291.453 451.824 291.574C451.824 291.694 445.149 291.79 436.902 291.79C428.666 291.79 421.991 291.694 421.991 291.574Z" fill="#455A64"/>
<path d="M393.555 270.475H416.521V247.51H393.555V270.475Z" fill="#EBEBEB"/>
<path d="M404.151 272.786C404.031 272.786 403.935 266.855 403.935 259.532C403.935 252.209 404.031 246.278 404.151 246.278C404.271 246.278 404.367 252.209 404.367 259.532C404.379 266.843 404.271 272.786 404.151 272.786Z" fill="#455A64"/>
<path d="M389.24 255.21C389.24 255.09 395.915 254.994 404.151 254.994C412.386 254.994 419.073 255.09 419.073 255.21C419.073 255.33 412.398 255.426 404.151 255.426C395.915 255.426 389.24 255.33 389.24 255.21Z" fill="#455A64"/>
<path d="M426.311 270.475H449.276V247.51H426.311V270.475Z" fill="#EBEBEB"/>
<path d="M436.914 272.786C436.794 272.786 436.698 266.855 436.698 259.532C436.698 252.209 436.794 246.278 436.914 246.278C437.034 246.278 437.13 252.209 437.13 259.532C437.13 266.843 437.034 272.786 436.914 272.786Z" fill="#455A64"/>
<path d="M421.991 255.21C421.991 255.09 428.666 254.994 436.902 254.994C445.137 254.994 451.824 255.09 451.824 255.21C451.824 255.33 445.149 255.426 436.902 255.426C428.666 255.426 421.991 255.33 421.991 255.21Z" fill="#455A64"/>
<g opacity="0.7">
<path opacity="0.7" d="M482.683 270.475H505.648V247.51H482.683V270.475Z" fill="white"/>
</g>
<path d="M494.165 272.786C494.045 272.786 493.949 266.855 493.949 259.532C493.949 252.209 494.045 246.278 494.165 246.278C494.285 246.278 494.381 252.209 494.381 259.532C494.381 266.843 494.285 272.786 494.165 272.786Z" fill="#263238"/>
<path d="M478.377 255.21C478.377 255.09 485.052 254.994 493.287 254.994C501.523 254.994 508.21 255.09 508.21 255.21C508.21 255.33 501.535 255.426 493.287 255.426C485.052 255.426 478.377 255.33 478.377 255.21Z" fill="#263238"/>
<g opacity="0.7">
<path opacity="0.7" d="M482.683 307.196H505.648V284.231H482.683V307.196Z" fill="white"/>
</g>
<path d="M494.165 309.509C494.045 309.509 493.949 303.579 493.949 296.256C493.949 288.932 494.045 283.002 494.165 283.002C494.285 283.002 494.381 288.932 494.381 296.256C494.381 303.567 494.285 309.509 494.165 309.509Z" fill="#263238"/>
<path d="M478.377 291.934C478.377 291.814 485.052 291.718 493.287 291.718C501.523 291.718 508.21 291.814 508.21 291.934C508.21 292.054 501.535 292.15 493.287 292.15C485.052 292.15 478.377 292.054 478.377 291.934Z" fill="#263238"/>
<g opacity="0.7">
<path opacity="0.7" d="M482.683 343.929H505.648V320.964H482.683V343.929Z" fill="white"/>
</g>
<path d="M494.165 346.221C494.045 346.221 493.949 340.29 493.949 332.967C493.949 325.644 494.045 319.713 494.165 319.713C494.285 319.713 494.381 325.644 494.381 332.967C494.381 340.29 494.285 346.221 494.165 346.221Z" fill="#263238"/>
<path d="M478.377 328.657C478.377 328.537 485.052 328.441 493.287 328.441C501.523 328.441 508.21 328.537 508.21 328.657C508.21 328.777 501.535 328.873 493.287 328.873C485.052 328.873 478.377 328.777 478.377 328.657Z" fill="#263238"/>
<path d="M410.332 396.81C410.32 396.81 410.32 396.738 410.308 396.606C410.308 396.45 410.296 396.246 410.284 395.994C410.272 395.43 410.26 394.649 410.248 393.653C410.236 391.576 410.212 388.611 410.188 384.913C410.164 377.446 410.14 367.014 410.116 355.08V354.864H410.332C414.15 354.864 418.172 354.864 422.289 354.864C426.275 354.864 430.153 354.864 433.862 354.864H434.078V355.08C434.042 367.122 434.018 377.638 434.006 385.189C433.982 388.923 433.958 391.924 433.946 394.013C433.934 395.021 433.922 395.814 433.91 396.378C433.898 396.63 433.898 396.834 433.886 396.99C433.874 397.122 433.874 397.194 433.862 397.194C433.85 397.194 433.85 397.122 433.838 396.99C433.838 396.834 433.826 396.63 433.814 396.378C433.802 395.814 433.79 395.021 433.778 394.013C433.766 391.924 433.742 388.923 433.718 385.189C433.694 377.65 433.67 367.122 433.646 355.08L433.862 355.297C430.153 355.297 426.275 355.297 422.289 355.297C418.16 355.297 414.15 355.297 410.332 355.297L410.548 355.08C410.512 367.026 410.488 377.446 410.476 384.913C410.452 388.611 410.428 391.576 410.416 393.653C410.404 394.649 410.392 395.442 410.38 395.994C410.368 396.246 410.368 396.438 410.356 396.606C410.344 396.738 410.344 396.81 410.332 396.81Z" fill="#263238"/>
<path d="M422.884 376.747H430.903V357.551H422.884V376.747Z" fill="#E0E0E0"/>
<path d="M430.934 376.774H422.866V357.529H430.934V376.774ZM422.902 376.726H430.886V357.566H422.902V376.726Z" fill="#263238"/>
<path d="M413.294 376.747H421.313V357.551H413.294V376.747Z" fill="#E0E0E0"/>
<path d="M421.341 376.774H413.273V357.529H421.341V376.774ZM413.321 376.726H421.305V357.566H413.321V376.726Z" fill="#263238"/>
<path d="M413.13 378.742C413.142 378.815 412.734 378.803 412.554 379.259C412.47 379.463 412.422 379.799 412.554 380.027C412.686 380.267 413.022 380.471 413.323 380.411C413.623 380.351 413.863 380.039 413.899 379.763C413.947 379.475 413.803 379.223 413.623 379.067C413.25 378.742 412.878 378.827 412.866 378.766C412.83 378.73 413.238 378.478 413.803 378.827C414.067 378.983 414.343 379.355 414.283 379.811C414.235 380.243 413.935 380.711 413.395 380.831C412.842 380.927 412.374 380.603 412.182 380.207C411.99 379.775 412.11 379.379 412.266 379.115C412.422 378.839 412.686 378.706 412.854 378.694C413.046 378.67 413.13 378.706 413.13 378.742Z" fill="#263238"/>
<path d="M388.449 355.068C388.449 355.068 388.437 354.984 388.437 354.804C388.437 354.576 388.425 354.312 388.425 354C388.413 353.22 388.401 352.199 388.389 350.951V350.891H388.449C391.714 350.879 396.492 350.867 401.846 350.855C401.882 350.891 401.762 350.771 401.93 350.939V350.951V350.963V350.999V351.071V351.203V351.467V351.995C401.93 352.343 401.93 352.691 401.93 353.04C401.93 353.724 401.93 354.408 401.93 355.056V355.14H401.846C398.029 355.128 394.703 355.116 392.23 355.104C391.102 355.092 390.165 355.092 389.433 355.08C389.145 355.08 388.905 355.068 388.689 355.068C388.533 355.08 388.437 355.068 388.449 355.068C388.449 355.068 388.545 355.056 388.725 355.056C388.941 355.056 389.193 355.044 389.481 355.044C390.213 355.032 391.15 355.032 392.29 355.02C394.751 355.008 398.065 354.996 401.846 354.984L401.762 355.068C401.762 354.408 401.762 353.736 401.762 353.052C401.762 352.703 401.762 352.355 401.762 352.007V351.479V351.215V351.083V351.011V350.975V350.963V350.951C401.93 351.119 401.81 350.999 401.846 351.035C396.492 351.023 391.714 351.011 388.449 350.999L388.509 350.939C388.497 352.175 388.485 353.184 388.473 353.964C388.473 354.276 388.461 354.552 388.461 354.78C388.449 354.972 388.449 355.068 388.449 355.068Z" fill="#263238"/>
<path d="M440.574 346.533C440.574 346.533 440.562 346.449 440.562 346.269C440.562 346.041 440.55 345.776 440.55 345.464C440.538 344.684 440.526 343.664 440.514 342.415V342.355H440.574C443.839 342.343 448.617 342.331 453.971 342.319C454.007 342.355 453.887 342.235 454.055 342.403V342.415V342.427V342.463V342.535V342.667V342.931V343.46C454.055 343.808 454.055 344.156 454.055 344.504C454.055 345.188 454.055 345.873 454.055 346.521V346.605H453.971C450.154 346.593 446.828 346.581 444.355 346.569C443.227 346.557 442.29 346.557 441.558 346.545C441.27 346.545 441.03 346.533 440.814 346.533C440.658 346.533 440.574 346.533 440.574 346.533C440.574 346.533 440.67 346.521 440.85 346.521C441.066 346.521 441.318 346.509 441.606 346.509C442.338 346.497 443.275 346.497 444.415 346.485C446.876 346.473 450.19 346.461 453.971 346.449L453.887 346.533C453.887 345.873 453.887 345.2 453.887 344.516C453.887 344.168 453.887 343.82 453.887 343.472V342.943V342.679V342.547V342.475V342.439V342.427V342.415C454.055 342.583 453.935 342.463 453.971 342.499C448.617 342.487 443.839 342.475 440.574 342.463L440.634 342.403C440.622 343.64 440.61 344.648 440.598 345.428C440.598 345.74 440.586 346.017 440.586 346.245C440.574 346.425 440.574 346.533 440.574 346.533Z" fill="#263238"/>
<path d="M448.929 312.943C448.929 312.943 448.917 312.859 448.917 312.678C448.917 312.45 448.905 312.186 448.905 311.874C448.893 311.094 448.881 310.073 448.869 308.825V308.765H448.929C452.195 308.753 456.973 308.741 462.327 308.729C462.363 308.765 462.243 308.645 462.411 308.813V308.825V308.837V308.873V308.945V309.077V309.341V309.869C462.411 310.217 462.411 310.566 462.411 310.914C462.411 311.598 462.411 312.282 462.411 312.931V313.015H462.327C458.509 313.003 455.184 312.991 452.711 312.979C451.582 312.967 450.646 312.967 449.914 312.955C449.625 312.955 449.385 312.943 449.169 312.943C449.013 312.955 448.929 312.955 448.929 312.943C448.929 312.943 449.025 312.931 449.205 312.931C449.421 312.931 449.673 312.919 449.962 312.919C450.694 312.907 451.63 312.907 452.771 312.895C455.232 312.883 458.545 312.871 462.327 312.859L462.243 312.943C462.243 312.282 462.243 311.61 462.243 310.926C462.243 310.578 462.243 310.229 462.243 309.881V309.353V309.089V308.957V308.885V308.849V308.837V308.825C462.411 308.993 462.291 308.873 462.327 308.909C456.973 308.897 452.195 308.885 448.929 308.873L448.989 308.813C448.977 310.049 448.965 311.058 448.953 311.838C448.953 312.15 448.941 312.426 448.941 312.654C448.941 312.847 448.929 312.943 448.929 312.943Z" fill="#263238"/>
<path d="M400.765 276.807C400.765 276.807 400.753 276.723 400.753 276.543C400.753 276.315 400.741 276.051 400.741 275.739C400.729 274.958 400.717 273.938 400.705 272.689V272.629H400.765C404.03 272.617 408.809 272.605 414.163 272.593C414.199 272.629 414.079 272.509 414.247 272.678V272.689V272.701V272.738V272.81V272.942V273.206V273.734C414.247 274.082 414.247 274.43 414.247 274.778C414.247 275.463 414.247 276.147 414.247 276.795V276.879H414.163C410.345 276.867 407.02 276.855 404.547 276.843C403.418 276.831 402.482 276.831 401.75 276.819C401.461 276.819 401.221 276.807 401.005 276.807C400.837 276.807 400.753 276.807 400.765 276.807C400.765 276.807 400.861 276.795 401.041 276.795C401.257 276.795 401.509 276.783 401.798 276.783C402.53 276.771 403.466 276.771 404.607 276.759C407.068 276.747 410.381 276.735 414.163 276.723L414.079 276.807C414.079 276.147 414.079 275.475 414.079 274.79C414.079 274.442 414.079 274.094 414.079 273.746V273.218V272.954V272.822V272.75V272.714V272.701V272.689C414.247 272.858 414.127 272.738 414.163 272.774C408.809 272.762 404.03 272.75 400.765 272.738L400.825 272.678C400.813 273.914 400.801 274.922 400.789 275.703C400.789 276.015 400.777 276.291 400.777 276.519C400.765 276.699 400.765 276.807 400.765 276.807Z" fill="#263238"/>
<path d="M438.893 238.223C438.893 238.223 438.881 238.139 438.881 237.959C438.881 237.731 438.869 237.467 438.869 237.154C438.857 236.374 438.857 235.354 438.833 234.105V234.045H438.893C442.158 234.033 446.936 234.021 452.291 234.009C452.327 234.045 452.207 233.925 452.375 234.093V234.105V234.117V234.153V234.225V234.357V234.621V235.15C452.375 235.498 452.375 235.846 452.375 236.194C452.375 236.878 452.375 237.563 452.375 238.211V238.295H452.291C448.473 238.283 445.148 238.271 442.675 238.259C441.546 238.247 440.61 238.247 439.877 238.235C439.589 238.235 439.349 238.223 439.133 238.223C438.977 238.235 438.893 238.235 438.893 238.223C438.893 238.223 438.989 238.211 439.169 238.211C439.385 238.211 439.637 238.199 439.925 238.199C440.658 238.187 441.594 238.187 442.735 238.175C445.196 238.163 448.509 238.151 452.291 238.139L452.207 238.223C452.207 237.563 452.207 236.89 452.207 236.206C452.207 235.858 452.207 235.51 452.207 235.162V234.633V234.369V234.237V234.165V234.129V234.117V234.105C452.375 234.273 452.255 234.153 452.291 234.189C446.936 234.177 442.158 234.165 438.893 234.153L438.953 234.093C438.941 235.33 438.929 236.338 438.917 237.118C438.917 237.431 438.905 237.707 438.905 237.935C438.905 238.127 438.893 238.223 438.893 238.223Z" fill="#263238"/>
<path d="M392.638 280.793C392.638 280.793 392.626 280.709 392.626 280.529C392.626 280.301 392.614 280.037 392.614 279.724C392.602 278.944 392.59 277.924 392.578 276.675V276.615H392.638C395.904 276.603 400.682 276.591 406.036 276.579C406.072 276.615 405.952 276.495 406.12 276.663V276.675V276.687V276.723V276.795V276.927V277.191V277.72C406.12 278.068 406.12 278.416 406.12 278.764C406.12 279.448 406.12 280.133 406.12 280.781V280.865H406.036C402.218 280.853 398.893 280.841 396.42 280.829C395.291 280.817 394.355 280.817 393.623 280.805C393.334 280.805 393.094 280.793 392.878 280.793C392.722 280.805 392.638 280.805 392.638 280.793C392.638 280.793 392.734 280.781 392.914 280.781C393.13 280.781 393.382 280.769 393.671 280.769C394.403 280.757 395.339 280.757 396.48 280.745C398.941 280.733 402.254 280.721 406.036 280.709L405.952 280.793C405.952 280.133 405.952 279.46 405.952 278.776C405.952 278.428 405.952 278.08 405.952 277.732V277.203V276.939V276.807V276.735V276.699V276.687V276.675C406.132 276.843 406 276.723 406.036 276.759C400.682 276.747 395.904 276.735 392.638 276.723L392.698 276.663C392.686 277.9 392.674 278.908 392.662 279.688C392.662 280.001 392.65 280.277 392.65 280.505C392.65 280.697 392.638 280.793 392.638 280.793Z" fill="#263238"/>
<path d="M454.68 316.988C454.68 316.988 454.668 316.904 454.668 316.724C454.668 316.496 454.656 316.232 454.656 315.92C454.644 315.14 454.644 314.119 454.62 312.871V312.811H454.68C457.946 312.799 462.724 312.786 468.078 312.774C468.114 312.81 467.994 312.69 468.162 312.859V312.871V312.883V312.919V312.991V313.123V313.387V313.915C468.162 314.263 468.162 314.611 468.162 314.959C468.162 315.644 468.162 316.328 468.162 316.976V317.06H468.078C464.26 317.048 460.935 317.036 458.462 317.024C457.333 317.012 456.397 317.012 455.665 317C455.376 317 455.136 316.988 454.92 316.988C454.764 317 454.68 316.988 454.68 316.988C454.68 316.988 454.776 316.976 454.956 316.976C455.172 316.976 455.424 316.964 455.713 316.964C456.445 316.952 457.381 316.952 458.522 316.94C460.983 316.928 464.296 316.916 468.078 316.904L467.994 316.988C467.994 316.328 467.994 315.656 467.994 314.971C467.994 314.623 467.994 314.275 467.994 313.927V313.399V313.135V313.003V312.931V312.895V312.883V312.871C468.162 313.039 468.042 312.919 468.078 312.955C462.724 312.943 457.946 312.931 454.68 312.919L454.74 312.859C454.728 314.095 454.716 315.103 454.704 315.884C454.704 316.196 454.692 316.472 454.692 316.7C454.692 316.88 454.68 316.988 454.68 316.988Z" fill="#263238"/>
<path d="M448.929 242.353C448.929 242.353 448.917 242.269 448.917 242.089C448.917 241.86 448.905 241.596 448.905 241.284C448.893 240.504 448.881 239.483 448.869 238.235V238.175H448.929C452.195 238.163 456.973 238.151 462.327 238.139C462.363 238.175 462.243 238.055 462.411 238.223V238.235V238.247V238.283V238.355V238.487V238.751V239.279C462.411 239.627 462.411 239.976 462.411 240.324C462.411 241.008 462.411 241.692 462.411 242.341V242.425H462.327C458.509 242.413 455.184 242.401 452.711 242.389C451.582 242.377 450.646 242.377 449.914 242.365C449.625 242.365 449.385 242.353 449.169 242.353C449.013 242.365 448.929 242.353 448.929 242.353C448.929 242.353 449.025 242.341 449.205 242.341C449.421 242.341 449.673 242.329 449.962 242.329C450.694 242.317 451.63 242.317 452.771 242.305C455.232 242.293 458.545 242.281 462.327 242.269L462.243 242.353C462.243 241.692 462.243 241.02 462.243 240.336C462.243 239.988 462.243 239.639 462.243 239.291V238.763V238.499V238.367V238.295V238.259V238.247V238.235C462.411 238.403 462.291 238.283 462.327 238.319C456.973 238.307 452.195 238.295 448.929 238.283L448.989 238.223C448.977 239.459 448.965 240.468 448.953 241.248C448.953 241.56 448.941 241.836 448.941 242.065C448.941 242.245 448.929 242.353 448.929 242.353Z" fill="#263238"/>
<path d="M384.102 359.198C384.102 359.198 384.09 359.114 384.09 358.934C384.09 358.706 384.078 358.442 384.078 358.13C384.066 357.349 384.054 356.329 384.042 355.08V355.02H384.102C387.367 355.008 392.145 354.996 397.5 354.984C397.536 355.02 397.416 354.9 397.584 355.068V355.08V355.092V355.128V355.201V355.333V355.597V356.125C397.584 356.473 397.584 356.821 397.584 357.169C397.584 357.854 397.584 358.538 397.584 359.186V359.27H397.5C393.682 359.258 390.357 359.246 387.884 359.234C386.755 359.222 385.819 359.222 385.086 359.21C384.798 359.21 384.558 359.198 384.342 359.198C384.174 359.21 384.09 359.198 384.102 359.198C384.102 359.198 384.198 359.186 384.378 359.186C384.594 359.186 384.846 359.174 385.134 359.174C385.867 359.162 386.803 359.162 387.944 359.15C390.405 359.138 393.718 359.126 397.5 359.114L397.416 359.198C397.416 358.538 397.416 357.866 397.416 357.181C397.416 356.833 397.416 356.485 397.416 356.137V355.609V355.345V355.212V355.14V355.104V355.092V355.08C397.584 355.249 397.464 355.128 397.5 355.164C392.145 355.152 387.367 355.14 384.102 355.128L384.162 355.068C384.15 356.305 384.138 357.313 384.126 358.094C384.126 358.406 384.114 358.682 384.114 358.91C384.102 359.102 384.102 359.198 384.102 359.198Z" fill="#263238"/>
<path d="M500.263 84.0055H384.57V164.536H427.837L442.603 180.586L457.297 164.536H500.263V84.0055Z" fill="white"/>
<path d="M500.263 84.0055C500.263 84.0055 500.275 84.4737 500.287 85.4221C500.299 86.3825 500.299 87.7871 500.311 89.6239C500.323 93.3454 500.347 98.7837 500.371 105.759C500.407 119.781 500.443 139.937 500.503 164.536V164.788H500.251C487.298 164.8 472.784 164.812 457.273 164.824L457.489 164.728C452.843 169.806 447.885 175.232 442.807 180.791L442.591 181.031L442.375 180.791C437.693 175.7 432.699 170.274 427.608 164.74L427.837 164.836C416.18 164.836 404.03 164.836 391.629 164.836C389.252 164.836 386.899 164.836 384.558 164.836H384.246V164.524C384.258 135.615 384.27 108.268 384.282 83.9935V83.7054H384.558C418.893 83.7654 447.837 83.8134 468.234 83.8494C478.378 83.8854 486.397 83.9094 491.896 83.9214C494.621 83.9334 496.71 83.9455 498.138 83.9575C498.835 83.9695 499.363 83.9695 499.735 83.9695C500.095 83.9935 500.263 84.0055 500.263 84.0055C500.263 84.0055 500.071 84.0175 499.699 84.0175C499.315 84.0175 498.775 84.0295 498.066 84.0295C496.626 84.0415 494.513 84.0535 491.764 84.0655C486.253 84.0775 478.222 84.1135 468.042 84.1375C447.693 84.1736 418.809 84.2216 384.558 84.2816L384.834 84.0055C384.846 108.28 384.858 135.615 384.87 164.536L384.558 164.223C386.887 164.223 389.252 164.223 391.629 164.223C404.03 164.223 416.18 164.223 427.837 164.223H427.969L428.065 164.32C433.155 169.854 438.137 175.28 442.819 180.382H442.375C447.465 174.836 452.423 169.41 457.069 164.344L457.153 164.248H457.285C472.796 164.26 487.31 164.272 500.263 164.284L500.011 164.536C500.071 139.997 500.107 119.901 500.143 105.915C500.167 98.9158 500.191 93.4535 500.203 89.7319C500.215 87.8831 500.227 86.4545 500.227 85.4821C500.251 84.5097 500.263 84.0055 500.263 84.0055Z" fill="#263238"/>
<path d="M441.954 33.7762C428.88 34.0763 418.22 44.7368 417.907 57.8104C417.775 63.4047 419.516 68.5909 422.541 72.7927H422.529L422.769 73.1169C422.781 73.1289 422.793 73.1529 422.805 73.1649L440.249 96.899C441.786 98.9878 444.931 98.9278 446.371 96.7669L462.146 73.321C465.135 68.771 467.176 64.017 467.176 58.4106C467.176 44.6048 455.831 33.452 441.954 33.7762ZM442.542 76.3222C432.314 76.3222 424.018 68.0267 424.018 57.7984C424.018 47.57 432.314 39.2745 442.542 39.2745C452.77 39.2745 461.066 47.57 461.066 57.7984C461.066 68.0267 452.77 76.3222 442.542 76.3222Z" fill="#FF725E"/>
<g opacity="0.3">
<path opacity="0.3" d="M441.954 33.7762C428.88 34.0763 418.22 44.7368 417.907 57.8104C417.775 63.4047 419.516 68.5909 422.541 72.7927H422.529L422.769 73.1169C422.781 73.1289 422.793 73.1529 422.805 73.1649L440.249 96.899C441.786 98.9878 444.931 98.9278 446.371 96.7669L462.146 73.321C465.135 68.771 467.176 64.017 467.176 58.4106C467.176 44.6048 455.831 33.452 441.954 33.7762ZM442.542 76.3222C432.314 76.3222 424.018 68.0267 424.018 57.7984C424.018 47.57 432.314 39.2745 442.542 39.2745C452.77 39.2745 461.066 47.57 461.066 57.7984C461.066 68.0267 452.77 76.3222 442.542 76.3222Z" fill="black"/>
</g>
<path d="M440.49 33.7762C427.416 34.0763 416.756 44.7368 416.444 57.8104C416.311 63.4047 418.052 68.5909 421.078 72.7927H421.066L421.306 73.1169C421.318 73.1289 421.33 73.1529 421.342 73.1649L438.785 96.899C440.322 98.9878 443.467 98.9278 444.908 96.7669L460.682 73.321C463.672 68.771 465.712 64.017 465.712 58.4106C465.712 44.6048 454.368 33.452 440.49 33.7762ZM441.078 72.9848C433.335 72.9848 427.044 66.7061 427.044 58.9509C427.044 51.2076 433.323 44.9169 441.078 44.9169C448.821 44.9169 455.112 51.1956 455.112 58.9509C455.112 66.7061 448.821 72.9848 441.078 72.9848Z" fill="#F33D3D"/>
<path d="M398.736 120.477H396.936L396.6 121.305H395.375L397.248 117.055H398.436L400.321 121.305H399.073L398.736 120.477ZM398.388 119.601L397.836 118.244L397.284 119.601H398.388Z" fill="#263238"/>
<path d="M400.669 117.055H402.674C403.142 117.055 403.55 117.14 403.91 117.32C404.27 117.5 404.547 117.74 404.751 118.064C404.955 118.388 405.051 118.76 405.051 119.192C405.051 119.625 404.955 119.997 404.751 120.321C404.547 120.645 404.27 120.885 403.91 121.065C403.55 121.245 403.142 121.329 402.674 121.329H400.669V117.055ZM402.626 120.345C402.986 120.345 403.286 120.237 403.502 120.033C403.718 119.829 403.838 119.541 403.838 119.18C403.838 118.82 403.73 118.532 403.502 118.328C403.286 118.124 402.986 118.016 402.626 118.016H401.869V120.345H402.626Z" fill="#263238"/>
<path d="M405.688 117.055H407.692C408.161 117.055 408.569 117.14 408.929 117.32C409.289 117.5 409.565 117.74 409.769 118.064C409.973 118.388 410.069 118.76 410.069 119.192C410.069 119.625 409.973 119.997 409.769 120.321C409.565 120.645 409.289 120.885 408.929 121.065C408.569 121.245 408.161 121.329 407.692 121.329H405.688V117.055ZM407.644 120.345C408.004 120.345 408.305 120.237 408.521 120.033C408.737 119.829 408.857 119.541 408.857 119.18C408.857 118.82 408.749 118.532 408.521 118.328C408.305 118.124 408.004 118.016 407.644 118.016H406.888V120.345H407.644Z" fill="#263238"/>
<path d="M412.565 120.177H411.905V121.305H410.704V117.055H412.649C413.033 117.055 413.369 117.116 413.645 117.248C413.933 117.38 414.15 117.56 414.306 117.8C414.462 118.04 414.534 118.316 414.534 118.64C414.534 118.952 414.462 119.216 414.318 119.445C414.174 119.673 413.969 119.853 413.705 119.985L414.618 121.317H413.333L412.565 120.177ZM413.129 118.172C412.997 118.064 412.817 118.004 412.565 118.004H411.893V119.252H412.565C412.817 119.252 412.997 119.204 413.129 119.096C413.249 118.988 413.321 118.832 413.321 118.64C413.321 118.436 413.261 118.28 413.129 118.172Z" fill="#263238"/>
<path d="M418.617 120.381V121.305H415.207V117.055H418.544V117.98H416.396V118.7H418.28V119.601H416.396V120.381H418.617Z" fill="#263238"/>
<path d="M419.77 121.269C419.446 121.185 419.182 121.065 418.978 120.933L419.374 120.045C419.566 120.165 419.782 120.273 420.034 120.345C420.286 120.417 420.526 120.465 420.778 120.465C421.234 120.465 421.475 120.345 421.475 120.117C421.475 119.997 421.403 119.901 421.271 119.841C421.138 119.781 420.922 119.721 420.634 119.661C420.31 119.589 420.046 119.517 419.83 119.445C419.614 119.36 419.434 119.24 419.278 119.06C419.122 118.88 419.05 118.652 419.05 118.352C419.05 118.088 419.122 117.86 419.266 117.656C419.41 117.452 419.614 117.284 419.902 117.164C420.19 117.043 420.526 116.983 420.934 116.983C421.21 116.983 421.487 117.019 421.763 117.08C422.039 117.14 422.279 117.236 422.483 117.356L422.111 118.244C421.703 118.028 421.307 117.92 420.934 117.92C420.694 117.92 420.526 117.956 420.418 118.028C420.31 118.1 420.25 118.196 420.25 118.304C420.25 118.412 420.31 118.508 420.442 118.556C420.574 118.616 420.778 118.676 421.066 118.736C421.391 118.808 421.655 118.88 421.871 118.952C422.087 119.024 422.267 119.156 422.423 119.324C422.579 119.493 422.651 119.733 422.651 120.021C422.651 120.273 422.579 120.501 422.435 120.717C422.291 120.921 422.075 121.089 421.799 121.209C421.511 121.329 421.174 121.389 420.766 121.389C420.43 121.389 420.094 121.353 419.77 121.269Z" fill="#263238"/>
<path d="M423.707 121.269C423.383 121.185 423.119 121.065 422.915 120.933L423.311 120.045C423.503 120.165 423.719 120.273 423.971 120.345C424.224 120.417 424.464 120.465 424.716 120.465C425.172 120.465 425.412 120.345 425.412 120.117C425.412 119.997 425.34 119.901 425.208 119.841C425.076 119.781 424.86 119.721 424.572 119.661C424.248 119.589 423.983 119.517 423.767 119.445C423.551 119.36 423.371 119.24 423.215 119.06C423.059 118.88 422.987 118.652 422.987 118.352C422.987 118.088 423.059 117.86 423.203 117.656C423.347 117.452 423.551 117.284 423.839 117.164C424.128 117.043 424.464 116.983 424.872 116.983C425.148 116.983 425.424 117.019 425.7 117.08C425.976 117.14 426.216 117.236 426.421 117.356L426.048 118.244C425.64 118.028 425.244 117.92 424.872 117.92C424.632 117.92 424.464 117.956 424.356 118.028C424.248 118.1 424.188 118.196 424.188 118.304C424.188 118.412 424.248 118.508 424.38 118.556C424.512 118.616 424.716 118.676 425.004 118.736C425.328 118.808 425.592 118.88 425.808 118.952C426.024 119.024 426.204 119.156 426.36 119.324C426.517 119.493 426.589 119.733 426.589 120.021C426.589 120.273 426.517 120.501 426.373 120.717C426.228 120.921 426.012 121.089 425.736 121.209C425.448 121.329 425.112 121.389 424.704 121.389C424.368 121.389 424.032 121.353 423.707 121.269Z" fill="#263238"/>
<path d="M427.056 119.132C426.924 119 426.852 118.844 426.852 118.64C426.852 118.436 426.912 118.268 427.044 118.148C427.176 118.028 427.344 117.956 427.536 117.956C427.74 117.956 427.908 118.016 428.04 118.148C428.172 118.268 428.232 118.436 428.232 118.64C428.232 118.844 428.172 119 428.04 119.132C427.908 119.264 427.74 119.324 427.548 119.324C427.344 119.324 427.188 119.264 427.056 119.132ZM427.056 121.173C426.924 121.041 426.852 120.885 426.852 120.681C426.852 120.477 426.912 120.309 427.044 120.189C427.176 120.069 427.344 119.997 427.536 119.997C427.74 119.997 427.908 120.057 428.04 120.189C428.172 120.309 428.232 120.477 428.232 120.681C428.232 120.885 428.172 121.041 428.04 121.173C427.908 121.305 427.74 121.365 427.548 121.365C427.344 121.365 427.188 121.293 427.056 121.173Z" fill="#263238"/>
<path d="M398.832 147.176C399.12 147.308 399.336 147.488 399.492 147.729C399.648 147.969 399.72 148.245 399.72 148.569C399.72 148.893 399.648 149.169 399.492 149.397C399.336 149.637 399.12 149.817 398.832 149.937C398.544 150.057 398.22 150.13 397.835 150.13H397.091V151.246H395.891V146.996H397.835C398.22 146.984 398.556 147.044 398.832 147.176ZM398.328 149.013C398.448 148.905 398.52 148.749 398.52 148.557C398.52 148.353 398.46 148.209 398.328 148.101C398.196 147.993 398.016 147.933 397.763 147.933H397.091V149.181H397.763C398.016 149.181 398.196 149.121 398.328 149.013Z" fill="#263238"/>
<path d="M401.305 151.03C400.945 150.838 400.669 150.574 400.464 150.238C400.26 149.901 400.152 149.517 400.152 149.097C400.152 148.677 400.248 148.293 400.464 147.957C400.669 147.62 400.945 147.356 401.305 147.164C401.665 146.972 402.073 146.876 402.517 146.876C402.974 146.876 403.37 146.972 403.73 147.164C404.09 147.356 404.366 147.62 404.57 147.957C404.774 148.293 404.882 148.677 404.882 149.097C404.882 149.517 404.786 149.901 404.57 150.238C404.366 150.574 404.09 150.838 403.73 151.03C403.37 151.222 402.974 151.318 402.517 151.318C402.061 151.318 401.665 151.222 401.305 151.03ZM403.094 150.178C403.262 150.081 403.406 149.937 403.502 149.745C403.598 149.565 403.658 149.349 403.658 149.109C403.658 148.869 403.61 148.653 403.502 148.473C403.406 148.293 403.262 148.149 403.094 148.041C402.913 147.945 402.721 147.885 402.505 147.885C402.289 147.885 402.097 147.933 401.917 148.041C401.737 148.137 401.605 148.281 401.509 148.473C401.413 148.653 401.353 148.869 401.353 149.109C401.353 149.349 401.401 149.565 401.509 149.745C401.605 149.925 401.749 150.069 401.917 150.178C402.085 150.274 402.289 150.334 402.505 150.334C402.721 150.334 402.925 150.274 403.094 150.178Z" fill="#263238"/>
<path d="M405.998 151.198C405.674 151.114 405.41 150.994 405.206 150.862L405.602 149.973C405.794 150.093 406.01 150.202 406.263 150.274C406.515 150.346 406.755 150.394 407.007 150.394C407.463 150.394 407.703 150.274 407.703 150.045C407.703 149.925 407.631 149.829 407.499 149.769C407.367 149.709 407.151 149.649 406.863 149.589C406.539 149.517 406.274 149.445 406.058 149.373C405.842 149.289 405.662 149.169 405.506 148.989C405.35 148.809 405.278 148.581 405.278 148.281C405.278 148.017 405.35 147.789 405.494 147.584C405.638 147.38 405.842 147.212 406.13 147.092C406.419 146.972 406.755 146.912 407.163 146.912C407.439 146.912 407.715 146.948 407.991 147.008C408.267 147.068 408.507 147.164 408.712 147.284L408.339 148.173C407.931 147.957 407.535 147.849 407.163 147.849C406.923 147.849 406.755 147.885 406.647 147.957C406.539 148.029 406.479 148.125 406.479 148.233C406.479 148.341 406.539 148.437 406.671 148.485C406.803 148.545 407.007 148.605 407.295 148.665C407.619 148.737 407.883 148.809 408.099 148.881C408.315 148.953 408.495 149.085 408.652 149.253C408.808 149.421 408.88 149.661 408.88 149.949C408.88 150.202 408.808 150.43 408.664 150.646C408.519 150.85 408.303 151.018 408.027 151.138C407.739 151.258 407.403 151.318 406.995 151.318C406.659 151.318 406.323 151.282 405.998 151.198Z" fill="#263238"/>
<path d="M410.285 147.933H408.977V146.984H412.782V147.933H411.486V151.234H410.285V147.933Z" fill="#263238"/>
<path d="M415.928 151.042C415.567 150.85 415.291 150.586 415.087 150.25C414.883 149.913 414.787 149.529 414.787 149.109C414.787 148.689 414.883 148.305 415.087 147.969C415.291 147.632 415.567 147.368 415.928 147.176C416.276 146.984 416.684 146.888 417.128 146.888C417.512 146.888 417.872 146.96 418.185 147.092C418.497 147.224 418.761 147.428 418.965 147.692L418.197 148.389C417.92 148.053 417.584 147.885 417.2 147.885C416.972 147.885 416.768 147.933 416.588 148.041C416.408 148.149 416.264 148.281 416.168 148.473C416.072 148.653 416.024 148.869 416.024 149.109C416.024 149.349 416.072 149.565 416.168 149.745C416.264 149.925 416.408 150.069 416.588 150.178C416.768 150.274 416.972 150.334 417.2 150.334C417.596 150.334 417.932 150.166 418.197 149.829L418.965 150.526C418.761 150.79 418.497 150.982 418.185 151.126C417.872 151.27 417.524 151.33 417.128 151.33C416.684 151.318 416.276 151.222 415.928 151.042Z" fill="#263238"/>
<path d="M420.333 151.03C419.973 150.838 419.697 150.574 419.493 150.238C419.289 149.901 419.181 149.517 419.181 149.097C419.181 148.677 419.277 148.293 419.493 147.957C419.697 147.62 419.973 147.356 420.333 147.164C420.693 146.972 421.101 146.876 421.546 146.876C422.002 146.876 422.398 146.972 422.758 147.164C423.118 147.356 423.394 147.62 423.599 147.957C423.803 148.293 423.911 148.677 423.911 149.097C423.911 149.517 423.815 149.901 423.599 150.238C423.394 150.574 423.118 150.838 422.758 151.03C422.398 151.222 422.002 151.318 421.546 151.318C421.089 151.318 420.693 151.222 420.333 151.03ZM422.122 150.178C422.29 150.081 422.434 149.937 422.53 149.745C422.626 149.565 422.686 149.349 422.686 149.109C422.686 148.869 422.638 148.653 422.53 148.473C422.434 148.293 422.29 148.149 422.122 148.041C421.942 147.945 421.75 147.885 421.534 147.885C421.318 147.885 421.125 147.933 420.945 148.041C420.765 148.137 420.633 148.281 420.537 148.473C420.441 148.653 420.381 148.869 420.381 149.109C420.381 149.349 420.429 149.565 420.537 149.745C420.633 149.925 420.777 150.069 420.945 150.178C421.113 150.274 421.318 150.334 421.534 150.334C421.75 150.334 421.954 150.274 422.122 150.178Z" fill="#263238"/>
<path d="M424.535 146.984H426.54C427.008 146.984 427.416 147.068 427.777 147.248C428.137 147.428 428.413 147.668 428.617 147.993C428.821 148.317 428.917 148.689 428.917 149.121C428.917 149.553 428.821 149.925 428.617 150.25C428.413 150.574 428.137 150.814 427.777 150.994C427.416 151.174 427.008 151.258 426.54 151.258H424.535V146.984ZM426.504 150.274C426.864 150.274 427.164 150.166 427.38 149.961C427.596 149.757 427.716 149.469 427.716 149.109C427.716 148.749 427.608 148.461 427.38 148.257C427.164 148.053 426.864 147.945 426.504 147.945H425.748V150.274H426.504Z" fill="#263238"/>
<path d="M432.974 150.31V151.234H429.564V146.984H432.902V147.909H430.753V148.629H432.638V149.529H430.753V150.31H432.974Z" fill="#263238"/>
<path d="M435.34 149.061C435.208 148.929 435.136 148.773 435.136 148.569C435.136 148.365 435.196 148.197 435.328 148.077C435.46 147.957 435.628 147.885 435.82 147.885C436.024 147.885 436.192 147.945 436.324 148.077C436.456 148.197 436.516 148.365 436.516 148.569C436.516 148.773 436.456 148.929 436.324 149.061C436.192 149.193 436.024 149.253 435.832 149.253C435.64 149.253 435.484 149.193 435.34 149.061ZM435.34 151.09C435.208 150.958 435.136 150.802 435.136 150.598C435.136 150.394 435.196 150.226 435.328 150.106C435.46 149.985 435.628 149.913 435.82 149.913C436.024 149.913 436.192 149.973 436.324 150.106C436.456 150.226 436.516 150.394 436.516 150.598C436.516 150.802 436.456 150.958 436.324 151.09C436.192 151.222 436.024 151.282 435.832 151.282C435.64 151.294 435.484 151.222 435.34 151.09Z" fill="#263238"/>
<path d="M396.815 130.345C396.455 130.153 396.179 129.889 395.975 129.553C395.771 129.217 395.675 128.832 395.675 128.412C395.675 127.992 395.771 127.608 395.975 127.272C396.179 126.936 396.455 126.672 396.815 126.479C397.163 126.287 397.572 126.191 398.016 126.191C398.4 126.191 398.76 126.263 399.072 126.395C399.384 126.528 399.649 126.732 399.853 126.996L399.084 127.692C398.808 127.356 398.472 127.188 398.088 127.188C397.86 127.188 397.656 127.236 397.476 127.344C397.295 127.452 397.151 127.584 397.055 127.776C396.959 127.956 396.911 128.172 396.911 128.412C396.911 128.652 396.959 128.869 397.055 129.049C397.151 129.229 397.295 129.373 397.476 129.481C397.656 129.577 397.86 129.637 398.088 129.637C398.484 129.637 398.82 129.469 399.084 129.133L399.853 129.829C399.649 130.093 399.384 130.285 399.072 130.429C398.76 130.573 398.412 130.633 398.016 130.633C397.572 130.621 397.163 130.537 396.815 130.345Z" fill="#263238"/>
<path d="M400.381 126.287H401.581V130.537H400.381V126.287Z" fill="#263238"/>
<path d="M403.334 127.248H402.025V126.299H405.843V127.248H404.546V130.549H403.346V127.248H403.334Z" fill="#263238"/>
<path d="M408.472 129.013V130.537H407.271V128.989L405.65 126.275H406.923L407.931 127.968L408.94 126.275H410.104L408.472 129.013Z" fill="#263238"/>
<path d="M410.104 128.364C409.972 128.232 409.9 128.076 409.9 127.872C409.9 127.668 409.96 127.5 410.092 127.38C410.225 127.26 410.393 127.188 410.585 127.188C410.789 127.188 410.957 127.248 411.089 127.38C411.221 127.5 411.281 127.668 411.281 127.872C411.281 128.076 411.221 128.232 411.089 128.364C410.957 128.496 410.789 128.556 410.597 128.556C410.405 128.556 410.237 128.496 410.104 128.364ZM410.104 130.405C409.972 130.273 409.9 130.117 409.9 129.913C409.9 129.709 409.96 129.541 410.092 129.421C410.225 129.301 410.393 129.229 410.585 129.229C410.789 129.229 410.957 129.289 411.089 129.421C411.221 129.541 411.281 129.709 411.281 129.913C411.281 130.117 411.221 130.273 411.089 130.405C410.957 130.537 410.789 130.597 410.597 130.597C410.405 130.597 410.237 130.537 410.104 130.405Z" fill="#263238"/>
<path d="M425.375 108.256H422.89L422.422 109.396H420.729L423.323 103.514H424.967L427.572 109.396H425.844L425.375 108.256ZM424.895 107.031L424.139 105.146L423.383 107.031H424.895Z" fill="#263238"/>
<path d="M428.053 103.514H430.838C431.486 103.514 432.05 103.634 432.555 103.874C433.059 104.114 433.443 104.462 433.719 104.894C433.995 105.338 434.127 105.855 434.127 106.455C434.127 107.055 433.983 107.571 433.719 108.016C433.443 108.46 433.059 108.796 432.555 109.036C432.05 109.276 431.486 109.396 430.838 109.396H428.053V103.514ZM430.766 108.064C431.27 108.064 431.678 107.92 431.978 107.631C432.279 107.343 432.435 106.947 432.435 106.443C432.435 105.939 432.279 105.543 431.978 105.254C431.678 104.966 431.27 104.822 430.766 104.822H429.709V108.052H430.766V108.064Z" fill="#263238"/>
<path d="M434.991 103.514H437.776C438.425 103.514 438.989 103.634 439.493 103.874C439.997 104.114 440.381 104.462 440.658 104.894C440.934 105.338 441.066 105.855 441.066 106.455C441.066 107.055 440.922 107.571 440.658 108.016C440.381 108.46 439.997 108.796 439.493 109.036C438.989 109.276 438.425 109.396 437.776 109.396H434.991V103.514ZM437.704 108.064C438.209 108.064 438.617 107.92 438.917 107.631C439.217 107.343 439.373 106.947 439.373 106.443C439.373 105.939 439.217 105.543 438.917 105.254C438.617 104.966 438.209 104.822 437.704 104.822H436.648V108.052H437.704V108.064Z" fill="#263238"/>
<path d="M444.512 107.836H443.599V109.396H441.931V103.514H444.62C445.148 103.514 445.616 103.598 446.012 103.778C446.409 103.958 446.709 104.21 446.925 104.534C447.141 104.858 447.249 105.242 447.249 105.687C447.249 106.107 447.153 106.479 446.949 106.803C446.745 107.115 446.469 107.367 446.096 107.547L447.369 109.396H445.592L444.512 107.836ZM445.304 105.05C445.136 104.894 444.872 104.822 444.536 104.822H443.611V106.551H444.536C444.884 106.551 445.136 106.479 445.304 106.323C445.472 106.167 445.568 105.963 445.568 105.687C445.556 105.411 445.472 105.206 445.304 105.05Z" fill="#263238"/>
<path d="M452.891 108.112V109.396H448.161V103.514H452.783V104.798H449.818V105.795H452.435V107.043H449.818V108.124H452.891V108.112Z" fill="#263238"/>
<path d="M454.488 109.336C454.044 109.216 453.672 109.06 453.396 108.868L453.948 107.643C454.212 107.812 454.512 107.956 454.86 108.064C455.208 108.172 455.544 108.22 455.881 108.22C456.517 108.22 456.841 108.064 456.841 107.74C456.841 107.571 456.745 107.451 456.565 107.367C456.385 107.283 456.085 107.199 455.688 107.115C455.244 107.019 454.872 106.923 454.584 106.803C454.284 106.695 454.032 106.515 453.816 106.275C453.6 106.035 453.492 105.711 453.492 105.302C453.492 104.942 453.588 104.618 453.792 104.33C453.984 104.042 454.284 103.814 454.668 103.646C455.064 103.478 455.532 103.394 456.097 103.394C456.481 103.394 456.865 103.442 457.237 103.526C457.609 103.61 457.945 103.742 458.234 103.91L457.717 105.146C457.153 104.846 456.613 104.69 456.085 104.69C455.749 104.69 455.508 104.738 455.364 104.834C455.208 104.93 455.136 105.062 455.136 105.218C455.136 105.375 455.22 105.495 455.4 105.567C455.58 105.639 455.869 105.723 456.265 105.807C456.709 105.903 457.081 105.999 457.381 106.119C457.681 106.227 457.933 106.407 458.15 106.635C458.366 106.875 458.474 107.199 458.474 107.607C458.474 107.956 458.378 108.28 458.174 108.568C457.969 108.856 457.681 109.084 457.285 109.252C456.889 109.42 456.421 109.504 455.857 109.504C455.4 109.516 454.944 109.456 454.488 109.336Z" fill="#263238"/>
<path d="M459.938 109.336C459.494 109.216 459.122 109.06 458.846 108.868L459.398 107.643C459.662 107.812 459.962 107.956 460.31 108.064C460.658 108.172 460.995 108.22 461.331 108.22C461.967 108.22 462.291 108.064 462.291 107.74C462.291 107.571 462.195 107.451 462.015 107.367C461.835 107.283 461.535 107.199 461.139 107.115C460.694 107.019 460.322 106.923 460.034 106.803C459.734 106.695 459.482 106.515 459.266 106.275C459.05 106.035 458.942 105.711 458.942 105.302C458.942 104.942 459.038 104.618 459.242 104.33C459.434 104.042 459.734 103.814 460.118 103.646C460.514 103.478 460.983 103.394 461.547 103.394C461.931 103.394 462.315 103.442 462.687 103.526C463.06 103.61 463.396 103.742 463.684 103.91L463.168 105.146C462.603 104.846 462.063 104.69 461.535 104.69C461.199 104.69 460.959 104.738 460.815 104.834C460.658 104.93 460.586 105.062 460.586 105.218C460.586 105.375 460.67 105.495 460.851 105.567C461.031 105.639 461.319 105.723 461.715 105.807C462.159 105.903 462.531 105.999 462.831 106.119C463.132 106.227 463.384 106.407 463.6 106.635C463.816 106.875 463.924 107.199 463.924 107.607C463.924 107.956 463.828 108.28 463.624 108.568C463.42 108.856 463.132 109.084 462.735 109.252C462.339 109.42 461.871 109.504 461.307 109.504C460.839 109.516 460.382 109.456 459.938 109.336Z" fill="#263238"/>
<path d="M483.564 118.064C483.564 118.232 472.123 118.376 458.029 118.376C443.923 118.376 432.482 118.232 432.482 118.064C432.482 117.896 443.911 117.752 458.029 117.752C472.135 117.752 483.564 117.884 483.564 118.064Z" fill="black"/>
<path d="M459.638 128.292C459.638 128.46 450.19 128.604 438.545 128.604C426.888 128.604 417.452 128.46 417.452 128.292C417.452 128.124 426.9 127.98 438.545 127.98C450.19 127.98 459.638 128.124 459.638 128.292Z" fill="black"/>
<path d="M396.815 140.285C396.455 140.093 396.179 139.829 395.975 139.493C395.771 139.157 395.675 138.773 395.675 138.353C395.675 137.932 395.771 137.548 395.975 137.212C396.179 136.876 396.455 136.612 396.815 136.42C397.163 136.228 397.572 136.132 398.016 136.132C398.4 136.132 398.76 136.204 399.072 136.336C399.384 136.468 399.649 136.672 399.853 136.936L399.084 137.632C398.808 137.296 398.472 137.128 398.088 137.128C397.86 137.128 397.656 137.176 397.476 137.284C397.295 137.392 397.151 137.524 397.055 137.716C396.959 137.896 396.911 138.112 396.911 138.353C396.911 138.593 396.959 138.809 397.055 138.989C397.151 139.169 397.295 139.313 397.476 139.421C397.656 139.517 397.86 139.577 398.088 139.577C398.484 139.577 398.82 139.409 399.084 139.073L399.853 139.769C399.649 140.033 399.384 140.225 399.072 140.369C398.76 140.513 398.412 140.573 398.016 140.573C397.572 140.561 397.163 140.465 396.815 140.285Z" fill="#263238"/>
<path d="M401.222 140.273C400.862 140.081 400.586 139.817 400.381 139.481C400.177 139.145 400.069 138.761 400.069 138.341C400.069 137.92 400.165 137.536 400.381 137.2C400.586 136.864 400.862 136.6 401.222 136.408C401.582 136.216 401.99 136.12 402.434 136.12C402.891 136.12 403.287 136.216 403.647 136.408C404.007 136.6 404.283 136.864 404.487 137.2C404.691 137.536 404.799 137.92 404.799 138.341C404.799 138.761 404.703 139.145 404.487 139.481C404.283 139.817 404.007 140.081 403.647 140.273C403.287 140.465 402.891 140.561 402.434 140.561C401.978 140.561 401.582 140.465 401.222 140.273ZM403.011 139.409C403.179 139.313 403.323 139.169 403.419 138.977C403.515 138.797 403.575 138.581 403.575 138.341C403.575 138.1 403.527 137.884 403.419 137.704C403.323 137.524 403.179 137.38 403.011 137.272C402.831 137.176 402.638 137.116 402.422 137.116C402.206 137.116 402.014 137.164 401.834 137.272C401.654 137.368 401.522 137.512 401.426 137.704C401.33 137.884 401.27 138.1 401.27 138.341C401.27 138.581 401.318 138.797 401.426 138.977C401.522 139.157 401.666 139.301 401.834 139.409C402.002 139.505 402.206 139.565 402.422 139.565C402.638 139.565 402.843 139.517 403.011 139.409Z" fill="#263238"/>
<path d="M405.915 140.045C405.567 139.697 405.387 139.217 405.387 138.581V136.228H406.587V138.545C406.587 139.229 406.851 139.565 407.392 139.565C407.932 139.565 408.196 139.229 408.196 138.545V136.228H409.384V138.581C409.384 139.217 409.204 139.697 408.856 140.045C408.508 140.393 408.016 140.561 407.38 140.561C406.743 140.561 406.263 140.393 405.915 140.045Z" fill="#263238"/>
<path d="M414.247 136.228V140.477H413.25L411.378 138.208V140.477H410.201V136.228H411.186L413.058 138.497V136.228H414.247Z" fill="#263238"/>
<path d="M415.999 137.176H414.69V136.228H418.496V137.176H417.199V140.477H415.999V137.176Z" fill="#263238"/>
<path d="M420.813 139.349H420.153V140.477H418.952V136.228H420.897C421.281 136.228 421.617 136.288 421.893 136.42C422.181 136.552 422.398 136.732 422.554 136.972C422.71 137.212 422.782 137.488 422.782 137.812C422.782 138.124 422.71 138.389 422.566 138.617C422.422 138.845 422.218 139.025 421.953 139.157L422.866 140.489H421.581L420.813 139.349ZM421.389 137.332C421.257 137.224 421.077 137.164 420.825 137.164H420.153V138.413H420.825C421.077 138.413 421.257 138.365 421.389 138.257C421.509 138.148 421.581 137.992 421.581 137.8C421.569 137.596 421.509 137.44 421.389 137.332Z" fill="#263238"/>
<path d="M425.663 138.953V140.477H424.462V138.929L422.842 136.216H424.114L425.123 137.908L426.131 136.216H427.296L425.663 138.953Z" fill="#263238"/>
<path d="M427.296 138.305C427.164 138.172 427.092 138.016 427.092 137.812C427.092 137.608 427.152 137.44 427.284 137.32C427.416 137.2 427.584 137.128 427.776 137.128C427.98 137.128 428.148 137.188 428.28 137.32C428.412 137.44 428.472 137.608 428.472 137.812C428.472 138.016 428.412 138.172 428.28 138.305C428.148 138.437 427.98 138.497 427.788 138.497C427.596 138.497 427.44 138.437 427.296 138.305ZM427.296 140.333C427.164 140.201 427.092 140.045 427.092 139.841C427.092 139.637 427.152 139.469 427.284 139.349C427.416 139.229 427.584 139.157 427.776 139.157C427.98 139.157 428.148 139.217 428.28 139.349C428.412 139.469 428.472 139.637 428.472 139.841C428.472 140.045 428.412 140.201 428.28 140.333C428.148 140.465 427.98 140.525 427.788 140.525C427.596 140.537 427.44 140.465 427.296 140.333Z" fill="#263238"/>
<path d="M463.863 138.929C463.863 139.097 456.84 139.241 448.185 139.241C439.517 139.241 432.494 139.097 432.494 138.929C432.494 138.761 439.517 138.617 448.185 138.617C456.84 138.617 463.863 138.761 463.863 138.929Z" fill="black"/>
<path d="M488.005 151.234C488.005 151.402 477.201 151.546 463.863 151.546C450.525 151.546 439.721 151.402 439.721 151.234C439.721 151.066 450.525 150.922 463.863 150.922C477.189 150.922 488.005 151.066 488.005 151.234Z" fill="black"/>
<path d="M86 271.5L160.5 290L162.5 226L229.5 245.5" stroke="#F33D3D" stroke-width="2"/>
<circle opacity="0.5" cx="86" cy="272" r="10" fill="white"/>
<circle cx="86" cy="272" r="5" fill="#F33D3D"/>
<circle opacity="0.5" cx="230" cy="245" r="10" fill="white"/>
<circle cx="230" cy="245" r="5" fill="#F33D3D"/>
</svg>
