<svg width="540" height="320" viewBox="0 0 540 320" fill="none" xmlns="http://www.w3.org/2000/svg">
<rect width="540" height="320" rx="10" fill="white"/>
<line x1="4.37114e-08" y1="49.5" x2="540" y2="49.5" stroke="#E2F0FA"/>
<line x1="85" y1="267.5" x2="510" y2="267.5" stroke="#E2F0FA"/>
<line x1="85" y1="232.5" x2="510" y2="232.5" stroke="#E2F0FA"/>
<line x1="85" y1="197.5" x2="510" y2="197.5" stroke="#E2F0FA"/>
<line x1="85" y1="162.5" x2="510" y2="162.5" stroke="#E2F0FA"/>
<line x1="85" y1="127.5" x2="510" y2="127.5" stroke="#E2F0FA"/>
<line x1="85" y1="92.5" x2="510" y2="92.5" stroke="#E2F0FA"/>
<path opacity="0.8" d="M43.276 260.272H39.064V263.008C39.248 262.752 39.52 262.544 39.88 262.384C40.24 262.216 40.628 262.132 41.044 262.132C41.708 262.132 42.248 262.272 42.664 262.552C43.08 262.824 43.376 263.18 43.552 263.62C43.736 264.052 43.828 264.512 43.828 265C43.828 265.576 43.72 266.092 43.504 266.548C43.288 267.004 42.956 267.364 42.508 267.628C42.068 267.892 41.52 268.024 40.864 268.024C40.024 268.024 39.344 267.808 38.824 267.376C38.304 266.944 37.988 266.368 37.876 265.648H38.944C39.048 266.104 39.268 266.46 39.604 266.716C39.94 266.972 40.364 267.1 40.876 267.1C41.508 267.1 41.984 266.912 42.304 266.536C42.624 266.152 42.784 265.648 42.784 265.024C42.784 264.4 42.624 263.92 42.304 263.584C41.984 263.24 41.512 263.068 40.888 263.068C40.464 263.068 40.092 263.172 39.772 263.38C39.46 263.58 39.232 263.856 39.088 264.208H38.056V259.312H43.276V260.272ZM45.2792 263.572C45.2792 262.196 45.5032 261.124 45.9512 260.356C46.3992 259.58 47.1832 259.192 48.3032 259.192C49.4152 259.192 50.1952 259.58 50.6432 260.356C51.0912 261.124 51.3152 262.196 51.3152 263.572C51.3152 264.972 51.0912 266.06 50.6432 266.836C50.1952 267.612 49.4152 268 48.3032 268C47.1832 268 46.3992 267.612 45.9512 266.836C45.5032 266.06 45.2792 264.972 45.2792 263.572ZM50.2352 263.572C50.2352 262.876 50.1872 262.288 50.0912 261.808C50.0032 261.32 49.8152 260.928 49.5272 260.632C49.2472 260.336 48.8392 260.188 48.3032 260.188C47.7592 260.188 47.3432 260.336 47.0552 260.632C46.7752 260.928 46.5872 261.32 46.4912 261.808C46.4032 262.288 46.3592 262.876 46.3592 263.572C46.3592 264.292 46.4032 264.896 46.4912 265.384C46.5872 265.872 46.7752 266.264 47.0552 266.56C47.3432 266.856 47.7592 267.004 48.3032 267.004C48.8392 267.004 49.2472 266.856 49.5272 266.56C49.8152 266.264 50.0032 265.872 50.0912 265.384C50.1872 264.896 50.2352 264.292 50.2352 263.572ZM52.8143 263.572C52.8143 262.196 53.0383 261.124 53.4863 260.356C53.9343 259.58 54.7183 259.192 55.8383 259.192C56.9503 259.192 57.7303 259.58 58.1783 260.356C58.6263 261.124 58.8503 262.196 58.8503 263.572C58.8503 264.972 58.6263 266.06 58.1783 266.836C57.7303 267.612 56.9503 268 55.8383 268C54.7183 268 53.9343 267.612 53.4863 266.836C53.0383 266.06 52.8143 264.972 52.8143 263.572ZM57.7703 263.572C57.7703 262.876 57.7223 262.288 57.6263 261.808C57.5383 261.32 57.3503 260.928 57.0623 260.632C56.7823 260.336 56.3743 260.188 55.8383 260.188C55.2943 260.188 54.8783 260.336 54.5903 260.632C54.3103 260.928 54.1223 261.32 54.0263 261.808C53.9383 262.288 53.8943 262.876 53.8943 263.572C53.8943 264.292 53.9383 264.896 54.0263 265.384C54.1223 265.872 54.3103 266.264 54.5903 266.56C54.8783 266.856 55.2943 267.004 55.8383 267.004C56.3743 267.004 56.7823 266.856 57.0623 266.56C57.3503 266.264 57.5383 265.872 57.6263 265.384C57.7223 264.896 57.7703 264.292 57.7703 263.572Z" fill="#515151"/>
<path opacity="0.8" d="M34.0068 225.32V224.324H36.2628V233H35.1588V225.32H34.0068ZM38.1385 228.572C38.1385 227.196 38.3625 226.124 38.8105 225.356C39.2585 224.58 40.0425 224.192 41.1625 224.192C42.2745 224.192 43.0545 224.58 43.5025 225.356C43.9505 226.124 44.1745 227.196 44.1745 228.572C44.1745 229.972 43.9505 231.06 43.5025 231.836C43.0545 232.612 42.2745 233 41.1625 233C40.0425 233 39.2585 232.612 38.8105 231.836C38.3625 231.06 38.1385 229.972 38.1385 228.572ZM43.0945 228.572C43.0945 227.876 43.0465 227.288 42.9505 226.808C42.8625 226.32 42.6745 225.928 42.3865 225.632C42.1065 225.336 41.6985 225.188 41.1625 225.188C40.6185 225.188 40.2025 225.336 39.9145 225.632C39.6345 225.928 39.4465 226.32 39.3505 226.808C39.2625 227.288 39.2185 227.876 39.2185 228.572C39.2185 229.292 39.2625 229.896 39.3505 230.384C39.4465 230.872 39.6345 231.264 39.9145 231.56C40.2025 231.856 40.6185 232.004 41.1625 232.004C41.6985 232.004 42.1065 231.856 42.3865 231.56C42.6745 231.264 42.8625 230.872 42.9505 230.384C43.0465 229.896 43.0945 229.292 43.0945 228.572ZM45.6737 228.572C45.6737 227.196 45.8977 226.124 46.3457 225.356C46.7937 224.58 47.5777 224.192 48.6977 224.192C49.8097 224.192 50.5897 224.58 51.0377 225.356C51.4857 226.124 51.7097 227.196 51.7097 228.572C51.7097 229.972 51.4857 231.06 51.0377 231.836C50.5897 232.612 49.8097 233 48.6977 233C47.5777 233 46.7937 232.612 46.3457 231.836C45.8977 231.06 45.6737 229.972 45.6737 228.572ZM50.6297 228.572C50.6297 227.876 50.5817 227.288 50.4857 226.808C50.3977 226.32 50.2097 225.928 49.9217 225.632C49.6417 225.336 49.2337 225.188 48.6977 225.188C48.1537 225.188 47.7377 225.336 47.4497 225.632C47.1697 225.928 46.9817 226.32 46.8857 226.808C46.7977 227.288 46.7537 227.876 46.7537 228.572C46.7537 229.292 46.7977 229.896 46.8857 230.384C46.9817 230.872 47.1697 231.264 47.4497 231.56C47.7377 231.856 48.1537 232.004 48.6977 232.004C49.2337 232.004 49.6417 231.856 49.9217 231.56C50.2097 231.264 50.3977 230.872 50.4857 230.384C50.5817 229.896 50.6297 229.292 50.6297 228.572ZM53.2088 228.572C53.2088 227.196 53.4328 226.124 53.8808 225.356C54.3288 224.58 55.1128 224.192 56.2328 224.192C57.3448 224.192 58.1248 224.58 58.5728 225.356C59.0208 226.124 59.2448 227.196 59.2448 228.572C59.2448 229.972 59.0208 231.06 58.5728 231.836C58.1248 232.612 57.3448 233 56.2328 233C55.1128 233 54.3288 232.612 53.8808 231.836C53.4328 231.06 53.2088 229.972 53.2088 228.572ZM58.1648 228.572C58.1648 227.876 58.1168 227.288 58.0208 226.808C57.9328 226.32 57.7448 225.928 57.4568 225.632C57.1768 225.336 56.7688 225.188 56.2328 225.188C55.6888 225.188 55.2728 225.336 54.9848 225.632C54.7048 225.928 54.5168 226.32 54.4208 226.808C54.3328 227.288 54.2888 227.876 54.2888 228.572C54.2888 229.292 54.3328 229.896 54.4208 230.384C54.5168 230.872 54.7048 231.264 54.9848 231.56C55.2728 231.856 55.6888 232.004 56.2328 232.004C56.7688 232.004 57.1768 231.856 57.4568 231.56C57.7448 231.264 57.9328 230.872 58.0208 230.384C58.1168 229.896 58.1648 229.292 58.1648 228.572Z" fill="#515151"/>
<path opacity="0.8" d="M34.0068 190.32V189.324H36.2628V198H35.1588V190.32H34.0068ZM43.6705 190.272H39.4585V193.008C39.6425 192.752 39.9145 192.544 40.2745 192.384C40.6345 192.216 41.0225 192.132 41.4385 192.132C42.1025 192.132 42.6425 192.272 43.0585 192.552C43.4745 192.824 43.7705 193.18 43.9465 193.62C44.1305 194.052 44.2225 194.512 44.2225 195C44.2225 195.576 44.1145 196.092 43.8985 196.548C43.6825 197.004 43.3505 197.364 42.9025 197.628C42.4625 197.892 41.9145 198.024 41.2585 198.024C40.4185 198.024 39.7385 197.808 39.2185 197.376C38.6985 196.944 38.3825 196.368 38.2705 195.648H39.3385C39.4425 196.104 39.6625 196.46 39.9985 196.716C40.3345 196.972 40.7585 197.1 41.2705 197.1C41.9025 197.1 42.3785 196.912 42.6985 196.536C43.0185 196.152 43.1785 195.648 43.1785 195.024C43.1785 194.4 43.0185 193.92 42.6985 193.584C42.3785 193.24 41.9065 193.068 41.2825 193.068C40.8585 193.068 40.4865 193.172 40.1665 193.38C39.8545 193.58 39.6265 193.856 39.4825 194.208H38.4505V189.312H43.6705V190.272ZM45.6737 193.572C45.6737 192.196 45.8977 191.124 46.3457 190.356C46.7937 189.58 47.5777 189.192 48.6977 189.192C49.8097 189.192 50.5897 189.58 51.0377 190.356C51.4857 191.124 51.7097 192.196 51.7097 193.572C51.7097 194.972 51.4857 196.06 51.0377 196.836C50.5897 197.612 49.8097 198 48.6977 198C47.5777 198 46.7937 197.612 46.3457 196.836C45.8977 196.06 45.6737 194.972 45.6737 193.572ZM50.6297 193.572C50.6297 192.876 50.5817 192.288 50.4857 191.808C50.3977 191.32 50.2097 190.928 49.9217 190.632C49.6417 190.336 49.2337 190.188 48.6977 190.188C48.1537 190.188 47.7377 190.336 47.4497 190.632C47.1697 190.928 46.9817 191.32 46.8857 191.808C46.7977 192.288 46.7537 192.876 46.7537 193.572C46.7537 194.292 46.7977 194.896 46.8857 195.384C46.9817 195.872 47.1697 196.264 47.4497 196.56C47.7377 196.856 48.1537 197.004 48.6977 197.004C49.2337 197.004 49.6417 196.856 49.9217 196.56C50.2097 196.264 50.3977 195.872 50.4857 195.384C50.5817 194.896 50.6297 194.292 50.6297 193.572ZM53.2088 193.572C53.2088 192.196 53.4328 191.124 53.8808 190.356C54.3288 189.58 55.1128 189.192 56.2328 189.192C57.3448 189.192 58.1248 189.58 58.5728 190.356C59.0208 191.124 59.2448 192.196 59.2448 193.572C59.2448 194.972 59.0208 196.06 58.5728 196.836C58.1248 197.612 57.3448 198 56.2328 198C55.1128 198 54.3288 197.612 53.8808 196.836C53.4328 196.06 53.2088 194.972 53.2088 193.572ZM58.1648 193.572C58.1648 192.876 58.1168 192.288 58.0208 191.808C57.9328 191.32 57.7448 190.928 57.4568 190.632C57.1768 190.336 56.7688 190.188 56.2328 190.188C55.6888 190.188 55.2728 190.336 54.9848 190.632C54.7048 190.928 54.5168 191.32 54.4208 191.808C54.3328 192.288 54.2888 192.876 54.2888 193.572C54.2888 194.292 54.3328 194.896 54.4208 195.384C54.5168 195.872 54.7048 196.264 54.9848 196.56C55.2728 196.856 55.6888 197.004 56.2328 197.004C56.7688 197.004 57.1768 196.856 57.4568 196.56C57.7448 196.264 57.9328 195.872 58.0208 195.384C58.1168 194.896 58.1648 194.292 58.1648 193.572Z" fill="#515151"/>
<path opacity="0.8" d="M31.1042 162.124C32.1202 161.308 32.9162 160.64 33.4922 160.12C34.0682 159.592 34.5522 159.044 34.9442 158.476C35.3442 157.9 35.5442 157.336 35.5442 156.784C35.5442 156.264 35.4162 155.856 35.1602 155.56C34.9122 155.256 34.5082 155.104 33.9482 155.104C33.4042 155.104 32.9802 155.276 32.6762 155.62C32.3802 155.956 32.2202 156.408 32.1962 156.976H31.1402C31.1722 156.08 31.4442 155.388 31.9562 154.9C32.4682 154.412 33.1282 154.168 33.9362 154.168C34.7602 154.168 35.4122 154.396 35.8922 154.852C36.3802 155.308 36.6242 155.936 36.6242 156.736C36.6242 157.4 36.4242 158.048 36.0242 158.68C35.6322 159.304 35.1842 159.856 34.6802 160.336C34.1762 160.808 33.5322 161.36 32.7482 161.992H36.8762V162.904H31.1042V162.124ZM38.1385 158.572C38.1385 157.196 38.3625 156.124 38.8105 155.356C39.2585 154.58 40.0425 154.192 41.1625 154.192C42.2745 154.192 43.0545 154.58 43.5025 155.356C43.9505 156.124 44.1745 157.196 44.1745 158.572C44.1745 159.972 43.9505 161.06 43.5025 161.836C43.0545 162.612 42.2745 163 41.1625 163C40.0425 163 39.2585 162.612 38.8105 161.836C38.3625 161.06 38.1385 159.972 38.1385 158.572ZM43.0945 158.572C43.0945 157.876 43.0465 157.288 42.9505 156.808C42.8625 156.32 42.6745 155.928 42.3865 155.632C42.1065 155.336 41.6985 155.188 41.1625 155.188C40.6185 155.188 40.2025 155.336 39.9145 155.632C39.6345 155.928 39.4465 156.32 39.3505 156.808C39.2625 157.288 39.2185 157.876 39.2185 158.572C39.2185 159.292 39.2625 159.896 39.3505 160.384C39.4465 160.872 39.6345 161.264 39.9145 161.56C40.2025 161.856 40.6185 162.004 41.1625 162.004C41.6985 162.004 42.1065 161.856 42.3865 161.56C42.6745 161.264 42.8625 160.872 42.9505 160.384C43.0465 159.896 43.0945 159.292 43.0945 158.572ZM45.6737 158.572C45.6737 157.196 45.8977 156.124 46.3457 155.356C46.7937 154.58 47.5777 154.192 48.6977 154.192C49.8097 154.192 50.5897 154.58 51.0377 155.356C51.4857 156.124 51.7097 157.196 51.7097 158.572C51.7097 159.972 51.4857 161.06 51.0377 161.836C50.5897 162.612 49.8097 163 48.6977 163C47.5777 163 46.7937 162.612 46.3457 161.836C45.8977 161.06 45.6737 159.972 45.6737 158.572ZM50.6297 158.572C50.6297 157.876 50.5817 157.288 50.4857 156.808C50.3977 156.32 50.2097 155.928 49.9217 155.632C49.6417 155.336 49.2337 155.188 48.6977 155.188C48.1537 155.188 47.7377 155.336 47.4497 155.632C47.1697 155.928 46.9817 156.32 46.8857 156.808C46.7977 157.288 46.7537 157.876 46.7537 158.572C46.7537 159.292 46.7977 159.896 46.8857 160.384C46.9817 160.872 47.1697 161.264 47.4497 161.56C47.7377 161.856 48.1537 162.004 48.6977 162.004C49.2337 162.004 49.6417 161.856 49.9217 161.56C50.2097 161.264 50.3977 160.872 50.4857 160.384C50.5817 159.896 50.6297 159.292 50.6297 158.572ZM53.2088 158.572C53.2088 157.196 53.4328 156.124 53.8808 155.356C54.3288 154.58 55.1128 154.192 56.2328 154.192C57.3448 154.192 58.1248 154.58 58.5728 155.356C59.0208 156.124 59.2448 157.196 59.2448 158.572C59.2448 159.972 59.0208 161.06 58.5728 161.836C58.1248 162.612 57.3448 163 56.2328 163C55.1128 163 54.3288 162.612 53.8808 161.836C53.4328 161.06 53.2088 159.972 53.2088 158.572ZM58.1648 158.572C58.1648 157.876 58.1168 157.288 58.0208 156.808C57.9328 156.32 57.7448 155.928 57.4568 155.632C57.1768 155.336 56.7688 155.188 56.2328 155.188C55.6888 155.188 55.2728 155.336 54.9848 155.632C54.7048 155.928 54.5168 156.32 54.4208 156.808C54.3328 157.288 54.2888 157.876 54.2888 158.572C54.2888 159.292 54.3328 159.896 54.4208 160.384C54.5168 160.872 54.7048 161.264 54.9848 161.56C55.2728 161.856 55.6888 162.004 56.2328 162.004C56.7688 162.004 57.1768 161.856 57.4568 161.56C57.7448 161.264 57.9328 160.872 58.0208 160.384C58.1168 159.896 58.1648 159.292 58.1648 158.572Z" fill="#515151"/>
<path opacity="0.8" d="M31.1042 127.124C32.1202 126.308 32.9162 125.64 33.4922 125.12C34.0682 124.592 34.5522 124.044 34.9442 123.476C35.3442 122.9 35.5442 122.336 35.5442 121.784C35.5442 121.264 35.4162 120.856 35.1602 120.56C34.9122 120.256 34.5082 120.104 33.9482 120.104C33.4042 120.104 32.9802 120.276 32.6762 120.62C32.3802 120.956 32.2202 121.408 32.1962 121.976H31.1402C31.1722 121.08 31.4442 120.388 31.9562 119.9C32.4682 119.412 33.1282 119.168 33.9362 119.168C34.7602 119.168 35.4122 119.396 35.8922 119.852C36.3802 120.308 36.6242 120.936 36.6242 121.736C36.6242 122.4 36.4242 123.048 36.0242 123.68C35.6322 124.304 35.1842 124.856 34.6802 125.336C34.1762 125.808 33.5322 126.36 32.7482 126.992H36.8762V127.904H31.1042V127.124ZM43.6705 120.272H39.4585V123.008C39.6425 122.752 39.9145 122.544 40.2745 122.384C40.6345 122.216 41.0225 122.132 41.4385 122.132C42.1025 122.132 42.6425 122.272 43.0585 122.552C43.4745 122.824 43.7705 123.18 43.9465 123.62C44.1305 124.052 44.2225 124.512 44.2225 125C44.2225 125.576 44.1145 126.092 43.8985 126.548C43.6825 127.004 43.3505 127.364 42.9025 127.628C42.4625 127.892 41.9145 128.024 41.2585 128.024C40.4185 128.024 39.7385 127.808 39.2185 127.376C38.6985 126.944 38.3825 126.368 38.2705 125.648H39.3385C39.4425 126.104 39.6625 126.46 39.9985 126.716C40.3345 126.972 40.7585 127.1 41.2705 127.1C41.9025 127.1 42.3785 126.912 42.6985 126.536C43.0185 126.152 43.1785 125.648 43.1785 125.024C43.1785 124.4 43.0185 123.92 42.6985 123.584C42.3785 123.24 41.9065 123.068 41.2825 123.068C40.8585 123.068 40.4865 123.172 40.1665 123.38C39.8545 123.58 39.6265 123.856 39.4825 124.208H38.4505V119.312H43.6705V120.272ZM45.6737 123.572C45.6737 122.196 45.8977 121.124 46.3457 120.356C46.7937 119.58 47.5777 119.192 48.6977 119.192C49.8097 119.192 50.5897 119.58 51.0377 120.356C51.4857 121.124 51.7097 122.196 51.7097 123.572C51.7097 124.972 51.4857 126.06 51.0377 126.836C50.5897 127.612 49.8097 128 48.6977 128C47.5777 128 46.7937 127.612 46.3457 126.836C45.8977 126.06 45.6737 124.972 45.6737 123.572ZM50.6297 123.572C50.6297 122.876 50.5817 122.288 50.4857 121.808C50.3977 121.32 50.2097 120.928 49.9217 120.632C49.6417 120.336 49.2337 120.188 48.6977 120.188C48.1537 120.188 47.7377 120.336 47.4497 120.632C47.1697 120.928 46.9817 121.32 46.8857 121.808C46.7977 122.288 46.7537 122.876 46.7537 123.572C46.7537 124.292 46.7977 124.896 46.8857 125.384C46.9817 125.872 47.1697 126.264 47.4497 126.56C47.7377 126.856 48.1537 127.004 48.6977 127.004C49.2337 127.004 49.6417 126.856 49.9217 126.56C50.2097 126.264 50.3977 125.872 50.4857 125.384C50.5817 124.896 50.6297 124.292 50.6297 123.572ZM53.2088 123.572C53.2088 122.196 53.4328 121.124 53.8808 120.356C54.3288 119.58 55.1128 119.192 56.2328 119.192C57.3448 119.192 58.1248 119.58 58.5728 120.356C59.0208 121.124 59.2448 122.196 59.2448 123.572C59.2448 124.972 59.0208 126.06 58.5728 126.836C58.1248 127.612 57.3448 128 56.2328 128C55.1128 128 54.3288 127.612 53.8808 126.836C53.4328 126.06 53.2088 124.972 53.2088 123.572ZM58.1648 123.572C58.1648 122.876 58.1168 122.288 58.0208 121.808C57.9328 121.32 57.7448 120.928 57.4568 120.632C57.1768 120.336 56.7688 120.188 56.2328 120.188C55.6888 120.188 55.2728 120.336 54.9848 120.632C54.7048 120.928 54.5168 121.32 54.4208 121.808C54.3328 122.288 54.2888 122.876 54.2888 123.572C54.2888 124.292 54.3328 124.896 54.4208 125.384C54.5168 125.872 54.7048 126.264 54.9848 126.56C55.2728 126.856 55.6888 127.004 56.2328 127.004C56.7688 127.004 57.1768 126.856 57.4568 126.56C57.7448 126.264 57.9328 125.872 58.0208 125.384C58.1168 124.896 58.1648 124.292 58.1648 123.572Z" fill="#515151"/>
<path opacity="0.8" d="M31.0481 86.508C31.1041 85.772 31.3881 85.196 31.9001 84.78C32.4121 84.364 33.0761 84.156 33.8921 84.156C34.4361 84.156 34.9041 84.256 35.2961 84.456C35.6961 84.648 35.9961 84.912 36.1961 85.248C36.4041 85.584 36.5081 85.964 36.5081 86.388C36.5081 86.884 36.3641 87.312 36.0761 87.672C35.7961 88.032 35.4281 88.264 34.9721 88.368V88.428C35.4921 88.556 35.9041 88.808 36.2081 89.184C36.5121 89.56 36.6641 90.052 36.6641 90.66C36.6641 91.116 36.5601 91.528 36.3521 91.896C36.1441 92.256 35.8321 92.54 35.4161 92.748C35.0001 92.956 34.5001 93.06 33.9161 93.06C33.0681 93.06 32.3721 92.84 31.8281 92.4C31.2841 91.952 30.9801 91.32 30.9161 90.504H31.9721C32.0281 90.984 32.2241 91.376 32.5601 91.68C32.8961 91.984 33.3441 92.136 33.9041 92.136C34.4641 92.136 34.8881 91.992 35.1761 91.704C35.4721 91.408 35.6201 91.028 35.6201 90.564C35.6201 89.964 35.4201 89.532 35.0201 89.268C34.6201 89.004 34.0161 88.872 33.2081 88.872H32.9321V87.96H33.2201C33.9561 87.952 34.5121 87.832 34.8881 87.6C35.2641 87.36 35.4521 86.992 35.4521 86.496C35.4521 86.072 35.3121 85.732 35.0321 85.476C34.7601 85.22 34.3681 85.092 33.8561 85.092C33.3601 85.092 32.9601 85.22 32.6561 85.476C32.3521 85.732 32.1721 86.076 32.1161 86.508H31.0481ZM38.1385 88.572C38.1385 87.196 38.3625 86.124 38.8105 85.356C39.2585 84.58 40.0425 84.192 41.1625 84.192C42.2745 84.192 43.0545 84.58 43.5025 85.356C43.9505 86.124 44.1745 87.196 44.1745 88.572C44.1745 89.972 43.9505 91.06 43.5025 91.836C43.0545 92.612 42.2745 93 41.1625 93C40.0425 93 39.2585 92.612 38.8105 91.836C38.3625 91.06 38.1385 89.972 38.1385 88.572ZM43.0945 88.572C43.0945 87.876 43.0465 87.288 42.9505 86.808C42.8625 86.32 42.6745 85.928 42.3865 85.632C42.1065 85.336 41.6985 85.188 41.1625 85.188C40.6185 85.188 40.2025 85.336 39.9145 85.632C39.6345 85.928 39.4465 86.32 39.3505 86.808C39.2625 87.288 39.2185 87.876 39.2185 88.572C39.2185 89.292 39.2625 89.896 39.3505 90.384C39.4465 90.872 39.6345 91.264 39.9145 91.56C40.2025 91.856 40.6185 92.004 41.1625 92.004C41.6985 92.004 42.1065 91.856 42.3865 91.56C42.6745 91.264 42.8625 90.872 42.9505 90.384C43.0465 89.896 43.0945 89.292 43.0945 88.572ZM45.6737 88.572C45.6737 87.196 45.8977 86.124 46.3457 85.356C46.7937 84.58 47.5777 84.192 48.6977 84.192C49.8097 84.192 50.5897 84.58 51.0377 85.356C51.4857 86.124 51.7097 87.196 51.7097 88.572C51.7097 89.972 51.4857 91.06 51.0377 91.836C50.5897 92.612 49.8097 93 48.6977 93C47.5777 93 46.7937 92.612 46.3457 91.836C45.8977 91.06 45.6737 89.972 45.6737 88.572ZM50.6297 88.572C50.6297 87.876 50.5817 87.288 50.4857 86.808C50.3977 86.32 50.2097 85.928 49.9217 85.632C49.6417 85.336 49.2337 85.188 48.6977 85.188C48.1537 85.188 47.7377 85.336 47.4497 85.632C47.1697 85.928 46.9817 86.32 46.8857 86.808C46.7977 87.288 46.7537 87.876 46.7537 88.572C46.7537 89.292 46.7977 89.896 46.8857 90.384C46.9817 90.872 47.1697 91.264 47.4497 91.56C47.7377 91.856 48.1537 92.004 48.6977 92.004C49.2337 92.004 49.6417 91.856 49.9217 91.56C50.2097 91.264 50.3977 90.872 50.4857 90.384C50.5817 89.896 50.6297 89.292 50.6297 88.572ZM53.2088 88.572C53.2088 87.196 53.4328 86.124 53.8808 85.356C54.3288 84.58 55.1128 84.192 56.2328 84.192C57.3448 84.192 58.1248 84.58 58.5728 85.356C59.0208 86.124 59.2448 87.196 59.2448 88.572C59.2448 89.972 59.0208 91.06 58.5728 91.836C58.1248 92.612 57.3448 93 56.2328 93C55.1128 93 54.3288 92.612 53.8808 91.836C53.4328 91.06 53.2088 89.972 53.2088 88.572ZM58.1648 88.572C58.1648 87.876 58.1168 87.288 58.0208 86.808C57.9328 86.32 57.7448 85.928 57.4568 85.632C57.1768 85.336 56.7688 85.188 56.2328 85.188C55.6888 85.188 55.2728 85.336 54.9848 85.632C54.7048 85.928 54.5168 86.32 54.4208 86.808C54.3328 87.288 54.2888 87.876 54.2888 88.572C54.2888 89.292 54.3328 89.896 54.4208 90.384C54.5168 90.872 54.7048 91.264 54.9848 91.56C55.2728 91.856 55.6888 92.004 56.2328 92.004C56.7688 92.004 57.1768 91.856 57.4568 91.56C57.7448 91.264 57.9328 90.872 58.0208 90.384C58.1168 89.896 58.1648 89.292 58.1648 88.572Z" fill="#515151"/>
<path d="M110 196C110 193.239 112.239 191 115 191C117.761 191 120 193.239 120 196V268H110V196Z" fill="#49CB84"/>
<path d="M124 138C124 135.239 126.239 133 129 133C131.761 133 134 135.239 134 138V268H124V138Z" fill="#8E6BF1"/>
<path d="M139 155C139 152.239 141.239 150 144 150C146.761 150 149 152.239 149 155V268H139V155Z" fill="#FCA804"/>
<path d="M278 133C278 130.239 280.239 128 283 128C285.761 128 288 130.239 288 133V268H278V133Z" fill="#49CB84"/>
<path d="M293 112C293 109.239 295.239 107 298 107C300.761 107 303 109.239 303 112V268H293V112Z" fill="#8E6BF1"/>
<path d="M308 173C308 170.239 310.239 168 313 168C315.761 168 318 170.239 318 173V268H308V173Z" fill="#FCA804"/>
<path d="M445 103C445 100.239 447.239 98 450 98C452.761 98 455 100.239 455 103V268H445V103Z" fill="#49CB84"/>
<path d="M460 142C460 139.239 462.239 137 465 137C467.761 137 470 139.239 470 142V268H460V142Z" fill="#8E6BF1"/>
<path d="M475 178C475 175.239 477.239 173 480 173C482.761 173 485 175.239 485 178V268H475V178Z" fill="#FCA804"/>
<path d="M92.2673 286.333V287.147H88.9343V289.732H91.6403V290.546H88.9343V294H87.9333V286.333H92.2673ZM93.7732 286.993C93.5826 286.993 93.4212 286.927 93.2892 286.795C93.1572 286.663 93.0912 286.502 93.0912 286.311C93.0912 286.12 93.1572 285.959 93.2892 285.827C93.4212 285.695 93.5826 285.629 93.7732 285.629C93.9566 285.629 94.1106 285.695 94.2352 285.827C94.3672 285.959 94.4332 286.12 94.4332 286.311C94.4332 286.502 94.3672 286.663 94.2352 286.795C94.1106 286.927 93.9566 286.993 93.7732 286.993ZM94.2572 287.972V294H93.2562V287.972H94.2572ZM96.7443 288.951C96.9203 288.606 97.1696 288.339 97.4923 288.148C97.8223 287.957 98.2219 287.862 98.6913 287.862V288.896H98.4273C97.3053 288.896 96.7443 289.505 96.7443 290.722V294H95.7433V287.972H96.7443V288.951ZM106.876 287.862C107.345 287.862 107.763 287.961 108.13 288.159C108.496 288.35 108.786 288.639 108.999 289.028C109.211 289.417 109.318 289.89 109.318 290.447V294H108.328V290.59C108.328 289.989 108.177 289.53 107.877 289.215C107.583 288.892 107.184 288.731 106.678 288.731C106.157 288.731 105.743 288.9 105.435 289.237C105.127 289.567 104.973 290.047 104.973 290.678V294H103.983V290.59C103.983 289.989 103.832 289.53 103.532 289.215C103.238 288.892 102.839 288.731 102.333 288.731C101.812 288.731 101.398 288.9 101.09 289.237C100.782 289.567 100.628 290.047 100.628 290.678V294H99.6268V287.972H100.628V288.841C100.826 288.526 101.09 288.284 101.42 288.115C101.757 287.946 102.127 287.862 102.531 287.862C103.037 287.862 103.484 287.976 103.873 288.203C104.261 288.43 104.551 288.764 104.742 289.204C104.91 288.779 105.189 288.449 105.578 288.214C105.966 287.979 106.399 287.862 106.876 287.862ZM116.24 290.755C116.24 290.946 116.229 291.147 116.207 291.36H111.389C111.425 291.954 111.627 292.42 111.994 292.757C112.368 293.087 112.819 293.252 113.347 293.252C113.779 293.252 114.139 293.153 114.425 292.955C114.718 292.75 114.923 292.478 115.041 292.141H116.119C115.957 292.72 115.635 293.193 115.151 293.56C114.667 293.919 114.065 294.099 113.347 294.099C112.775 294.099 112.261 293.971 111.807 293.714C111.359 293.457 111.007 293.094 110.751 292.625C110.494 292.148 110.366 291.598 110.366 290.975C110.366 290.352 110.49 289.805 110.74 289.336C110.989 288.867 111.337 288.507 111.785 288.258C112.239 288.001 112.76 287.873 113.347 287.873C113.919 287.873 114.425 287.998 114.865 288.247C115.305 288.496 115.642 288.841 115.877 289.281C116.119 289.714 116.24 290.205 116.24 290.755ZM115.206 290.546C115.206 290.165 115.121 289.838 114.953 289.567C114.784 289.288 114.553 289.079 114.26 288.94C113.974 288.793 113.655 288.72 113.303 288.72C112.797 288.72 112.364 288.881 112.005 289.204C111.653 289.527 111.451 289.974 111.4 290.546H115.206ZM120.278 287.862C121.011 287.862 121.605 288.086 122.06 288.533C122.515 288.973 122.742 289.611 122.742 290.447V294H121.752V290.59C121.752 289.989 121.602 289.53 121.301 289.215C121 288.892 120.59 288.731 120.069 288.731C119.541 288.731 119.119 288.896 118.804 289.226C118.496 289.556 118.342 290.036 118.342 290.667V294H117.341V287.972H118.342V288.83C118.54 288.522 118.808 288.284 119.145 288.115C119.49 287.946 119.867 287.862 120.278 287.862ZM123.783 290.964C123.783 290.348 123.908 289.809 124.157 289.347C124.407 288.878 124.748 288.515 125.18 288.258C125.62 288.001 126.108 287.873 126.643 287.873C127.171 287.873 127.63 287.987 128.018 288.214C128.407 288.441 128.697 288.727 128.887 289.072V287.972H129.899V294H128.887V292.878C128.689 293.23 128.392 293.523 127.996 293.758C127.608 293.985 127.153 294.099 126.632 294.099C126.097 294.099 125.613 293.967 125.18 293.703C124.748 293.439 124.407 293.069 124.157 292.592C123.908 292.115 123.783 291.573 123.783 290.964ZM128.887 290.975C128.887 290.52 128.796 290.124 128.612 289.787C128.429 289.45 128.18 289.193 127.864 289.017C127.556 288.834 127.215 288.742 126.841 288.742C126.467 288.742 126.126 288.83 125.818 289.006C125.51 289.182 125.265 289.439 125.081 289.776C124.898 290.113 124.806 290.509 124.806 290.964C124.806 291.426 124.898 291.829 125.081 292.174C125.265 292.511 125.51 292.772 125.818 292.955C126.126 293.131 126.467 293.219 126.841 293.219C127.215 293.219 127.556 293.131 127.864 292.955C128.18 292.772 128.429 292.511 128.612 292.174C128.796 291.829 128.887 291.43 128.887 290.975ZM130.997 290.964C130.997 290.348 131.121 289.809 131.371 289.347C131.62 288.878 131.961 288.515 132.394 288.258C132.834 288.001 133.325 287.873 133.868 287.873C134.337 287.873 134.773 287.983 135.177 288.203C135.58 288.416 135.888 288.698 136.101 289.05V285.86H137.113V294H136.101V292.867C135.903 293.226 135.609 293.523 135.221 293.758C134.832 293.985 134.377 294.099 133.857 294.099C133.321 294.099 132.834 293.967 132.394 293.703C131.961 293.439 131.62 293.069 131.371 292.592C131.121 292.115 130.997 291.573 130.997 290.964ZM136.101 290.975C136.101 290.52 136.009 290.124 135.826 289.787C135.642 289.45 135.393 289.193 135.078 289.017C134.77 288.834 134.429 288.742 134.055 288.742C133.681 288.742 133.34 288.83 133.032 289.006C132.724 289.182 132.478 289.439 132.295 289.776C132.111 290.113 132.02 290.509 132.02 290.964C132.02 291.426 132.111 291.829 132.295 292.174C132.478 292.511 132.724 292.772 133.032 292.955C133.34 293.131 133.681 293.219 134.055 293.219C134.429 293.219 134.77 293.131 135.078 292.955C135.393 292.772 135.642 292.511 135.826 292.174C136.009 291.829 136.101 291.43 136.101 290.975ZM139.585 288.951C139.761 288.606 140.011 288.339 140.333 288.148C140.663 287.957 141.063 287.862 141.532 287.862V288.896H141.268C140.146 288.896 139.585 289.505 139.585 290.722V294H138.584V287.972H139.585V288.951ZM147.968 290.755C147.968 290.946 147.957 291.147 147.935 291.36H143.117C143.154 291.954 143.355 292.42 143.722 292.757C144.096 293.087 144.547 293.252 145.075 293.252C145.508 293.252 145.867 293.153 146.153 292.955C146.446 292.75 146.652 292.478 146.769 292.141H147.847C147.686 292.72 147.363 293.193 146.879 293.56C146.395 293.919 145.794 294.099 145.075 294.099C144.503 294.099 143.99 293.971 143.535 293.714C143.088 293.457 142.736 293.094 142.479 292.625C142.222 292.148 142.094 291.598 142.094 290.975C142.094 290.352 142.219 289.805 142.468 289.336C142.717 288.867 143.066 288.507 143.513 288.258C143.968 288.001 144.488 287.873 145.075 287.873C145.647 287.873 146.153 287.998 146.593 288.247C147.033 288.496 147.37 288.841 147.605 289.281C147.847 289.714 147.968 290.205 147.968 290.755ZM146.934 290.546C146.934 290.165 146.85 289.838 146.681 289.567C146.512 289.288 146.281 289.079 145.988 288.94C145.702 288.793 145.383 288.72 145.031 288.72C144.525 288.72 144.092 288.881 143.733 289.204C143.381 289.527 143.179 289.974 143.128 290.546H146.934ZM151.203 294.099C150.741 294.099 150.327 294.022 149.96 293.868C149.594 293.707 149.304 293.487 149.091 293.208C148.879 292.922 148.761 292.596 148.739 292.229H149.773C149.803 292.53 149.942 292.775 150.191 292.966C150.448 293.157 150.782 293.252 151.192 293.252C151.574 293.252 151.874 293.168 152.094 292.999C152.314 292.83 152.424 292.618 152.424 292.361C152.424 292.097 152.307 291.903 152.072 291.778C151.838 291.646 151.475 291.518 150.983 291.393C150.536 291.276 150.169 291.158 149.883 291.041C149.605 290.916 149.363 290.737 149.157 290.502C148.959 290.26 148.86 289.945 148.86 289.556C148.86 289.248 148.952 288.966 149.135 288.709C149.319 288.452 149.579 288.251 149.916 288.104C150.254 287.95 150.639 287.873 151.071 287.873C151.739 287.873 152.278 288.042 152.688 288.379C153.099 288.716 153.319 289.178 153.348 289.765H152.347C152.325 289.45 152.197 289.197 151.962 289.006C151.735 288.815 151.427 288.72 151.038 288.72C150.679 288.72 150.393 288.797 150.18 288.951C149.968 289.105 149.861 289.307 149.861 289.556C149.861 289.754 149.924 289.919 150.048 290.051C150.18 290.176 150.342 290.278 150.532 290.359C150.73 290.432 151.002 290.517 151.346 290.612C151.779 290.729 152.131 290.847 152.402 290.964C152.674 291.074 152.905 291.243 153.095 291.47C153.293 291.697 153.396 291.994 153.403 292.361C153.403 292.691 153.312 292.988 153.128 293.252C152.945 293.516 152.685 293.725 152.347 293.879C152.017 294.026 151.636 294.099 151.203 294.099ZM156.73 294.099C156.268 294.099 155.854 294.022 155.487 293.868C155.121 293.707 154.831 293.487 154.618 293.208C154.406 292.922 154.288 292.596 154.266 292.229H155.3C155.33 292.53 155.469 292.775 155.718 292.966C155.975 293.157 156.309 293.252 156.719 293.252C157.101 293.252 157.401 293.168 157.621 292.999C157.841 292.83 157.951 292.618 157.951 292.361C157.951 292.097 157.834 291.903 157.599 291.778C157.365 291.646 157.002 291.518 156.51 291.393C156.063 291.276 155.696 291.158 155.41 291.041C155.132 290.916 154.89 290.737 154.684 290.502C154.486 290.26 154.387 289.945 154.387 289.556C154.387 289.248 154.479 288.966 154.662 288.709C154.846 288.452 155.106 288.251 155.443 288.104C155.781 287.95 156.166 287.873 156.598 287.873C157.266 287.873 157.805 288.042 158.215 288.379C158.626 288.716 158.846 289.178 158.875 289.765H157.874C157.852 289.45 157.724 289.197 157.489 289.006C157.262 288.815 156.954 288.72 156.565 288.72C156.206 288.72 155.92 288.797 155.707 288.951C155.495 289.105 155.388 289.307 155.388 289.556C155.388 289.754 155.451 289.919 155.575 290.051C155.707 290.176 155.869 290.278 156.059 290.359C156.257 290.432 156.529 290.517 156.873 290.612C157.306 290.729 157.658 290.847 157.929 290.964C158.201 291.074 158.432 291.243 158.622 291.47C158.82 291.697 158.923 291.994 158.93 292.361C158.93 292.691 158.839 292.988 158.655 293.252C158.472 293.516 158.212 293.725 157.874 293.879C157.544 294.026 157.163 294.099 156.73 294.099ZM165.623 290.755C165.623 290.946 165.612 291.147 165.59 291.36H160.772C160.809 291.954 161.011 292.42 161.377 292.757C161.751 293.087 162.202 293.252 162.73 293.252C163.163 293.252 163.522 293.153 163.808 292.955C164.102 292.75 164.307 292.478 164.424 292.141H165.502C165.341 292.72 165.018 293.193 164.534 293.56C164.05 293.919 163.449 294.099 162.73 294.099C162.158 294.099 161.645 293.971 161.19 293.714C160.743 293.457 160.391 293.094 160.134 292.625C159.878 292.148 159.749 291.598 159.749 290.975C159.749 290.352 159.874 289.805 160.123 289.336C160.373 288.867 160.721 288.507 161.168 288.258C161.623 288.001 162.144 287.873 162.73 287.873C163.302 287.873 163.808 287.998 164.248 288.247C164.688 288.496 165.026 288.841 165.26 289.281C165.502 289.714 165.623 290.205 165.623 290.755ZM164.589 290.546C164.589 290.165 164.505 289.838 164.336 289.567C164.168 289.288 163.937 289.079 163.643 288.94C163.357 288.793 163.038 288.72 162.686 288.72C162.18 288.72 161.748 288.881 161.388 289.204C161.036 289.527 160.835 289.974 160.783 290.546H164.589ZM169.662 287.862C170.395 287.862 170.989 288.086 171.444 288.533C171.898 288.973 172.126 289.611 172.126 290.447V294H171.136V290.59C171.136 289.989 170.985 289.53 170.685 289.215C170.384 288.892 169.973 288.731 169.453 288.731C168.925 288.731 168.503 288.896 168.188 289.226C167.88 289.556 167.726 290.036 167.726 290.667V294H166.725V287.972H167.726V288.83C167.924 288.522 168.191 288.284 168.529 288.115C168.873 287.946 169.251 287.862 169.662 287.862Z" fill="#515151"/>
<path d="M261.058 286.333V287.147H258.968V294H257.967V287.147H255.866V286.333H261.058ZM267.57 290.755C267.57 290.946 267.559 291.147 267.537 291.36H262.719C262.756 291.954 262.957 292.42 263.324 292.757C263.698 293.087 264.149 293.252 264.677 293.252C265.11 293.252 265.469 293.153 265.755 292.955C266.048 292.75 266.254 292.478 266.371 292.141H267.449C267.288 292.72 266.965 293.193 266.481 293.56C265.997 293.919 265.396 294.099 264.677 294.099C264.105 294.099 263.592 293.971 263.137 293.714C262.69 293.457 262.338 293.094 262.081 292.625C261.824 292.148 261.696 291.598 261.696 290.975C261.696 290.352 261.821 289.805 262.07 289.336C262.319 288.867 262.668 288.507 263.115 288.258C263.57 288.001 264.09 287.873 264.677 287.873C265.249 287.873 265.755 287.998 266.195 288.247C266.635 288.496 266.972 288.841 267.207 289.281C267.449 289.714 267.57 290.205 267.57 290.755ZM266.536 290.546C266.536 290.165 266.452 289.838 266.283 289.567C266.114 289.288 265.883 289.079 265.59 288.94C265.304 288.793 264.985 288.72 264.633 288.72C264.127 288.72 263.694 288.881 263.335 289.204C262.983 289.527 262.781 289.974 262.73 290.546H266.536ZM269.672 285.86V294H268.671V285.86H269.672ZM276.658 290.755C276.658 290.946 276.647 291.147 276.625 291.36H271.807C271.844 291.954 272.046 292.42 272.412 292.757C272.786 293.087 273.237 293.252 273.765 293.252C274.198 293.252 274.557 293.153 274.843 292.955C275.137 292.75 275.342 292.478 275.459 292.141H276.537C276.376 292.72 276.053 293.193 275.569 293.56C275.085 293.919 274.484 294.099 273.765 294.099C273.193 294.099 272.68 293.971 272.225 293.714C271.778 293.457 271.426 293.094 271.169 292.625C270.913 292.148 270.784 291.598 270.784 290.975C270.784 290.352 270.909 289.805 271.158 289.336C271.408 288.867 271.756 288.507 272.203 288.258C272.658 288.001 273.179 287.873 273.765 287.873C274.337 287.873 274.843 287.998 275.283 288.247C275.723 288.496 276.061 288.841 276.295 289.281C276.537 289.714 276.658 290.205 276.658 290.755ZM275.624 290.546C275.624 290.165 275.54 289.838 275.371 289.567C275.203 289.288 274.972 289.079 274.678 288.94C274.392 288.793 274.073 288.72 273.721 288.72C273.215 288.72 272.783 288.881 272.423 289.204C272.071 289.527 271.87 289.974 271.818 290.546H275.624ZM280.213 288.797H278.948V294H277.947V288.797H277.166V287.972H277.947V287.543C277.947 286.868 278.119 286.377 278.464 286.069C278.816 285.754 279.377 285.596 280.147 285.596V286.432C279.707 286.432 279.395 286.52 279.212 286.696C279.036 286.865 278.948 287.147 278.948 287.543V287.972H280.213V288.797ZM283.789 294.099C283.224 294.099 282.711 293.971 282.249 293.714C281.794 293.457 281.435 293.094 281.171 292.625C280.914 292.148 280.786 291.598 280.786 290.975C280.786 290.359 280.918 289.816 281.182 289.347C281.453 288.87 281.82 288.507 282.282 288.258C282.744 288.001 283.261 287.873 283.833 287.873C284.405 287.873 284.922 288.001 285.384 288.258C285.846 288.507 286.209 288.867 286.473 289.336C286.744 289.805 286.88 290.352 286.88 290.975C286.88 291.598 286.74 292.148 286.462 292.625C286.19 293.094 285.82 293.457 285.351 293.714C284.881 293.971 284.361 294.099 283.789 294.099ZM283.789 293.219C284.148 293.219 284.485 293.135 284.801 292.966C285.116 292.797 285.369 292.544 285.56 292.207C285.758 291.87 285.857 291.459 285.857 290.975C285.857 290.491 285.761 290.08 285.571 289.743C285.38 289.406 285.131 289.156 284.823 288.995C284.515 288.826 284.181 288.742 283.822 288.742C283.455 288.742 283.118 288.826 282.81 288.995C282.509 289.156 282.267 289.406 282.084 289.743C281.9 290.08 281.809 290.491 281.809 290.975C281.809 291.466 281.897 291.881 282.073 292.218C282.256 292.555 282.498 292.808 282.799 292.977C283.099 293.138 283.429 293.219 283.789 293.219ZM290.913 287.862C291.646 287.862 292.24 288.086 292.695 288.533C293.15 288.973 293.377 289.611 293.377 290.447V294H292.387V290.59C292.387 289.989 292.237 289.53 291.936 289.215C291.635 288.892 291.225 288.731 290.704 288.731C290.176 288.731 289.754 288.896 289.439 289.226C289.131 289.556 288.977 290.036 288.977 290.667V294H287.976V287.972H288.977V288.83C289.175 288.522 289.443 288.284 289.78 288.115C290.125 287.946 290.502 287.862 290.913 287.862ZM297.729 287.862C298.462 287.862 299.056 288.086 299.511 288.533C299.966 288.973 300.193 289.611 300.193 290.447V294H299.203V290.59C299.203 289.989 299.053 289.53 298.752 289.215C298.451 288.892 298.041 288.731 297.52 288.731C296.992 288.731 296.57 288.896 296.255 289.226C295.947 289.556 295.793 290.036 295.793 290.667V294H294.792V287.972H295.793V288.83C295.991 288.522 296.259 288.284 296.596 288.115C296.941 287.946 297.318 287.862 297.729 287.862ZM306.954 287.972V294H305.953V293.109C305.763 293.417 305.495 293.659 305.15 293.835C304.813 294.004 304.439 294.088 304.028 294.088C303.559 294.088 303.137 293.993 302.763 293.802C302.389 293.604 302.092 293.311 301.872 292.922C301.66 292.533 301.553 292.06 301.553 291.503V287.972H302.543V291.371C302.543 291.965 302.694 292.423 302.994 292.746C303.295 293.061 303.706 293.219 304.226 293.219C304.762 293.219 305.183 293.054 305.491 292.724C305.799 292.394 305.953 291.914 305.953 291.283V287.972H306.954ZM315.673 287.862C316.143 287.862 316.561 287.961 316.927 288.159C317.294 288.35 317.584 288.639 317.796 289.028C318.009 289.417 318.115 289.89 318.115 290.447V294H317.125V290.59C317.125 289.989 316.975 289.53 316.674 289.215C316.381 288.892 315.981 288.731 315.475 288.731C314.955 288.731 314.54 288.9 314.232 289.237C313.924 289.567 313.77 290.047 313.77 290.678V294H312.78V290.59C312.78 289.989 312.63 289.53 312.329 289.215C312.036 288.892 311.636 288.731 311.13 288.731C310.61 288.731 310.195 288.9 309.887 289.237C309.579 289.567 309.425 290.047 309.425 290.678V294H308.424V287.972H309.425V288.841C309.623 288.526 309.887 288.284 310.217 288.115C310.555 287.946 310.925 287.862 311.328 287.862C311.834 287.862 312.282 287.976 312.67 288.203C313.059 288.43 313.349 288.764 313.539 289.204C313.708 288.779 313.987 288.449 314.375 288.214C314.764 287.979 315.197 287.862 315.673 287.862ZM326.786 287.862C327.256 287.862 327.674 287.961 328.04 288.159C328.407 288.35 328.697 288.639 328.909 289.028C329.122 289.417 329.228 289.89 329.228 290.447V294H328.238V290.59C328.238 289.989 328.088 289.53 327.787 289.215C327.494 288.892 327.094 288.731 326.588 288.731C326.068 288.731 325.653 288.9 325.345 289.237C325.037 289.567 324.883 290.047 324.883 290.678V294H323.893V290.59C323.893 289.989 323.743 289.53 323.442 289.215C323.149 288.892 322.749 288.731 322.243 288.731C321.723 288.731 321.308 288.9 321 289.237C320.692 289.567 320.538 290.047 320.538 290.678V294H319.537V287.972H320.538V288.841C320.736 288.526 321 288.284 321.33 288.115C321.668 287.946 322.038 287.862 322.441 287.862C322.947 287.862 323.395 287.976 323.783 288.203C324.172 288.43 324.462 288.764 324.652 289.204C324.821 288.779 325.1 288.449 325.488 288.214C325.877 287.979 326.31 287.862 326.786 287.862ZM336.15 290.755C336.15 290.946 336.139 291.147 336.117 291.36H331.299C331.336 291.954 331.538 292.42 331.904 292.757C332.278 293.087 332.729 293.252 333.257 293.252C333.69 293.252 334.049 293.153 334.335 292.955C334.629 292.75 334.834 292.478 334.951 292.141H336.029C335.868 292.72 335.545 293.193 335.061 293.56C334.577 293.919 333.976 294.099 333.257 294.099C332.685 294.099 332.172 293.971 331.717 293.714C331.27 293.457 330.918 293.094 330.661 292.625C330.405 292.148 330.276 291.598 330.276 290.975C330.276 290.352 330.401 289.805 330.65 289.336C330.9 288.867 331.248 288.507 331.695 288.258C332.15 288.001 332.671 287.873 333.257 287.873C333.829 287.873 334.335 287.998 334.775 288.247C335.215 288.496 335.553 288.841 335.787 289.281C336.029 289.714 336.15 290.205 336.15 290.755ZM335.116 290.546C335.116 290.165 335.032 289.838 334.863 289.567C334.695 289.288 334.464 289.079 334.17 288.94C333.884 288.793 333.565 288.72 333.213 288.72C332.707 288.72 332.275 288.881 331.915 289.204C331.563 289.527 331.362 289.974 331.31 290.546H335.116ZM338.253 288.951C338.429 288.606 338.678 288.339 339.001 288.148C339.331 287.957 339.73 287.862 340.2 287.862V288.896H339.936C338.814 288.896 338.253 289.505 338.253 290.722V294H337.252V287.972H338.253V288.951Z" fill="#515151"/>
<path d="M450.888 287.147V289.71H453.682V290.535H450.888V293.175H454.012V294H449.887V286.322H454.012V287.147H450.888ZM459.486 289.545V290.392H455.097V289.545H459.486ZM468.922 286.388V294H467.921V288.324L465.391 294H464.687L462.146 288.313V294H461.145V286.388H462.223L465.039 292.68L467.855 286.388H468.922ZM470.026 290.964C470.026 290.348 470.15 289.809 470.4 289.347C470.649 288.878 470.99 288.515 471.423 288.258C471.863 288.001 472.35 287.873 472.886 287.873C473.414 287.873 473.872 287.987 474.261 288.214C474.649 288.441 474.939 288.727 475.13 289.072V287.972H476.142V294H475.13V292.878C474.932 293.23 474.635 293.523 474.239 293.758C473.85 293.985 473.395 294.099 472.875 294.099C472.339 294.099 471.855 293.967 471.423 293.703C470.99 293.439 470.649 293.069 470.4 292.592C470.15 292.115 470.026 291.573 470.026 290.964ZM475.13 290.975C475.13 290.52 475.038 290.124 474.855 289.787C474.671 289.45 474.422 289.193 474.107 289.017C473.799 288.834 473.458 288.742 473.084 288.742C472.71 288.742 472.369 288.83 472.061 289.006C471.753 289.182 471.507 289.439 471.324 289.776C471.14 290.113 471.049 290.509 471.049 290.964C471.049 291.426 471.14 291.829 471.324 292.174C471.507 292.511 471.753 292.772 472.061 292.955C472.369 293.131 472.71 293.219 473.084 293.219C473.458 293.219 473.799 293.131 474.107 292.955C474.422 292.772 474.671 292.511 474.855 292.174C475.038 291.829 475.13 291.43 475.13 290.975ZM478.13 286.993C477.94 286.993 477.778 286.927 477.646 286.795C477.514 286.663 477.448 286.502 477.448 286.311C477.448 286.12 477.514 285.959 477.646 285.827C477.778 285.695 477.94 285.629 478.13 285.629C478.314 285.629 478.468 285.695 478.592 285.827C478.724 285.959 478.79 286.12 478.79 286.311C478.79 286.502 478.724 286.663 478.592 286.795C478.468 286.927 478.314 286.993 478.13 286.993ZM478.614 287.972V294H477.613V287.972H478.614ZM481.101 285.86V294H480.1V285.86H481.101Z" fill="#515151"/>
<path d="M32.898 19.228V25.276C32.898 25.9387 33.0707 26.4473 33.416 26.802C33.7613 27.1473 34.2467 27.32 34.872 27.32C35.5067 27.32 35.9967 27.1473 36.342 26.802C36.6873 26.4473 36.86 25.9387 36.86 25.276V19.228H38.834V25.262C38.834 26.0927 38.652 26.7973 38.288 27.376C37.9333 27.9453 37.4527 28.3747 36.846 28.664C36.2487 28.9533 35.5813 29.098 34.844 29.098C34.116 29.098 33.4533 28.9533 32.856 28.664C32.268 28.3747 31.8013 27.9453 31.456 27.376C31.1107 26.7973 30.938 26.0927 30.938 25.262V19.228H32.898ZM45.0257 21.132C45.9497 21.132 46.6964 21.426 47.2657 22.014C47.8351 22.5927 48.1197 23.4047 48.1197 24.45V29H46.1597V24.716C46.1597 24.1 46.0057 23.6287 45.6977 23.302C45.3897 22.966 44.9697 22.798 44.4377 22.798C43.8964 22.798 43.4671 22.966 43.1497 23.302C42.8417 23.6287 42.6877 24.1 42.6877 24.716V29H40.7277V21.244H42.6877V22.21C42.9491 21.874 43.2804 21.6127 43.6817 21.426C44.0924 21.23 44.5404 21.132 45.0257 21.132ZM52.2656 22.854V26.606C52.2656 26.8673 52.3262 27.0587 52.4476 27.18C52.5782 27.292 52.7929 27.348 53.0916 27.348H54.0016V29H52.7696C51.1176 29 50.2916 28.1973 50.2916 26.592V22.854H49.3676V21.244H50.2916V19.326H52.2656V21.244H54.0016V22.854H52.2656ZM62.6213 24.954C62.6213 25.234 62.6026 25.486 62.5653 25.71H56.8953C56.942 26.27 57.138 26.7087 57.4833 27.026C57.8286 27.3433 58.2533 27.502 58.7573 27.502C59.4853 27.502 60.0033 27.1893 60.3113 26.564H62.4253C62.2013 27.3107 61.772 27.9267 61.1373 28.412C60.5026 28.888 59.7233 29.126 58.7993 29.126C58.0526 29.126 57.3806 28.9627 56.7833 28.636C56.1953 28.3 55.7333 27.8287 55.3973 27.222C55.0706 26.6153 54.9073 25.9153 54.9073 25.122C54.9073 24.3193 55.0706 23.6147 55.3973 23.008C55.724 22.4013 56.1813 21.9347 56.7693 21.608C57.3573 21.2813 58.034 21.118 58.7993 21.118C59.5366 21.118 60.1946 21.2767 60.7733 21.594C61.3613 21.9113 61.814 22.364 62.1313 22.952C62.458 23.5307 62.6213 24.198 62.6213 24.954ZM60.5913 24.394C60.582 23.89 60.4 23.4887 60.0453 23.19C59.6906 22.882 59.2566 22.728 58.7433 22.728C58.258 22.728 57.8473 22.8773 57.5113 23.176C57.1846 23.4653 56.984 23.8713 56.9093 24.394H60.5913ZM66.0119 22.448C66.2639 22.0373 66.5906 21.7153 66.9919 21.482C67.4026 21.2487 67.8693 21.132 68.3919 21.132V23.19H67.8739C67.2579 23.19 66.7913 23.3347 66.4739 23.624C66.1659 23.9133 66.0119 24.4173 66.0119 25.136V29H64.0519V21.244H66.0119V22.448ZM74.0101 21.132C74.9341 21.132 75.6808 21.426 76.2501 22.014C76.8194 22.5927 77.1041 23.4047 77.1041 24.45V29H75.1441V24.716C75.1441 24.1 74.9901 23.6287 74.6821 23.302C74.3741 22.966 73.9541 22.798 73.4221 22.798C72.8808 22.798 72.4514 22.966 72.1341 23.302C71.8261 23.6287 71.6721 24.1 71.6721 24.716V29H69.7121V21.244H71.6721V22.21C71.9334 21.874 72.2648 21.6127 72.6661 21.426C73.0768 21.23 73.5248 21.132 74.0101 21.132ZM86.178 24.954C86.178 25.234 86.1593 25.486 86.122 25.71H80.452C80.4986 26.27 80.6946 26.7087 81.04 27.026C81.3853 27.3433 81.81 27.502 82.314 27.502C83.042 27.502 83.56 27.1893 83.868 26.564H85.982C85.758 27.3107 85.3286 27.9267 84.694 28.412C84.0593 28.888 83.28 29.126 82.356 29.126C81.6093 29.126 80.9373 28.9627 80.34 28.636C79.752 28.3 79.29 27.8287 78.954 27.222C78.6273 26.6153 78.464 25.9153 78.464 25.122C78.464 24.3193 78.6273 23.6147 78.954 23.008C79.2806 22.4013 79.738 21.9347 80.326 21.608C80.914 21.2813 81.5906 21.118 82.356 21.118C83.0933 21.118 83.7513 21.2767 84.33 21.594C84.918 21.9113 85.3706 22.364 85.688 22.952C86.0146 23.5307 86.178 24.198 86.178 24.954ZM84.148 24.394C84.1386 23.89 83.9566 23.4887 83.602 23.19C83.2473 22.882 82.8133 22.728 82.3 22.728C81.8146 22.728 81.404 22.8773 81.068 23.176C80.7413 23.4653 80.5406 23.8713 80.466 24.394H84.148ZM91.9766 21.132C92.5646 21.132 93.0872 21.2627 93.5446 21.524C94.0019 21.776 94.3566 22.154 94.6086 22.658C94.8699 23.1527 95.0006 23.75 95.0006 24.45V29H93.0406V24.716C93.0406 24.1 92.8866 23.6287 92.5786 23.302C92.2706 22.966 91.8506 22.798 91.3186 22.798C90.7772 22.798 90.3479 22.966 90.0306 23.302C89.7226 23.6287 89.5686 24.1 89.5686 24.716V29H87.6086V18.64H89.5686V22.21C89.8206 21.874 90.1566 21.6127 90.5766 21.426C90.9966 21.23 91.4632 21.132 91.9766 21.132ZM106.496 21.132C107.448 21.132 108.214 21.426 108.792 22.014C109.38 22.5927 109.674 23.4047 109.674 24.45V29H107.714V24.716C107.714 24.1093 107.56 23.6473 107.252 23.33C106.944 23.0033 106.524 22.84 105.992 22.84C105.46 22.84 105.036 23.0033 104.718 23.33C104.41 23.6473 104.256 24.1093 104.256 24.716V29H102.296V24.716C102.296 24.1093 102.142 23.6473 101.834 23.33C101.526 23.0033 101.106 22.84 100.574 22.84C100.033 22.84 99.6038 23.0033 99.2864 23.33C98.9784 23.6473 98.8244 24.1093 98.8244 24.716V29H96.8644V21.244H98.8244V22.182C99.0764 21.8553 99.3984 21.5987 99.7904 21.412C100.192 21.2253 100.63 21.132 101.106 21.132C101.713 21.132 102.254 21.2627 102.73 21.524C103.206 21.776 103.575 22.14 103.836 22.616C104.088 22.168 104.452 21.8087 104.928 21.538C105.414 21.2673 105.936 21.132 106.496 21.132ZM118.744 24.954C118.744 25.234 118.726 25.486 118.688 25.71H113.018C113.065 26.27 113.261 26.7087 113.606 27.026C113.952 27.3433 114.376 27.502 114.88 27.502C115.608 27.502 116.126 27.1893 116.434 26.564H118.548C118.324 27.3107 117.895 27.9267 117.26 28.412C116.626 28.888 115.846 29.126 114.922 29.126C114.176 29.126 113.504 28.9627 112.906 28.636C112.318 28.3 111.856 27.8287 111.52 27.222C111.194 26.6153 111.03 25.9153 111.03 25.122C111.03 24.3193 111.194 23.6147 111.52 23.008C111.847 22.4013 112.304 21.9347 112.892 21.608C113.48 21.2813 114.157 21.118 114.922 21.118C115.66 21.118 116.318 21.2767 116.896 21.594C117.484 21.9113 117.937 22.364 118.254 22.952C118.581 23.5307 118.744 24.198 118.744 24.954ZM116.714 24.394C116.705 23.89 116.523 23.4887 116.168 23.19C115.814 22.882 115.38 22.728 114.866 22.728C114.381 22.728 113.97 22.8773 113.634 23.176C113.308 23.4653 113.107 23.8713 113.032 24.394H116.714ZM124.473 21.132C125.397 21.132 126.144 21.426 126.713 22.014C127.282 22.5927 127.567 23.4047 127.567 24.45V29H125.607V24.716C125.607 24.1 125.453 23.6287 125.145 23.302C124.837 22.966 124.417 22.798 123.885 22.798C123.344 22.798 122.914 22.966 122.597 23.302C122.289 23.6287 122.135 24.1 122.135 24.716V29H120.175V21.244H122.135V22.21C122.396 21.874 122.728 21.6127 123.129 21.426C123.54 21.23 123.988 21.132 124.473 21.132ZM132.399 29.126C131.764 29.126 131.195 29.014 130.691 28.79C130.187 28.5567 129.786 28.244 129.487 27.852C129.198 27.46 129.039 27.026 129.011 26.55H130.985C131.022 26.8487 131.167 27.096 131.419 27.292C131.68 27.488 132.002 27.586 132.385 27.586C132.758 27.586 133.048 27.5113 133.253 27.362C133.468 27.2127 133.575 27.0213 133.575 26.788C133.575 26.536 133.444 26.3493 133.183 26.228C132.931 26.0973 132.525 25.9573 131.965 25.808C131.386 25.668 130.91 25.5233 130.537 25.374C130.173 25.2247 129.856 24.996 129.585 24.688C129.324 24.38 129.193 23.9647 129.193 23.442C129.193 23.0127 129.314 22.6207 129.557 22.266C129.809 21.9113 130.164 21.6313 130.621 21.426C131.088 21.2207 131.634 21.118 132.259 21.118C133.183 21.118 133.92 21.3513 134.471 21.818C135.022 22.2753 135.325 22.896 135.381 23.68H133.505C133.477 23.372 133.346 23.1293 133.113 22.952C132.889 22.7653 132.586 22.672 132.203 22.672C131.848 22.672 131.573 22.7373 131.377 22.868C131.19 22.9987 131.097 23.1807 131.097 23.414C131.097 23.6753 131.228 23.876 131.489 24.016C131.75 24.1467 132.156 24.282 132.707 24.422C133.267 24.562 133.729 24.7067 134.093 24.856C134.457 25.0053 134.77 25.2387 135.031 25.556C135.302 25.864 135.442 26.2747 135.451 26.788C135.451 27.236 135.325 27.6373 135.073 27.992C134.83 28.3467 134.476 28.6267 134.009 28.832C133.552 29.028 133.015 29.126 132.399 29.126ZM140.098 21.118C140.676 21.118 141.185 21.2347 141.624 21.468C142.062 21.692 142.408 21.986 142.66 22.35V21.244H144.634V29.056C144.634 29.7747 144.489 30.414 144.2 30.974C143.91 31.5433 143.476 31.9913 142.898 32.318C142.319 32.654 141.619 32.822 140.798 32.822C139.696 32.822 138.791 32.5653 138.082 32.052C137.382 31.5387 136.985 30.8387 136.892 29.952H138.838C138.94 30.3067 139.16 30.5867 139.496 30.792C139.841 31.0067 140.256 31.114 140.742 31.114C141.311 31.114 141.773 30.9413 142.128 30.596C142.482 30.26 142.66 29.7467 142.66 29.056V27.852C142.408 28.216 142.058 28.5193 141.61 28.762C141.171 29.0047 140.667 29.126 140.098 29.126C139.444 29.126 138.847 28.958 138.306 28.622C137.764 28.286 137.335 27.8147 137.018 27.208C136.71 26.592 136.556 25.8873 136.556 25.094C136.556 24.31 136.71 23.6147 137.018 23.008C137.335 22.4013 137.76 21.9347 138.292 21.608C138.833 21.2813 139.435 21.118 140.098 21.118ZM142.66 25.122C142.66 24.646 142.566 24.24 142.38 23.904C142.193 23.5587 141.941 23.2973 141.624 23.12C141.306 22.9333 140.966 22.84 140.602 22.84C140.238 22.84 139.902 22.9287 139.594 23.106C139.286 23.2833 139.034 23.5447 138.838 23.89C138.651 24.226 138.558 24.6273 138.558 25.094C138.558 25.5607 138.651 25.9713 138.838 26.326C139.034 26.6713 139.286 26.9373 139.594 27.124C139.911 27.3107 140.247 27.404 140.602 27.404C140.966 27.404 141.306 27.3153 141.624 27.138C141.941 26.9513 142.193 26.69 142.38 26.354C142.566 26.0087 142.66 25.598 142.66 25.122ZM148.508 22.448C148.76 22.0373 149.087 21.7153 149.488 21.482C149.899 21.2487 150.365 21.132 150.888 21.132V23.19H150.37C149.754 23.19 149.287 23.3347 148.97 23.624C148.662 23.9133 148.508 24.4173 148.508 25.136V29H146.548V21.244H148.508V22.448ZM155.652 29.126C154.906 29.126 154.234 28.9627 153.636 28.636C153.039 28.3 152.568 27.8287 152.222 27.222C151.886 26.6153 151.718 25.9153 151.718 25.122C151.718 24.3287 151.891 23.6287 152.236 23.022C152.591 22.4153 153.072 21.9487 153.678 21.622C154.285 21.286 154.962 21.118 155.708 21.118C156.455 21.118 157.132 21.286 157.738 21.622C158.345 21.9487 158.821 22.4153 159.166 23.022C159.521 23.6287 159.698 24.3287 159.698 25.122C159.698 25.9153 159.516 26.6153 159.152 27.222C158.798 27.8287 158.312 28.3 157.696 28.636C157.09 28.9627 156.408 29.126 155.652 29.126ZM155.652 27.418C156.007 27.418 156.338 27.334 156.646 27.166C156.964 26.9887 157.216 26.7273 157.402 26.382C157.589 26.0367 157.682 25.6167 157.682 25.122C157.682 24.3847 157.486 23.82 157.094 23.428C156.712 23.0267 156.24 22.826 155.68 22.826C155.12 22.826 154.649 23.0267 154.266 23.428C153.893 23.82 153.706 24.3847 153.706 25.122C153.706 25.8593 153.888 26.4287 154.252 26.83C154.626 27.222 155.092 27.418 155.652 27.418ZM154.49 20.222C154.229 20.222 154.01 20.1333 153.832 19.956C153.655 19.7787 153.566 19.5593 153.566 19.298C153.566 19.0367 153.655 18.8173 153.832 18.64C154.01 18.4533 154.229 18.36 154.49 18.36C154.752 18.36 154.971 18.4533 155.148 18.64C155.335 18.8173 155.428 19.0367 155.428 19.298C155.428 19.5593 155.335 19.7787 155.148 19.956C154.971 20.1333 154.752 20.222 154.49 20.222ZM157.08 20.222C156.819 20.222 156.6 20.1333 156.422 19.956C156.245 19.7787 156.156 19.5593 156.156 19.298C156.156 19.0367 156.245 18.8173 156.422 18.64C156.6 18.4533 156.819 18.36 157.08 18.36C157.342 18.36 157.561 18.4533 157.738 18.64C157.925 18.8173 158.018 19.0367 158.018 19.298C158.018 19.5593 157.925 19.7787 157.738 19.956C157.561 20.1333 157.342 20.222 157.08 20.222ZM164.104 29.126C163.469 29.126 162.9 29.014 162.396 28.79C161.892 28.5567 161.491 28.244 161.192 27.852C160.903 27.46 160.744 27.026 160.716 26.55H162.69C162.727 26.8487 162.872 27.096 163.124 27.292C163.385 27.488 163.707 27.586 164.09 27.586C164.463 27.586 164.753 27.5113 164.958 27.362C165.173 27.2127 165.28 27.0213 165.28 26.788C165.28 26.536 165.149 26.3493 164.888 26.228C164.636 26.0973 164.23 25.9573 163.67 25.808C163.091 25.668 162.615 25.5233 162.242 25.374C161.878 25.2247 161.561 24.996 161.29 24.688C161.029 24.38 160.898 23.9647 160.898 23.442C160.898 23.0127 161.019 22.6207 161.262 22.266C161.514 21.9113 161.869 21.6313 162.326 21.426C162.793 21.2207 163.339 21.118 163.964 21.118C164.888 21.118 165.625 21.3513 166.176 21.818C166.727 22.2753 167.03 22.896 167.086 23.68H165.21C165.182 23.372 165.051 23.1293 164.818 22.952C164.594 22.7653 164.291 22.672 163.908 22.672C163.553 22.672 163.278 22.7373 163.082 22.868C162.895 22.9987 162.802 23.1807 162.802 23.414C162.802 23.6753 162.933 23.876 163.194 24.016C163.455 24.1467 163.861 24.282 164.412 24.422C164.972 24.562 165.434 24.7067 165.798 24.856C166.162 25.0053 166.475 25.2387 166.736 25.556C167.007 25.864 167.147 26.2747 167.156 26.788C167.156 27.236 167.03 27.6373 166.778 27.992C166.535 28.3467 166.181 28.6267 165.714 28.832C165.257 29.028 164.72 29.126 164.104 29.126ZM171.733 29.126C171.098 29.126 170.529 29.014 170.025 28.79C169.521 28.5567 169.119 28.244 168.821 27.852C168.531 27.46 168.373 27.026 168.345 26.55H170.319C170.356 26.8487 170.501 27.096 170.753 27.292C171.014 27.488 171.336 27.586 171.719 27.586C172.092 27.586 172.381 27.5113 172.587 27.362C172.801 27.2127 172.909 27.0213 172.909 26.788C172.909 26.536 172.778 26.3493 172.517 26.228C172.265 26.0973 171.859 25.9573 171.299 25.808C170.72 25.668 170.244 25.5233 169.871 25.374C169.507 25.2247 169.189 24.996 168.919 24.688C168.657 24.38 168.527 23.9647 168.527 23.442C168.527 23.0127 168.648 22.6207 168.891 22.266C169.143 21.9113 169.497 21.6313 169.955 21.426C170.421 21.2207 170.967 21.118 171.593 21.118C172.517 21.118 173.254 21.3513 173.805 21.818C174.355 22.2753 174.659 22.896 174.715 23.68H172.839C172.811 23.372 172.68 23.1293 172.447 22.952C172.223 22.7653 171.919 22.672 171.537 22.672C171.182 22.672 170.907 22.7373 170.711 22.868C170.524 22.9987 170.431 23.1807 170.431 23.414C170.431 23.6753 170.561 23.876 170.823 24.016C171.084 24.1467 171.49 24.282 172.041 24.422C172.601 24.562 173.063 24.7067 173.427 24.856C173.791 25.0053 174.103 25.2387 174.365 25.556C174.635 25.864 174.775 26.2747 174.785 26.788C174.785 27.236 174.659 27.6373 174.407 27.992C174.164 28.3467 173.809 28.6267 173.343 28.832C172.885 29.028 172.349 29.126 171.733 29.126ZM183.604 24.954C183.604 25.234 183.585 25.486 183.548 25.71H177.878C177.924 26.27 178.12 26.7087 178.466 27.026C178.811 27.3433 179.236 27.502 179.74 27.502C180.468 27.502 180.986 27.1893 181.294 26.564H183.408C183.184 27.3107 182.754 27.9267 182.12 28.412C181.485 28.888 180.706 29.126 179.782 29.126C179.035 29.126 178.363 28.9627 177.766 28.636C177.178 28.3 176.716 27.8287 176.38 27.222C176.053 26.6153 175.89 25.9153 175.89 25.122C175.89 24.3193 176.053 23.6147 176.38 23.008C176.706 22.4013 177.164 21.9347 177.752 21.608C178.34 21.2813 179.016 21.118 179.782 21.118C180.519 21.118 181.177 21.2767 181.756 21.594C182.344 21.9113 182.796 22.364 183.114 22.952C183.44 23.5307 183.604 24.198 183.604 24.954ZM181.574 24.394C181.564 23.89 181.382 23.4887 181.028 23.19C180.673 22.882 180.239 22.728 179.726 22.728C179.24 22.728 178.83 22.8773 178.494 23.176C178.167 23.4653 177.966 23.8713 177.892 24.394H181.574Z" fill="#040205"/>
<rect x="303" y="17" width="14" height="14" rx="3" fill="#49CB84"/>
<path d="M330.416 29L326.398 24.548V29H325.124V19.242H326.398V23.764L330.43 19.242H332.04L327.616 24.128L332.082 29H330.416ZM334.779 18.64V29H333.505V18.64H334.779ZM343.95 24.87C343.95 25.1127 343.936 25.3693 343.908 25.64H337.776C337.823 26.396 338.079 26.9887 338.546 27.418C339.022 27.838 339.596 28.048 340.268 28.048C340.819 28.048 341.276 27.922 341.64 27.67C342.013 27.4087 342.275 27.0633 342.424 26.634H343.796C343.591 27.3713 343.18 27.9733 342.564 28.44C341.948 28.8973 341.183 29.126 340.268 29.126C339.54 29.126 338.887 28.9627 338.308 28.636C337.739 28.3093 337.291 27.8473 336.964 27.25C336.637 26.6433 336.474 25.9433 336.474 25.15C336.474 24.3567 336.633 23.6613 336.95 23.064C337.267 22.4667 337.711 22.0093 338.28 21.692C338.859 21.3653 339.521 21.202 340.268 21.202C340.996 21.202 341.64 21.3607 342.2 21.678C342.76 21.9953 343.189 22.434 343.488 22.994C343.796 23.5447 343.95 24.17 343.95 24.87ZM342.634 24.604C342.634 24.1187 342.527 23.7033 342.312 23.358C342.097 23.0033 341.803 22.7373 341.43 22.56C341.066 22.3733 340.66 22.28 340.212 22.28C339.568 22.28 339.017 22.4853 338.56 22.896C338.112 23.3067 337.855 23.876 337.79 24.604H342.634ZM346.29 20.082C346.047 20.082 345.842 19.998 345.674 19.83C345.506 19.662 345.422 19.4567 345.422 19.214C345.422 18.9713 345.506 18.766 345.674 18.598C345.842 18.43 346.047 18.346 346.29 18.346C346.523 18.346 346.719 18.43 346.878 18.598C347.046 18.766 347.13 18.9713 347.13 19.214C347.13 19.4567 347.046 19.662 346.878 19.83C346.719 19.998 346.523 20.082 346.29 20.082ZM346.906 21.328V29H345.632V21.328H346.906ZM352.815 21.188C353.748 21.188 354.504 21.4727 355.083 22.042C355.662 22.602 355.951 23.414 355.951 24.478V29H354.691V24.66C354.691 23.8947 354.5 23.3113 354.117 22.91C353.734 22.4993 353.212 22.294 352.549 22.294C351.877 22.294 351.34 22.504 350.939 22.924C350.547 23.344 350.351 23.9553 350.351 24.758V29H349.077V21.328H350.351V22.42C350.603 22.028 350.944 21.7247 351.373 21.51C351.812 21.2953 352.292 21.188 352.815 21.188Z" fill="#040205"/>
<rect x="375" y="17" width="14" height="14" rx="3" fill="#8E6BF1"/>
<path d="M406.304 21.188C406.901 21.188 407.433 21.314 407.9 21.566C408.367 21.8087 408.735 22.1773 409.006 22.672C409.277 23.1667 409.412 23.7687 409.412 24.478V29H408.152V24.66C408.152 23.8947 407.961 23.3113 407.578 22.91C407.205 22.4993 406.696 22.294 406.052 22.294C405.389 22.294 404.862 22.5087 404.47 22.938C404.078 23.358 403.882 23.9693 403.882 24.772V29H402.622V24.66C402.622 23.8947 402.431 23.3113 402.048 22.91C401.675 22.4993 401.166 22.294 400.522 22.294C399.859 22.294 399.332 22.5087 398.94 22.938C398.548 23.358 398.352 23.9693 398.352 24.772V29H397.078V21.328H398.352V22.434C398.604 22.0327 398.94 21.7247 399.36 21.51C399.789 21.2953 400.261 21.188 400.774 21.188C401.418 21.188 401.987 21.3327 402.482 21.622C402.977 21.9113 403.345 22.336 403.588 22.896C403.803 22.3547 404.157 21.9347 404.652 21.636C405.147 21.3373 405.697 21.188 406.304 21.188ZM412.16 20.082C411.917 20.082 411.712 19.998 411.544 19.83C411.376 19.662 411.292 19.4567 411.292 19.214C411.292 18.9713 411.376 18.766 411.544 18.598C411.712 18.43 411.917 18.346 412.16 18.346C412.393 18.346 412.589 18.43 412.748 18.598C412.916 18.766 413 18.9713 413 19.214C413 19.4567 412.916 19.662 412.748 19.83C412.589 19.998 412.393 20.082 412.16 20.082ZM412.776 21.328V29H411.502V21.328H412.776ZM416.501 22.378V26.9C416.501 27.2733 416.58 27.5393 416.739 27.698C416.898 27.8473 417.173 27.922 417.565 27.922H418.503V29H417.355C416.646 29 416.114 28.8367 415.759 28.51C415.404 28.1833 415.227 27.6467 415.227 26.9V22.378H414.233V21.328H415.227V19.396H416.501V21.328H418.503V22.378H416.501ZM421.601 22.378V26.9C421.601 27.2733 421.68 27.5393 421.839 27.698C421.997 27.8473 422.273 27.922 422.665 27.922H423.603V29H422.455C421.745 29 421.213 28.8367 420.859 28.51C420.504 28.1833 420.327 27.6467 420.327 26.9V22.378H419.333V21.328H420.327V19.396H421.601V21.328H423.603V22.378H421.601ZM432.146 24.87C432.146 25.1127 432.132 25.3693 432.104 25.64H425.972C426.019 26.396 426.276 26.9887 426.742 27.418C427.218 27.838 427.792 28.048 428.464 28.048C429.015 28.048 429.472 27.922 429.836 27.67C430.21 27.4087 430.471 27.0633 430.62 26.634H431.992C431.787 27.3713 431.376 27.9733 430.76 28.44C430.144 28.8973 429.379 29.126 428.464 29.126C427.736 29.126 427.083 28.9627 426.504 28.636C425.935 28.3093 425.487 27.8473 425.16 27.25C424.834 26.6433 424.67 25.9433 424.67 25.15C424.67 24.3567 424.829 23.6613 425.146 23.064C425.464 22.4667 425.907 22.0093 426.476 21.692C427.055 21.3653 427.718 21.202 428.464 21.202C429.192 21.202 429.836 21.3607 430.396 21.678C430.956 21.9953 431.386 22.434 431.684 22.994C431.992 23.5447 432.146 24.17 432.146 24.87ZM430.83 24.604C430.83 24.1187 430.723 23.7033 430.508 23.358C430.294 23.0033 430 22.7373 429.626 22.56C429.262 22.3733 428.856 22.28 428.408 22.28C427.764 22.28 427.214 22.4853 426.756 22.896C426.308 23.3067 426.052 23.876 425.986 24.604H430.83ZM435.102 18.64V29H433.828V18.64H435.102Z" fill="#040205"/>
<rect x="455" y="17" width="14" height="14" rx="3" fill="#FCA804"/>
<path d="M480.242 21.202C480.905 21.202 481.483 21.3467 481.978 21.636C482.482 21.9253 482.855 22.2893 483.098 22.728V21.328H484.386V29.168C484.386 29.868 484.237 30.4887 483.938 31.03C483.639 31.5807 483.21 32.01 482.65 32.318C482.099 32.626 481.455 32.78 480.718 32.78C479.71 32.78 478.87 32.542 478.198 32.066C477.526 31.59 477.129 30.9413 477.008 30.12H478.268C478.408 30.5867 478.697 30.96 479.136 31.24C479.575 31.5293 480.102 31.674 480.718 31.674C481.418 31.674 481.987 31.4547 482.426 31.016C482.874 30.5773 483.098 29.9613 483.098 29.168V27.558C482.846 28.006 482.473 28.3793 481.978 28.678C481.483 28.9767 480.905 29.126 480.242 29.126C479.561 29.126 478.94 28.958 478.38 28.622C477.829 28.286 477.395 27.8147 477.078 27.208C476.761 26.6013 476.602 25.9107 476.602 25.136C476.602 24.352 476.761 23.666 477.078 23.078C477.395 22.4807 477.829 22.0187 478.38 21.692C478.94 21.3653 479.561 21.202 480.242 21.202ZM483.098 25.15C483.098 24.5713 482.981 24.0673 482.748 23.638C482.515 23.2087 482.197 22.882 481.796 22.658C481.404 22.4247 480.97 22.308 480.494 22.308C480.018 22.308 479.584 22.42 479.192 22.644C478.8 22.868 478.487 23.1947 478.254 23.624C478.021 24.0533 477.904 24.5573 477.904 25.136C477.904 25.724 478.021 26.2373 478.254 26.676C478.487 27.1053 478.8 27.4367 479.192 27.67C479.584 27.894 480.018 28.006 480.494 28.006C480.97 28.006 481.404 27.894 481.796 27.67C482.197 27.4367 482.515 27.1053 482.748 26.676C482.981 26.2373 483.098 25.7287 483.098 25.15ZM487.813 22.574C488.037 22.1353 488.354 21.7947 488.765 21.552C489.185 21.3093 489.694 21.188 490.291 21.188V22.504H489.955C488.527 22.504 487.813 23.2787 487.813 24.828V29H486.539V21.328H487.813V22.574ZM495.108 29.126C494.389 29.126 493.736 28.9627 493.148 28.636C492.569 28.3093 492.112 27.8473 491.776 27.25C491.449 26.6433 491.286 25.9433 491.286 25.15C491.286 24.366 491.454 23.6753 491.79 23.078C492.135 22.4713 492.602 22.0093 493.19 21.692C493.778 21.3653 494.436 21.202 495.164 21.202C495.892 21.202 496.55 21.3653 497.138 21.692C497.726 22.0093 498.188 22.4667 498.524 23.064C498.869 23.6613 499.042 24.3567 499.042 25.15C499.042 25.9433 498.864 26.6433 498.51 27.25C498.164 27.8473 497.693 28.3093 497.096 28.636C496.498 28.9627 495.836 29.126 495.108 29.126ZM495.108 28.006C495.565 28.006 495.994 27.8987 496.396 27.684C496.797 27.4693 497.119 27.1473 497.362 26.718C497.614 26.2887 497.74 25.766 497.74 25.15C497.74 24.534 497.618 24.0113 497.376 23.582C497.133 23.1527 496.816 22.8353 496.424 22.63C496.032 22.4153 495.607 22.308 495.15 22.308C494.683 22.308 494.254 22.4153 493.862 22.63C493.479 22.8353 493.171 23.1527 492.938 23.582C492.704 24.0113 492.588 24.534 492.588 25.15C492.588 25.7753 492.7 26.3027 492.924 26.732C493.157 27.1613 493.465 27.4833 493.848 27.698C494.23 27.9033 494.65 28.006 495.108 28.006ZM500.479 21.146C500.479 20.278 500.754 19.5733 501.305 19.032C501.865 18.4813 502.686 18.206 503.769 18.206C504.413 18.206 504.963 18.3133 505.421 18.528C505.887 18.7427 506.237 19.0273 506.471 19.382C506.713 19.7367 506.835 20.1193 506.835 20.53C506.835 20.978 506.723 21.3607 506.499 21.678C506.275 21.986 505.967 22.3033 505.575 22.63C505.323 22.8447 505.141 23.022 505.029 23.162C504.917 23.2927 504.861 23.4327 504.861 23.582C504.861 23.7873 504.968 23.9647 505.183 24.114C505.397 24.2633 505.808 24.4407 506.415 24.646C507.096 24.87 507.591 25.164 507.899 25.528C508.207 25.8827 508.361 26.3353 508.361 26.886C508.361 27.558 508.123 28.104 507.647 28.524C507.18 28.9347 506.531 29.14 505.701 29.14C504.889 29.14 504.226 28.916 503.713 28.468C503.199 28.02 502.91 27.404 502.845 26.62H504.133C504.161 27.0773 504.31 27.4413 504.581 27.712C504.861 27.9827 505.234 28.118 505.701 28.118C506.139 28.118 506.475 28.02 506.709 27.824C506.942 27.628 507.059 27.348 507.059 26.984C507.059 26.648 506.956 26.3773 506.751 26.172C506.545 25.9667 506.186 25.78 505.673 25.612C504.917 25.36 504.375 25.094 504.049 24.814C503.731 24.534 503.573 24.1793 503.573 23.75C503.573 23.4233 503.661 23.1387 503.839 22.896C504.016 22.6533 504.277 22.378 504.623 22.07C504.94 21.7807 505.173 21.5333 505.323 21.328C505.481 21.1227 505.561 20.8893 505.561 20.628C505.561 20.208 505.397 19.8813 505.071 19.648C504.753 19.4053 504.315 19.284 503.755 19.284C502.42 19.284 501.753 19.956 501.753 21.3V29H500.479V21.146Z" fill="#040205"/>
</svg>
