<svg width="229" height="300" viewBox="0 0 229 300" fill="none" xmlns="http://www.w3.org/2000/svg">
<g clip-path="url(#clip0)">
<path d="M78.4705 207.196C78.9134 207.015 79.2758 206.874 79.6281 206.724C82.3864 205.629 85.1347 204.505 87.9131 203.44C89.9868 202.637 92.0203 202.738 93.9028 204.003C96.5101 205.74 99.0569 207.557 101.694 209.244C104.584 211.101 105.58 213.863 105.842 217.096C106.154 220.931 106.607 224.756 106.979 228.592C107.221 231.072 108.117 233.221 109.909 235.018C111.016 236.122 111.983 237.367 113.04 238.522C113.926 239.496 114.379 240.6 114.248 241.926C114.036 244.084 113.785 246.233 113.644 248.392C113.442 251.414 112.124 253.784 109.838 255.751C107.825 257.478 105.922 259.336 104.06 261.224C103.607 261.675 103.315 262.469 103.295 263.111C103.265 263.975 103.567 264.848 103.758 265.702C104.382 268.643 105.067 271.565 105.62 274.517C105.912 276.083 105.5 277.529 104.241 278.664C103.527 279.306 102.892 280.039 102.228 280.742C99.4496 283.694 96.6711 286.646 93.8122 289.688C94.2652 289.939 94.5974 290.14 94.9396 290.321C96.8624 291.325 98.8153 292.279 100.708 293.343C103.084 294.678 105.963 295.421 106.808 298.403C107.03 298.424 107.07 298.444 107.11 298.434C107.493 298.313 107.875 298.183 108.258 298.062C110.996 297.209 111.006 297.209 111.087 294.427C111.137 292.309 112.103 290.763 113.956 289.749C117.801 287.63 121.053 287.931 124.435 290.692C125.774 291.787 127.133 292.861 128.522 293.875C129.861 294.839 131.381 295.16 132.992 294.759C134.623 294.347 136.294 294.006 137.854 293.383C142.626 291.455 147.418 289.638 152.501 288.624C155.249 288.082 158.008 287.429 160.202 285.451C160.524 285.16 161.078 285.009 161.541 284.989C165.518 284.809 169.494 284.588 173.47 284.548C177.004 284.507 180.235 285.371 182.641 288.253C183.094 288.795 183.779 289.136 184.362 289.568C184.483 289.488 184.614 289.407 184.735 289.317C184.503 288.413 184.453 287.409 184 286.626C180.608 280.752 177.155 274.919 173.682 269.095C172.766 267.559 172.665 267.499 173.994 266.274C178.967 261.705 184.01 257.217 188.943 252.599C190.644 251.012 192.376 250.33 194.61 251.203C195.053 251.374 195.557 251.374 196.03 251.484C196.795 251.665 197.218 251.414 197.419 250.621C198.003 248.372 198.557 246.113 199.291 243.904C199.825 242.307 199.463 241.092 198.265 240.028C195.859 237.899 193.513 235.691 191.006 233.682C186.577 230.148 182.027 226.765 177.567 223.27C172.041 218.943 167.521 213.842 164.853 207.226C162.206 200.669 158.833 194.464 155.249 188.36C154.333 186.793 153.739 185.016 152.723 183.52C151.786 182.145 150.478 181.03 149.35 179.815C148.938 180.076 148.595 180.458 148.233 180.488C145.535 180.679 142.847 180.9 140.622 178.781C139.586 177.797 138.357 176.974 137.139 176.211C135.599 175.247 134.995 175.407 133.838 176.763C133.213 177.496 132.609 178.249 131.985 178.982C131.2 179.916 130.234 180.307 128.995 180.177C127.677 180.046 126.348 180.006 125.019 179.946C123.811 179.896 123.227 180.387 123.187 181.713C123.116 183.641 122.573 185.388 120.7 186.492C118.315 187.908 118.003 187.908 116.271 185.719C114.882 183.952 113.613 182.074 112.093 180.438C109.889 178.068 107.503 175.859 105.188 173.59C104.725 174.484 104.261 175.377 103.798 176.261C102.651 178.44 101.06 179.956 98.4328 180.207C97.7684 180.267 96.9631 180.779 96.5503 181.321C94.7987 183.661 93.178 186.111 91.4968 188.5C88.9399 192.115 90.1781 192.336 85.2555 190.498C82.93 189.635 80.7053 189.394 78.2993 189.745C77.192 189.906 76.8699 190.358 76.9705 191.372C77.3027 194.765 77.5947 198.159 77.9168 201.553C78.0678 203.42 78.2691 205.248 78.4705 207.196Z" fill="#D7E436"/>
<path opacity="0.15" d="M67.1649 71.2071C66.1884 70.5947 65.1818 70.0224 64.2355 69.3697C63.8228 69.0785 63.1583 68.5364 63.2288 68.2753C63.3597 67.8134 63.9134 67.1809 64.3563 67.1307C66.571 66.8596 68.8662 66.3676 71.0305 66.6789C73.4063 67.0203 75.6814 68.0946 77.9766 68.938C79.7483 69.5806 80.1611 70.5445 79.4161 72.3116C78.8524 73.6369 78.0974 74.8719 77.4632 76.1671C76.5974 77.9242 76.1948 78.0949 74.574 76.9202C72.6211 75.5045 70.7688 73.9582 68.8058 72.5526L67.1649 71.2071Z" fill="#CECECE"/>
<path opacity="0.1" d="M60.1489 288.162C60.1489 287.309 60.1288 286.666 60.1489 286.034C60.2194 284.066 60.2597 282.098 60.4107 280.14C60.5415 278.443 61.1657 278.061 62.5549 278.965C65.2729 280.732 67.9406 282.59 70.5277 284.548C71.3633 285.18 71.9472 285.321 72.8532 284.819C74.1216 284.126 75.4705 283.594 76.7691 282.951C77.8261 282.429 78.8328 282.419 79.8898 282.941C83.7152 284.809 87.5707 286.636 91.3759 288.524C92.0806 288.875 92.4632 288.835 93.0068 288.253C96.1979 284.799 99.3689 281.325 102.681 277.991C103.909 276.746 104.292 275.451 103.949 273.865C103.355 271.123 102.802 268.372 102.037 265.682C101.261 262.971 101.674 260.822 103.959 258.934C106.184 257.097 108.208 254.998 110.261 252.97C110.785 252.448 111.368 251.755 111.469 251.083C111.932 247.88 112.274 244.647 112.566 241.424C112.617 240.902 112.305 240.239 111.952 239.807C110.795 238.371 109.536 237.006 108.318 235.62C107.14 234.285 106.083 232.859 105.792 231.042C105.49 229.144 105.228 227.236 105.006 225.329C104.594 221.825 104.241 218.31 103.818 214.806C103.667 213.571 103.164 212.487 102.117 211.734C99.1475 209.615 96.1778 207.487 93.1779 205.418C91.6779 204.384 90.027 204.284 88.3459 204.977C84.0776 206.724 79.7388 208.34 75.5712 210.318C73.1048 211.493 70.8398 211.684 68.4137 210.569C66.35 209.625 64.2964 209.706 62.2025 210.479C61.5784 210.71 61.2462 210.981 61.3368 211.664C61.4677 212.698 61.4677 213.762 61.7093 214.766C62.716 218.812 62.2126 222.598 60.1288 226.242C57.9443 230.068 55.9511 234.004 53.8472 237.869C50.7365 243.572 47.3642 249.155 44.5153 254.988C39.6933 264.858 37.5491 275.431 37.1364 286.375C37.0055 289.929 37.2169 290.1 40.8611 289.779C44.9884 289.417 49.1158 289.146 53.2432 288.805C55.5082 288.624 57.7329 288.393 60.1489 288.162Z" fill="#AEF9B1"/>
<path opacity="0.1" d="M53.9581 103.538C52.1964 102.935 50.4247 102.293 48.6227 101.73C46.5389 101.078 44.4752 101.037 42.3814 101.871C38.5761 103.397 34.7608 104.883 30.9053 106.259C28.0463 107.283 25.4592 108.728 22.9828 110.476C19.6607 112.805 16.2078 114.944 12.8456 117.213C11.7483 117.956 10.6208 118.217 9.3222 118.106C8.20479 118.006 7.06725 118.006 5.93978 118.076C5.59751 118.096 5.03377 118.408 4.97337 118.679C4.34923 121.42 4.07743 124.1 5.98005 126.601C6.85585 127.755 7.47999 129.171 7.91286 130.557C8.70813 133.097 7.88266 135.647 7.57059 138.177C7.05719 142.354 6.27198 146.511 6.02031 150.698C5.86931 153.188 5.28544 154.955 2.82916 155.818C1.64128 156.23 1.49028 156.973 2.07415 158.057C3.37276 160.497 4.6009 162.977 5.83911 165.457C7.91286 169.604 9.96647 173.751 12.1107 178.058C14.3757 177.827 16.9125 177.566 19.5097 177.305C19.5097 176.733 19.5601 176.301 19.4997 175.869C19.2279 173.68 20.0835 172.104 22.0667 171.19C23.4861 170.538 24.9256 169.895 26.4055 169.413C29.6369 168.359 33.0797 167.807 35.9688 165.889C38.8781 163.961 41.6968 161.893 44.5558 159.875C47.1631 158.027 47.8073 158.188 49.4079 160.909C50.4347 162.656 51.5522 164.343 52.73 166.2C57.3204 160.809 61.7296 155.557 66.2395 150.376C67.6891 148.72 68.1119 146.963 67.8301 144.834C67.2764 140.728 70.0246 136.852 74.1016 136.129C77.2324 135.577 79.7189 134.211 81.6315 131.641C83.1416 129.613 84.8831 127.775 86.4737 125.807C86.7153 125.516 86.8361 124.884 86.6851 124.562C85.9603 123.006 85.175 121.47 84.3093 119.994C83.4738 118.578 82.5376 117.213 81.5913 115.877C79.8699 113.458 79.2558 110.747 79.2256 107.815C79.1954 105.134 79.0847 102.443 78.9135 99.7623C78.8833 99.3206 78.4706 98.6378 78.0881 98.5273C75.6318 97.7944 73.1654 97.0112 70.6487 96.5795C68.6153 96.2381 66.7127 97.0815 65.3436 98.6077C64.8201 99.19 64.5382 100.365 64.7295 101.128C65.1423 102.865 65.9274 104.511 66.5415 106.208C67.2965 108.287 66.8234 109.572 64.7194 110.114C61.478 110.957 58.3472 112.012 55.4782 113.769C55.448 113.789 55.4077 113.809 55.3674 113.829C53.6662 114.532 53.1024 114.17 53.2333 112.363C53.4346 109.471 53.6964 106.61 53.9581 103.538Z" fill="#F9D0AE"/>
<path opacity="0.1" d="M213.274 96.71C213.002 93.8284 212.882 91.0974 210.919 88.8885C210.355 88.2559 209.872 87.5631 209.318 86.9306C207.013 84.3 204.687 81.6894 202.382 79.0689C201.828 78.4464 201.567 77.7937 201.848 76.87C202.674 74.1892 203.389 71.4783 204.154 68.7774C204.657 66.9901 205.191 65.2029 205.704 63.4258C205.08 63.6366 204.707 63.968 204.325 64.2993C202.956 65.4841 201.365 66.0363 199.553 65.9961C197.55 65.956 196.855 64.8314 197.781 63.0643C198.265 62.1406 198.869 61.2871 199.422 60.3935C199.795 59.8012 199.714 59.3493 199.02 59.0682C197.973 58.6565 196.926 58.2549 195.899 57.7931C191.943 56.0159 191.903 55.9657 189.033 59.3493C186.668 62.1305 184.02 64.5403 180.789 66.2974C179.198 67.1608 177.547 67.944 176.088 68.9982C174.094 70.4441 172.172 70.5244 169.997 69.4802C166.635 67.8637 163.192 66.3877 159.83 64.7712C156.145 63.0041 152.582 63.0041 149.018 65.1226C144.77 67.6428 140.492 70.1228 136.223 72.6028C136.052 72.7032 135.851 72.7434 135.579 72.8337C137.079 73.8177 138.287 74.5406 139.415 75.374C141.045 76.5889 142.575 77.9443 144.226 79.1391C146.109 80.5047 148.293 81.0368 150.609 80.9565C152.743 80.8862 154.867 80.7958 157.001 80.6854C158.37 80.6151 158.793 81.0167 158.622 82.3421C158.531 83.0549 158.421 83.7678 158.32 84.4807C157.887 87.4125 157.464 90.3443 157.021 93.2762C156.9 94.0995 157.223 94.6718 157.937 95.0433C159.095 95.6457 159.699 96.6799 160.011 97.8747C160.303 98.9993 160.625 100.154 160.625 101.288C160.635 104.491 160.545 107.704 160.384 110.907C160.333 112.002 160.706 112.705 161.662 113.086C163.333 113.749 165.004 114.462 166.736 114.954C170.319 115.988 173.943 116.871 177.547 117.855C178.977 118.247 179.843 119.171 179.843 120.717C179.843 123.046 179.843 125.366 179.772 127.695C179.742 128.589 179.953 129.131 180.799 129.613C182.339 130.476 183.759 131.551 185.238 132.504C187.976 134.261 190.725 135.998 193.463 137.746C194.137 138.177 194.761 138.177 195.496 137.806C199.01 136.029 202.553 134.322 206.066 132.565C210.154 130.506 214.271 128.589 219.183 130.024C216.375 125.496 214.935 120.687 214.804 115.486C214.734 112.674 214.684 109.863 214.472 107.062C214.22 103.758 213.818 100.455 213.465 97.1317L213.274 96.71Z" fill="#EDAEF9"/>
<path opacity="0.15" d="M195.254 97.1518C195.254 98.3366 195.264 99.4511 195.254 100.566C195.234 103.457 195.204 103.598 192.304 103.538C187.966 103.447 183.627 103.186 179.288 102.985C178 102.925 176.721 102.845 175.433 102.744C174.758 102.694 174.325 102.403 174.345 101.61C174.426 98.7985 174.496 95.9972 174.506 93.1858C174.517 92.0312 175.05 91.2681 176.057 90.8364C178.936 89.6014 181.825 88.4066 184.714 87.2017C184.895 87.1314 185.137 87.0611 185.298 87.1314C186.889 87.7338 188.711 88.0752 190.009 89.0692C192.184 90.7359 193.744 93.0553 194.69 95.6658L195.254 97.1518Z" fill="#CECECE"/>
<path opacity="0.1" d="M118.747 60.9258C119.21 61.1567 119.552 61.3475 119.905 61.5081C123.257 62.9539 126.267 64.9219 128.925 67.432C130.324 68.7573 131.824 69.9823 133.213 71.3177C133.898 71.9803 134.401 71.8699 135.176 71.4181C139.917 68.6268 144.669 65.8657 149.471 63.1748C152.37 61.5483 155.44 61.4077 158.551 62.5925C159.487 62.9539 160.433 63.2853 161.349 63.6969C164.833 65.2532 168.306 66.8296 171.779 68.416C172.675 68.8176 173.48 68.667 174.295 68.185C175.916 67.2211 177.537 66.2372 179.198 65.3536C182.429 63.6266 185.238 61.4077 187.573 58.5763C188.62 57.3112 189.838 56.1766 191.107 55.1424C191.57 54.7709 192.516 54.6002 193.07 54.8111C195.425 55.7147 197.751 56.7288 200.026 57.8132C201.365 58.4458 201.657 59.49 200.992 60.8253C200.61 61.6185 200.076 62.3314 199.623 63.0945C199.412 63.4459 199.241 63.8174 198.999 64.2994C201.254 64.5704 202.744 63.6367 204.133 62.3013C204.858 61.6085 205.12 60.996 204.798 60.0121C202.331 52.301 199.915 44.5798 197.449 36.8687C197.258 36.2864 196.905 35.6839 196.452 35.2723C195.355 34.2682 194.187 33.3545 192.999 32.4509C191.298 31.1557 189.506 30.0412 187.332 29.6396C185.993 29.3886 184.664 29.0472 183.386 28.5853C181.946 28.0532 181.815 27.5712 182.399 26.1957C183.537 23.5048 184.654 20.7939 185.812 18.1131C186.275 17.0387 186.104 16.2054 185.157 15.4825C183.909 14.5286 182.671 13.5647 181.503 12.5306C178.946 10.2614 173.238 11.0446 172.05 15.372C171.91 15.874 171.708 16.356 171.537 16.848C170.701 19.2677 169.171 21.0248 166.856 22.2397C161.178 25.2217 155.088 26.266 148.786 26.0852C146.662 26.025 145.132 26.5772 143.823 28.1134C143.3 28.7259 142.736 29.2982 142.213 29.9107C140.28 32.22 138.357 34.5393 136.424 36.8486C135.689 37.7222 134.834 38.2342 133.596 38.0736C131.683 37.8326 129.75 37.682 127.827 37.5816C127.465 37.5615 126.911 37.8728 126.75 38.184C125.522 40.5737 124.415 43.0235 123.187 45.4132C122.069 47.5819 121.787 49.7206 122.542 52.1202C123.257 54.4296 122.804 56.6485 121.022 58.4658C120.257 59.2389 119.552 60.0522 118.747 60.9258Z" fill="#B4AEF9"/>
<path opacity="0.1" d="M61.3968 208.953C61.9102 208.872 62.1518 208.872 62.3632 208.802C64.4168 208.079 66.4805 207.999 68.4737 208.923C70.8797 210.037 73.1749 210.077 75.4299 208.561C75.5305 208.491 75.6413 208.451 75.7621 208.41C76.5674 208.18 76.9197 207.718 76.8191 206.834C76.4969 203.963 76.205 201.091 75.9533 198.219C75.7218 195.619 75.5104 193.028 75.4299 190.418C75.4097 189.825 75.903 188.771 76.2956 188.701C78.2888 188.329 80.3525 187.948 82.3558 188.109C84.0671 188.249 85.7281 189.082 87.3891 189.665C88.2851 189.986 88.8186 189.815 89.3522 188.982C91.0635 186.311 92.8654 183.701 94.6372 181.08C95.664 179.574 97.0431 178.66 98.9156 178.5C100.003 178.409 100.929 177.897 101.483 176.923C102.298 175.498 103.063 174.052 103.848 172.606C104.251 171.863 104.15 171.17 103.697 170.457C102.882 169.172 102.167 167.807 101.291 166.572C100.043 164.815 99.9726 162.957 100.808 161.1C101.805 158.871 102.993 156.732 104.06 154.533C104.774 153.057 105.469 151.571 106.073 150.045C106.204 149.724 106.033 149.061 105.771 148.84C102.942 146.531 100.154 144.141 97.1438 142.083C95.966 141.28 94.9291 140.497 94.1238 139.352C93.7111 138.76 93.248 138.207 92.8151 137.625C90.5803 134.643 88.3555 131.651 86.0402 128.548C85.1141 129.733 84.198 130.787 83.4027 131.942C81.178 135.195 78.2083 137.133 74.242 137.735C71.1314 138.207 68.9267 141.691 69.3898 144.814C69.5408 145.828 69.5106 146.892 69.3898 147.906C69.1683 149.874 67.6684 151.139 66.5007 152.525C62.5243 157.264 58.4674 161.933 54.4105 166.602C53.7864 167.325 53.5448 167.897 54.1387 168.781C54.9239 169.945 55.1555 171.271 54.8333 172.686C54.1588 175.658 53.5146 178.63 52.9307 181.612C52.1757 185.478 50.867 189.022 47.4544 191.402C46.7598 191.884 46.9108 192.486 47.4443 192.888C47.9275 193.249 48.5617 193.611 49.1355 193.621C50.2026 193.641 51.2898 193.44 52.3468 193.259C53.6454 193.038 54.934 192.647 56.2427 192.516C56.7158 192.466 57.4507 192.818 57.7325 193.209C59.7861 196.141 61.2861 199.314 61.4069 202.979C61.4472 204.946 61.3968 206.904 61.3968 208.953Z" fill="#DAFFC9"/>
<path opacity="0.1" d="M158.028 151.16C158.783 150.889 159.397 150.718 159.96 150.437C160.625 150.115 161.108 150.256 161.551 150.798C163.041 152.636 164.541 154.473 166.041 156.31C166.564 156.953 166.494 157.515 165.96 158.128C165.064 159.152 164.208 160.226 163.343 161.28C159.517 165.979 155.612 170.628 151.897 175.407C149.813 178.088 149.954 178.199 152.259 180.628C152.451 180.829 152.652 181.03 152.833 181.251C153.467 182.014 154.091 182.677 155.249 182.145C155.561 182.004 156.075 182.104 156.417 182.265C157.655 182.817 158.944 183.329 160.061 184.072C160.866 184.615 161.42 184.554 162.215 184.173C166.323 182.145 170.379 180.006 174.597 178.239C177.758 176.903 180.456 175.177 182.6 172.476C183.637 171.17 184.875 169.965 186.204 168.941C192.717 163.871 200.086 160.286 207.576 156.933C208.522 156.511 208.915 155.969 208.985 154.965C209.066 153.77 209.237 152.575 209.509 151.411C209.67 150.738 210.113 150.196 211.009 150.397C213.495 150.949 215.951 151.672 217.985 153.238C220.139 154.895 222.122 156.772 224.206 158.58C225.636 157.917 226.169 156.511 226.32 154.935C226.683 151.019 226.995 147.103 227.297 143.187C227.438 141.36 226.894 139.673 225.887 138.177C224.951 136.782 223.874 135.476 222.877 134.121C221.851 132.725 220.643 131.832 218.79 131.571C215.831 131.139 213.022 130.938 210.234 132.404C206.579 134.342 202.875 136.189 199.12 137.906C193.815 140.336 195.214 140.798 189.657 137.404C186.235 135.316 182.933 133.006 179.611 130.747C178.976 130.316 178.483 129.683 177.698 128.92C170.43 129.111 163.051 130.356 156.286 134.201C155.561 134.613 155.471 135.165 155.551 135.798C155.914 138.699 156.276 141.601 156.739 144.493C157.071 146.692 157.564 148.87 158.028 151.16Z" fill="#FFCFC9"/>
<path opacity="0.1" d="M139.273 77.8037C137.038 81.7295 133.374 83.6473 129.428 85.1935C127.183 86.067 124.968 87.0008 122.723 87.8844C121.948 88.1956 121.867 88.6073 122.2 89.3603C122.914 90.9768 123.619 92.6034 124.143 94.2802C125.542 98.7884 126.84 103.327 128.159 107.855C128.572 109.291 128.059 110.295 126.75 111.058C124.767 112.212 122.884 113.518 120.911 114.672C119.502 115.496 118.596 116.67 118.233 118.207C117.952 119.402 117.629 120.667 117.74 121.871C117.972 124.492 118.495 127.082 118.827 129.693C118.958 130.717 119.431 131.018 120.418 130.948C123.841 130.717 126.347 132.022 127.585 135.356C127.616 135.426 127.666 135.496 127.696 135.567C128.35 136.932 129.377 137.886 130.797 138.428C132.407 139.041 134.018 139.673 135.629 140.286C137.642 141.049 137.662 141.079 137.461 143.157C137.109 146.762 136.515 146.039 140.209 147.997C140.249 148.017 140.28 148.027 140.32 148.047C143.662 149.593 147.165 150.828 150.105 153.168C150.588 153.549 151.645 153.449 152.36 153.268C153.477 152.997 154.534 152.445 155.631 152.053C156.235 151.842 156.427 151.571 156.266 150.909C155.893 149.352 155.571 147.776 155.329 146.2C154.786 142.645 154.272 139.081 153.809 135.506C153.648 134.231 154.272 133.328 155.44 132.695C160.836 129.743 166.584 128.036 172.715 127.544C174.275 127.424 175.835 127.323 177.386 127.103C177.688 127.062 178.12 126.53 178.141 126.199C178.221 124.552 178.171 122.906 178.201 121.259C178.221 120.275 177.828 119.663 176.862 119.401C173.953 118.638 171.033 117.936 168.154 117.072C165.708 116.339 163.242 115.586 160.906 114.562C158.772 113.628 158.601 112.604 158.722 110.285C158.913 106.851 158.913 103.397 158.782 99.9631C158.722 98.4068 158.118 96.9108 156.527 96.0875C155.571 95.5955 155.188 94.6918 155.279 93.6677C155.42 92.001 155.591 90.3242 155.843 88.6675C156.155 86.6293 156.557 84.6112 156.95 82.3922C153.638 82.3922 150.538 82.6633 147.497 82.3219C144.286 81.9906 141.951 79.601 139.273 77.8037Z" fill="#BA40FF"/>
<path opacity="0.1" d="M35.6662 227.367C42.3908 228.251 48.0282 231.514 53.8467 234.084C55.6789 230.841 57.4708 227.718 59.2123 224.556C60.531 222.156 60.9337 219.606 60.4706 216.875C60.1384 214.907 59.9371 212.899 59.8465 210.911C59.766 208.872 59.8968 206.834 59.927 204.796C59.9774 201.282 58.9606 198.109 57.1385 195.107C56.5144 194.083 55.9003 193.992 54.8937 194.243C53.3031 194.645 51.6924 195.037 50.0616 195.227C48.3906 195.428 46.8503 195.037 45.8638 193.46C45.0081 192.085 45.0685 191.542 46.2161 190.418C46.8201 189.826 47.394 189.203 48.0382 188.661C49.2966 187.627 50.0516 186.331 50.4341 184.745C51.1186 181.904 52.0247 179.102 52.5582 176.231C53.6655 170.186 54.1286 171.702 50.7361 166.02C50.716 165.989 50.7059 165.949 50.6858 165.909C49.4878 164.022 48.3 162.134 47.0014 160.106C45.7631 161.019 44.6457 161.853 43.5183 162.666C39.5822 165.518 35.6964 168.439 30.8845 169.765C28.5692 170.407 26.2236 171.05 24.019 171.974C21.311 173.118 20.7976 173.61 21.1701 176.462C21.4218 178.399 20.9486 178.791 18.9252 178.982C16.5998 179.193 14.2744 179.414 11.959 179.675C11.6067 179.715 11.2443 179.936 10.9624 180.167C10.0262 180.92 9.15043 181.743 8.21422 182.486C7.20755 183.279 6.05994 183.922 5.17406 184.825C4.73113 185.277 4.45933 186.201 4.55999 186.834C4.9224 189.123 5.51633 191.372 5.95927 193.651C6.14047 194.595 6.59347 195.227 7.44915 195.679C8.96922 196.492 10.4692 197.356 11.9389 198.26C13.4087 199.163 13.3986 199.394 12.5328 200.81C11.1034 203.159 9.72423 205.539 8.20415 208.089C9.7947 208.17 11.1034 208.22 12.412 208.31C16.4085 208.591 20.3547 208.772 23.8479 206.171C24.321 205.82 25.378 205.84 25.9619 206.111C28.1464 207.125 30.2402 208.32 32.3643 209.455C33.3811 209.997 34.0757 210.81 34.2871 211.945C34.6495 213.913 35.0924 215.881 35.2535 217.869C35.485 221.001 35.5253 224.134 35.6662 227.367Z" fill="#9EFFF7"/>
<path opacity="0.1" d="M130.878 20.1412C127.667 19.0769 125.049 19.8801 122.502 21.2757C120.811 22.1995 119.08 23.0529 117.368 23.9365C116.402 24.4285 115.587 24.2277 114.701 23.6152C112.194 21.8882 109.617 20.2516 107.07 18.5749C105.56 17.5808 104.04 16.6069 102.54 15.6029C101.604 14.9703 100.96 14.157 100.869 12.9622C100.799 12.0084 100.607 11.0545 100.466 10.1107C100.305 9.0665 100.134 8.01225 100.013 7.29938C97.3456 7.29938 94.839 7.65079 92.4834 7.21905C87.9936 6.39573 83.5844 5.10051 79.1248 4.04625C75.531 3.20285 71.9271 2.37953 68.3132 1.63653C67.0951 1.38552 66.5918 1.90763 66.6421 3.15265C66.6723 3.74504 66.7931 4.35751 67.0146 4.90974C67.7796 6.79735 68.4843 8.73517 69.4406 10.5324C72.36 15.9643 74.1418 21.7376 75.1183 27.8021C75.7626 31.7982 76.6283 35.7541 77.2726 39.7402C77.5041 41.1559 78.1584 41.8588 79.4872 42.3206C85.0541 44.2484 89.715 47.4915 93.3894 52.1101C93.6813 52.4716 94.0135 52.8029 94.3357 53.1543C94.7484 52.9134 95.0504 52.7226 95.3625 52.5519C98.4731 50.7848 101.584 49.0377 104.684 47.2606C105.6 46.7384 106.194 46.9593 106.798 47.8128C108.862 50.7346 110.281 53.9475 111.228 57.3713C111.63 58.8272 111.952 60.1927 113.956 59.7509C114.026 59.7309 114.117 59.761 114.187 59.7911C116.301 60.7851 117.66 59.9216 119.13 58.275C120.872 56.3171 121.757 54.3793 120.841 51.8491C120.036 49.6201 120.429 47.5216 121.425 45.4633C122.12 44.0175 122.814 42.5716 123.509 41.1258C124.194 39.68 125.029 38.2743 125.532 36.7682C126.569 33.6657 127.395 30.4929 128.391 27.3703C129.146 24.9506 130.022 22.5911 130.878 20.1412Z" fill="#AEF9D7"/>
<path opacity="0.1" d="M164.662 157.164C163.443 155.648 162.276 154.262 161.199 152.816C160.655 152.083 160.142 152.083 159.356 152.415C157.323 153.278 155.239 154.001 153.206 154.855C151.444 155.598 149.964 155.347 148.394 154.232C146.702 153.037 144.82 152.113 142.968 151.16C141.548 150.427 140.028 149.864 138.599 149.141C135.357 147.515 135.236 147.294 135.679 143.74C135.82 142.635 135.609 141.932 134.401 141.641C133.475 141.42 132.599 140.969 131.683 140.677C129.045 139.824 126.921 138.398 125.804 135.737C125.572 135.185 125.301 134.593 124.878 134.201C124.324 133.689 123.65 133.137 122.945 132.986C121.737 132.725 120.448 132.866 119.23 132.635C118.294 132.464 117.761 132.735 117.197 133.448C116.311 134.553 115.486 135.667 113.814 135.888C111.398 136.199 108.962 136.631 106.657 137.384C103.899 138.288 101.271 139.573 98.3721 140.778C98.8553 141.23 99.0465 141.42 99.2579 141.591C101.775 143.589 104.281 145.607 106.838 147.555C107.774 148.268 108.127 149.081 107.764 150.156C107.422 151.18 107.07 152.204 106.587 153.168C105.268 155.828 103.848 158.429 102.53 161.09C101.644 162.877 101.785 164.574 102.993 166.291C104.07 167.827 104.865 169.554 105.801 171.19C106.083 171.692 106.305 172.265 106.697 172.666C109.093 175.156 111.59 177.546 113.925 180.086C115.335 181.622 116.482 183.39 117.791 185.006C118.053 185.327 118.667 185.729 118.908 185.619C120.005 185.127 121.103 184.544 121.314 183.159C121.445 182.285 121.475 181.392 121.727 180.558C121.908 179.976 122.281 179.122 122.734 179.012C124.133 178.65 125.643 178.319 127.052 178.47C129.136 178.691 130.868 178.58 131.975 176.522C132.216 176.07 132.619 175.699 132.971 175.317C134.27 173.921 135.619 173.61 137.3 174.534C138.629 175.267 139.907 176.13 141.055 177.114C142.696 178.53 144.468 179.253 146.672 179.012C147.427 178.932 147.85 178.751 148.293 178.098C150.276 175.136 152.209 172.114 154.424 169.323C157.685 165.186 161.189 161.25 164.662 157.164Z" fill="#FF9E9E"/>
<path opacity="0.1" d="M35.3545 71.8899C35.3143 72.3517 35.2941 72.7132 35.2438 73.0646C34.6599 77.5527 34.1365 82.0508 33.462 86.5289C33.0895 89.0089 32.4352 89.4507 29.8782 89.4005C28.4689 89.3704 27.0696 89.1997 25.6703 89.1294C25.3281 89.1093 24.9153 89.1394 24.6435 89.3202C23.3046 90.2338 22.4087 92.503 23.1838 93.9187C24.1905 95.7561 25.62 97.3526 26.8079 99.0996C27.1904 99.6518 27.5528 100.335 27.6031 100.977C27.7139 102.543 27.6434 104.13 27.6434 105.797C27.9655 105.696 28.187 105.636 28.4085 105.546C32.4855 103.959 36.5726 102.393 40.6295 100.756C43.6596 99.5414 46.6796 99.2301 49.7802 100.425C51.3204 101.017 52.8707 101.57 54.4411 102.052C55.5987 102.403 55.8705 103.005 55.6893 104.19C55.2665 106.821 55.0249 109.471 54.6827 112.403C55.5283 111.961 56.0417 111.64 56.5853 111.419C58.4275 110.666 60.2898 109.933 62.1522 109.23C62.7461 109 63.3904 108.889 64.0045 108.698C65.3031 108.277 65.4843 107.945 65.0011 106.68C64.5279 105.445 63.9541 104.25 63.4911 103.005C62.8367 101.208 62.5247 99.3205 63.9139 97.7642C65.8769 95.5653 68.454 94.5111 71.3834 95.0232C73.7793 95.4449 76.0946 96.3485 78.4804 96.8706C79.769 97.1618 80.3629 97.8646 80.4334 99.0695C80.6045 102.031 80.8361 104.993 80.8562 107.955C80.8763 110.576 81.5307 112.915 82.9803 115.094C84.6211 117.564 86.2117 120.074 87.6814 122.645C88.6076 124.271 89.1713 126.038 87.1479 127.424C90.0874 131.35 92.9866 135.145 95.7952 139.001C96.51 139.985 97.0636 139.964 98.03 139.402C102.006 137.083 106.244 135.346 110.815 134.623C113.14 134.261 115.385 133.98 116.674 131.591C117.036 130.918 117.278 130.426 117.117 129.643C116.482 126.5 115.727 123.367 116.12 120.114C116.492 117.072 117.529 114.452 120.479 112.945C121.616 112.363 122.663 111.59 123.751 110.907C126.942 108.929 127.042 108.899 125.844 105.234C124.073 99.8326 122.18 94.4709 120.237 89.1194C119.814 87.9547 119.965 87.3321 121.073 86.8502C122.734 86.1373 124.375 85.3943 126.016 84.6413C128.844 83.326 131.744 82.1211 134.472 80.6251C136.113 79.7214 137.29 78.1852 138.015 76.3478C137.623 76.0767 137.31 75.8257 136.958 75.635C133.556 73.8176 130.626 71.3878 127.898 68.697C125.583 66.4178 122.915 64.6707 119.976 63.2751C116.553 61.6586 113.05 60.8855 109.224 61.4879C106.728 61.8795 104.171 61.8795 101.644 62.0702C100.295 62.1707 99.1877 61.7088 98.3421 60.6746C97.4361 59.5501 96.4999 58.4456 95.6845 57.2508L94.3859 55.6745C91.6075 52.5017 89.2317 49.3088 85.8392 47.2103C82.3561 45.0516 78.8428 42.8527 74.3833 43.5355C73.4068 43.6861 72.38 43.4953 71.3733 43.425C69.4304 43.2845 69.4304 43.2744 68.6553 45.1119C67.558 47.6923 66.4003 50.2526 65.3937 52.8732C64.9407 54.0579 64.1857 54.4997 62.9978 54.6302C58.8402 55.0921 56.7564 53.9174 55.1155 50.0819C54.9444 49.6803 54.8538 49.2084 54.582 48.877C54.3001 48.5457 53.8371 48.114 53.4646 48.134C48.3205 48.4152 43.1865 48.7666 38.0524 49.118C37.8309 49.1381 37.5189 49.1983 37.4081 49.3489C35.9787 51.2366 35.0425 53.3651 34.2472 55.6745L34.2271 56.0962C32.4754 58.8673 32.3244 61.4879 33.9351 64.1788C35.1733 66.2371 35.6968 68.466 35.3646 70.8657C35.3445 71.0465 35.4351 71.2372 35.4753 71.438L35.3545 71.8899Z" fill="#B5DFEA"/>
<path opacity="0.1" d="M23.647 225.73C27.1603 226.202 30.5326 226.654 34.207 227.156C33.8547 222.678 33.5325 218.33 33.1701 213.983C32.999 211.935 31.8111 210.68 29.9186 209.947C28.8716 209.545 27.8046 209.083 26.9187 208.431C25.5697 207.416 24.3919 207.386 23.0128 208.36C20.778 209.927 18.2714 210.328 15.5533 210.067C13.1977 209.836 10.8119 209.906 8.43616 209.856C8.10396 209.846 7.77175 209.917 7.07715 209.977C7.82209 210.89 8.32542 211.583 8.90929 212.206C12.5031 216.101 16.1573 219.947 19.6807 223.903C20.637 224.977 21.6739 225.409 23.2846 225.519L23.647 225.73Z" fill="#F9AEF7"/>
<path opacity="0.1" d="M193.493 96.6699C191.822 93.5573 190.463 90.6857 187.322 89.3102C186.628 88.9989 185.681 88.6776 185.037 88.8985C182.359 89.8524 179.732 90.987 177.114 92.1015C176.722 92.2721 176.188 92.724 176.178 93.0653C176.098 95.706 176.138 98.3366 176.138 101.128C181.886 101.369 187.695 102.222 193.463 101.811C193.463 100.154 193.463 98.6679 193.463 97.0414L193.493 96.6699Z" fill="#FF9E9E"/>
<path opacity="0.1" d="M96.7814 56.1765C97.9089 57.5621 98.8149 58.7268 99.8014 59.8212C100.083 60.1324 100.637 60.4035 101.05 60.3834C104.05 60.273 107.049 60.0822 110.271 59.9115C109.184 55.805 107.895 52.0398 105.318 48.616C101.996 50.5437 98.7545 52.4213 95.5029 54.2989L96.7814 56.1765Z" fill="#FF9E9E"/>
<path opacity="0.15" d="M70.7796 72.0908C72.4205 73.3458 74.0613 74.5909 75.823 75.9463C76.6082 74.4001 77.3431 73.0346 77.9773 71.6189C78.0981 71.3578 77.937 70.6952 77.7156 70.5847C74.0815 68.7875 70.3668 67.2814 66.1992 68.4561L70.7796 72.0908Z" fill="#FAC8FE"/>
<path d="M23.2641 227.477C23.0628 227.307 23.0125 227.226 22.9521 227.216C20.5964 226.955 19.0562 225.6 17.5664 223.803C15.0799 220.811 12.2511 218.1 9.5935 215.258C8.60696 214.204 7.65062 213.12 6.71441 212.015C5.49634 210.569 5.45607 210.017 6.39228 208.36C7.99289 205.499 9.61363 202.637 11.2847 199.655C9.7747 198.792 8.28482 197.828 6.71441 197.075C5.18427 196.342 4.62053 195.117 4.33866 193.571C3.98633 191.603 3.60379 189.635 3.08032 187.707C2.58705 185.9 2.98972 184.444 4.4494 183.319C5.6876 182.365 6.99628 181.502 8.26469 180.578C10.1371 179.223 10.4592 178.5 9.48276 176.442C7.46942 172.204 5.30507 168.038 3.21119 163.841C2.23471 161.863 1.22804 159.895 0.342167 157.877C-0.302105 156.401 -0.0806364 155.859 1.24817 154.925C1.54011 154.714 1.84211 154.493 2.17431 154.373C3.90579 153.76 4.30846 152.565 4.39906 150.778C4.59033 147.344 5.1742 143.94 5.61714 140.517C5.94934 137.936 6.39228 135.356 6.61374 132.765C6.76474 131.089 6.22114 129.442 5.144 128.157C2.61725 125.125 2.50652 121.741 3.40245 118.156C3.64406 117.183 4.19773 116.57 5.2346 116.55C6.72448 116.52 8.21436 116.61 9.69417 116.54C10.3787 116.51 11.1639 116.359 11.7176 115.998C16.1973 113.076 20.6367 110.114 25.056 107.112C25.4587 106.841 25.8211 106.248 25.8613 105.787C26.0123 104.19 26.0425 102.584 26.0224 100.977C26.0224 100.616 25.66 100.204 25.3882 99.8928C23.8581 98.1859 22.2373 96.5493 21.5427 94.2802C20.8884 92.1416 21.9555 89.0491 23.8681 87.8844C24.3312 87.6033 25.0258 87.5731 25.5996 87.5932C27.0895 87.6434 28.5693 87.794 30.0592 87.8744C31.1363 87.9346 31.7605 87.5129 31.9014 86.3382C32.4752 81.6794 33.1094 77.0407 33.7134 72.3819C33.7335 72.2313 33.6832 72.0807 33.653 71.8096L33.7235 71.5485C33.7738 69.6709 34.1161 67.9339 33.1899 66.2773C32.9181 65.7853 32.7369 65.2531 32.4752 64.7511C31.1061 62.1807 30.6028 59.5702 32.0625 56.8492C32.1732 56.6484 32.2034 56.4074 32.3041 56.056L33.3007 53.7166C34.0959 51.9695 35.0019 50.2627 35.9885 48.616C36.2704 48.1441 36.975 47.7023 37.5086 47.6521C42.8439 47.2204 48.1793 46.869 53.5247 46.4975C54.7629 46.4172 55.679 46.7686 56.0213 48.1341C56.1924 48.8269 56.5951 49.4594 56.8568 50.1221C58.0548 53.0941 60.2795 53.4154 63.2391 52.9134C63.521 52.8632 63.8129 52.4113 63.9539 52.09C65.2021 49.2285 66.4605 46.3569 67.6383 43.4653C68.1316 42.2604 68.8564 41.7383 70.2053 41.8186C72.118 41.9291 74.0508 41.8487 76.0642 41.8487C75.5608 39.3185 75.0776 36.8084 74.5743 34.2983C73.5575 29.278 72.8227 24.1674 71.4133 19.2576C70.4067 15.7535 68.4738 12.5204 67.0242 9.12675C66.2994 7.43995 65.635 5.70295 65.1518 3.93582C64.4371 1.33533 66.1686 -0.512121 68.796 0.0903082C74.9065 1.4759 80.9868 3.00205 87.0772 4.46796C88.8389 4.88966 90.5804 5.53226 92.3622 5.6427C94.7078 5.79331 97.0835 5.55234 99.4391 5.40173C100.869 5.31137 101.271 5.48205 101.523 6.87768C101.845 8.73517 102.016 10.6228 102.399 12.4602C102.54 13.1329 102.952 13.9261 103.496 14.3076C105.389 15.6631 107.402 16.8379 109.355 18.113C111.338 19.4082 113.321 20.7034 115.254 22.069C115.939 22.5509 116.502 22.6613 117.237 22.2798C119.331 21.1754 121.435 20.0809 123.559 19.0166C126.156 17.7013 128.844 17.862 131.562 18.5548C132.669 18.8359 132.488 19.6894 132.287 20.3922C131.663 22.5007 130.978 24.5992 130.263 26.6876C129.237 29.6796 128.17 32.6516 127.032 35.8746C129.579 36.1056 131.844 36.3566 134.109 36.4771C134.512 36.4971 135.025 36.0152 135.337 35.6437C137.159 33.5051 138.941 31.3263 140.743 29.1676C141.055 28.7961 141.387 28.4447 141.679 28.0631C143.682 25.5028 146.088 24.2477 149.561 24.4486C155.34 24.7698 160.907 23.5148 166.101 20.834C168.084 19.8098 169.373 18.3038 170.057 16.2153C170.249 15.643 170.49 15.0908 170.661 14.5185C172.222 9.53841 178.946 8.46408 182.037 10.9842C183.597 12.2493 185.167 13.5044 186.698 14.7996C187.654 15.6029 187.966 16.6571 187.493 17.8419C186.476 20.4123 185.419 22.9626 184.382 25.5229C184.191 26.0048 183.99 26.4767 183.738 27.1093C184.694 27.3703 185.56 27.7117 186.456 27.8422C189.375 28.2439 191.791 29.6596 194.177 31.2962C197.278 33.4147 199.15 36.1558 200.167 39.7904C202.16 46.8891 204.465 53.8973 206.68 60.9257C207.193 62.5422 207.244 64.0784 206.71 65.725C205.613 69.1589 204.677 72.6429 203.61 76.0868C203.257 77.2113 203.408 78.0548 204.214 78.9283C206.318 81.1974 208.331 83.5469 210.435 85.8161C212.921 88.4868 214.643 91.4789 214.713 95.234C214.723 95.7059 214.884 96.1678 215.005 96.7502L214.995 97.0112C215.247 99.4912 215.539 101.831 215.71 104.17C215.972 107.694 216.314 111.219 216.344 114.743C216.405 121.309 218.247 127.113 222.928 131.892C224.156 133.147 225.213 134.583 226.29 135.988C228.122 138.368 229.048 141.039 228.777 144.071C228.424 147.947 228.102 151.822 227.72 155.688C227.528 157.555 226.532 158.941 224.951 159.985C224.035 160.588 223.441 160.588 222.706 159.714C220.25 156.812 217.522 154.212 213.858 152.846C212.921 152.505 211.955 152.254 210.838 151.913C210.747 152.595 210.677 153.138 210.606 153.68C210.495 154.553 210.435 155.437 210.274 156.3C210.123 157.124 209.67 157.656 208.814 158.037C201.586 161.27 194.429 164.654 188.057 169.433C186.496 170.608 184.986 171.943 183.758 173.45C181.402 176.341 178.493 178.239 175.071 179.685C170.561 181.592 166.222 183.882 161.833 186.06C161.148 186.402 160.685 186.362 160.071 185.96C158.934 185.217 157.756 184.504 156.528 183.922C156.115 183.721 155.501 183.952 154.977 183.982C155.078 184.454 155.048 184.996 155.279 185.378C160.172 193.32 164.118 201.754 168.014 210.198C169.836 214.134 172.725 217.196 176.007 219.867C181.674 224.485 187.513 228.893 193.211 233.492C195.486 235.329 197.58 237.397 199.714 239.406C201.073 240.681 201.365 242.207 200.781 244.014C199.976 246.534 199.372 249.105 198.617 251.645C198.264 252.82 197.429 253.292 196.211 253.111C195.415 252.99 194.6 252.9 193.845 252.639C192.426 252.147 191.359 252.468 190.251 253.482C185.409 257.95 180.496 262.358 175.604 266.776C175.282 267.067 174.909 267.318 174.557 267.589C176.47 270.642 178.322 273.453 180.023 276.365C181.946 279.658 183.819 282.981 185.5 286.395C186.003 287.419 185.953 288.805 185.852 290C185.761 291.104 184.805 291.496 183.778 290.994C183.064 290.642 182.278 290.251 181.795 289.658C179.48 286.767 176.299 286.003 172.866 286.034C169.171 286.064 165.477 286.295 161.772 286.465C161.47 286.475 161.088 286.576 160.876 286.777C158.752 288.785 156.024 289.447 153.316 289.99C148.082 291.044 143.129 292.871 138.206 294.849C136.475 295.542 134.582 295.883 132.76 296.335C130.918 296.787 129.217 296.265 127.717 295.241C126.197 294.197 124.676 293.112 123.348 291.837C120.65 289.267 117.761 289.668 114.761 291.024C113.21 291.727 112.546 293.032 112.496 294.709C112.395 298.293 112.284 298.424 108.761 299.498C106.103 300.311 106.123 300.301 104.654 297.811C104.382 297.349 103.949 296.897 103.486 296.656C95.4728 292.57 87.4295 288.524 79.4063 284.437C78.611 284.036 77.9265 284.046 77.1312 284.447C75.591 285.23 74.0005 285.913 72.4401 286.656C71.5341 287.088 70.8295 286.987 70.0644 286.244C67.6786 283.955 65.0814 281.937 61.8902 280.381C61.8399 281.375 61.7795 282.228 61.7493 283.092C61.6889 284.779 61.6385 286.465 61.5882 288.142C61.5681 289.006 61.1352 289.488 60.2896 289.588C58.3769 289.819 56.4642 290.09 54.5415 290.251C50.2128 290.612 45.8841 290.963 41.5453 291.204C39.9145 291.295 38.2636 291.094 36.6227 290.994C35.616 290.923 35.3442 290.331 35.3643 289.357C35.6563 274.879 38.6562 261.133 46.0653 248.502C48.5216 244.315 50.7966 240.028 53.1321 235.801C44.1123 230.048 34.0557 228.12 23.4957 227.467L23.2641 227.477ZM78.4701 207.196C78.913 207.015 79.2755 206.874 79.6278 206.724C82.3861 205.629 85.1343 204.505 87.9127 203.44C89.9865 202.637 92.0199 202.738 93.9024 204.003C96.5097 205.74 99.0566 207.557 101.694 209.244C104.583 211.101 105.58 213.863 105.842 217.096C106.154 220.931 106.607 224.756 106.979 228.592C107.221 231.072 108.117 233.221 109.909 235.018C111.016 236.122 111.982 237.367 113.039 238.522C113.925 239.496 114.378 240.6 114.247 241.926C114.036 244.084 113.784 246.233 113.643 248.392C113.442 251.414 112.123 253.784 109.838 255.751C107.825 257.478 105.922 259.336 104.06 261.224C103.607 261.675 103.315 262.469 103.295 263.111C103.264 263.975 103.566 264.848 103.758 265.702C104.382 268.643 105.066 271.565 105.62 274.517C105.912 276.083 105.499 277.529 104.241 278.664C103.526 279.306 102.892 280.039 102.228 280.742C99.4492 283.694 96.6708 286.646 93.8118 289.688C94.2648 289.939 94.597 290.14 94.9393 290.321C96.862 291.325 98.815 292.279 100.708 293.343C103.083 294.678 105.962 295.421 106.808 298.403C107.029 298.424 107.07 298.444 107.11 298.434C107.493 298.313 107.875 298.183 108.258 298.062C110.996 297.209 111.006 297.209 111.086 294.427C111.137 292.309 112.103 290.763 113.955 289.749C117.801 287.63 121.052 287.931 124.435 290.692C125.774 291.787 127.133 292.861 128.522 293.875C129.861 294.839 131.381 295.16 132.992 294.759C134.622 294.347 136.293 294.006 137.854 293.383C142.625 291.455 147.417 289.638 152.501 288.624C155.249 288.082 158.007 287.429 160.202 285.451C160.524 285.16 161.078 285.009 161.541 284.989C165.517 284.809 169.494 284.588 173.47 284.548C177.003 284.507 180.235 285.371 182.641 288.253C183.094 288.795 183.778 289.136 184.362 289.568C184.483 289.487 184.614 289.407 184.735 289.317C184.503 288.413 184.453 287.409 184 286.626C180.607 280.752 177.154 274.919 173.681 269.095C172.765 267.559 172.665 267.499 173.993 266.274C178.966 261.705 184.01 257.217 188.942 252.599C190.644 251.012 192.375 250.33 194.61 251.203C195.053 251.374 195.556 251.374 196.029 251.484C196.795 251.665 197.217 251.414 197.419 250.621C198.003 248.372 198.556 246.113 199.291 243.904C199.825 242.307 199.462 241.092 198.264 240.028C195.858 237.899 193.513 235.691 191.006 233.682C186.577 230.148 182.027 226.765 177.567 223.27C172.04 218.943 167.52 213.842 164.853 207.226C162.205 200.669 158.833 194.464 155.249 188.36C154.333 186.793 153.739 185.016 152.722 183.52C151.786 182.145 150.477 181.03 149.35 179.815C148.937 180.076 148.595 180.458 148.233 180.488C145.535 180.679 142.847 180.9 140.622 178.781C139.585 177.797 138.357 176.974 137.139 176.211C135.599 175.247 134.995 175.407 133.837 176.763C133.213 177.496 132.609 178.249 131.985 178.982C131.2 179.916 130.233 180.307 128.995 180.177C127.676 180.046 126.348 180.006 125.019 179.946C123.811 179.896 123.227 180.387 123.187 181.713C123.116 183.641 122.572 185.388 120.7 186.492C118.314 187.908 118.002 187.908 116.271 185.719C114.882 183.952 113.613 182.074 112.093 180.438C109.888 178.068 107.503 175.859 105.187 173.59C104.724 174.484 104.261 175.377 103.798 176.261C102.65 178.44 101.06 179.956 98.4325 180.207C97.7681 180.267 96.9627 180.779 96.55 181.321C94.7984 183.661 93.1776 186.111 91.4965 188.5C88.9395 192.115 90.1777 192.336 85.2551 190.498C82.9297 189.635 80.7049 189.394 78.299 189.745C77.1916 189.906 76.8695 190.358 76.9702 191.372C77.3024 194.765 77.5943 198.159 77.9164 201.553C78.0674 203.42 78.2688 205.248 78.4701 207.196ZM67.1652 71.2071C66.1887 70.5947 65.182 70.0224 64.2357 69.3697C63.823 69.0786 63.1586 68.5364 63.2291 68.2753C63.3599 67.8135 63.9136 67.1809 64.3565 67.1307C66.5712 66.8596 68.8664 66.3676 71.0308 66.6789C73.4065 67.0203 75.6816 68.0946 77.9768 68.938C79.7486 69.5806 80.1613 70.5445 79.4164 72.3116C78.8527 73.6369 78.0976 74.8719 77.4634 76.1671C76.5977 77.9242 76.195 78.0949 74.5743 76.9202C72.6213 75.5045 70.7691 73.9582 68.806 72.5526L67.1652 71.2071ZM60.1487 288.162C60.1487 287.309 60.1285 286.666 60.1487 286.034C60.2191 284.066 60.2594 282.098 60.4104 280.14C60.5413 278.443 61.1654 278.061 62.5546 278.965C65.2726 280.732 67.9403 282.59 70.5275 284.548C71.363 285.18 71.9469 285.321 72.8529 284.819C74.1213 284.126 75.4702 283.594 76.7688 282.951C77.8258 282.429 78.8325 282.419 79.8895 282.941C83.7149 284.809 87.5704 286.636 91.3757 288.524C92.0803 288.875 92.4629 288.835 93.0065 288.253C96.1976 284.799 99.3687 281.325 102.681 277.991C103.909 276.746 104.291 275.451 103.949 273.865C103.355 271.123 102.801 268.372 102.036 265.681C101.261 262.971 101.674 260.822 103.959 258.934C106.184 257.097 108.207 254.998 110.261 252.97C110.784 252.448 111.368 251.755 111.469 251.083C111.932 247.88 112.274 244.647 112.566 241.424C112.616 240.902 112.304 240.239 111.952 239.807C110.794 238.371 109.536 237.006 108.318 235.62C107.14 234.285 106.083 232.859 105.791 231.042C105.489 229.144 105.228 227.236 105.006 225.329C104.593 221.825 104.241 218.31 103.818 214.806C103.667 213.571 103.164 212.487 102.117 211.734C99.1472 209.615 96.1775 207.487 93.1776 205.418C91.6777 204.384 90.0267 204.284 88.3456 204.977C84.0773 206.724 79.7385 208.34 75.5709 210.318C73.1045 211.493 70.8395 211.684 68.4134 210.569C66.3498 209.625 64.2962 209.706 62.2023 210.479C61.5781 210.71 61.2459 210.981 61.3365 211.664C61.4674 212.698 61.4674 213.762 61.709 214.766C62.7157 218.812 62.2123 222.598 60.1285 226.242C57.944 230.068 55.9508 234.004 53.8469 237.869C50.7363 243.572 47.3639 249.155 44.515 254.988C39.693 264.858 37.5488 275.431 37.1361 286.375C37.0052 289.929 37.2166 290.1 40.8608 289.779C44.9881 289.417 49.1155 289.146 53.2429 288.805C55.5079 288.624 57.7326 288.393 60.1487 288.162ZM53.9576 103.538C52.1959 102.935 50.4242 102.293 48.6222 101.73C46.5384 101.078 44.4747 101.037 42.3809 101.871C38.5756 103.397 34.7603 104.883 30.9048 106.259C28.0458 107.283 25.4587 108.728 22.9823 110.476C19.6602 112.805 16.2073 114.944 12.8451 117.213C11.7478 117.956 10.6203 118.217 9.3217 118.106C8.20429 118.006 7.06675 118.006 5.93927 118.076C5.597 118.096 5.03327 118.408 4.97287 118.679C4.34873 121.42 4.07693 124.1 5.97954 126.601C6.85535 127.755 7.47948 129.171 7.91235 130.557C8.70763 133.097 7.88215 135.647 7.57008 138.177C7.05668 142.354 6.27147 146.511 6.01981 150.698C5.8688 153.188 5.28493 154.955 2.82865 155.818C1.64078 156.23 1.48977 156.973 2.07365 158.057C3.37225 160.497 4.6004 162.977 5.8386 165.457C7.91235 169.604 9.96597 173.751 12.1102 178.058C14.3752 177.827 16.912 177.566 19.5092 177.305C19.5092 176.733 19.5596 176.301 19.4992 175.869C19.2274 173.68 20.083 172.104 22.0662 171.19C23.4856 170.538 24.9251 169.895 26.4049 169.413C29.6364 168.359 33.0792 167.807 35.9683 165.889C38.8776 163.961 41.6963 161.893 44.5553 159.875C47.1626 158.027 47.8068 158.188 49.4074 160.909C50.4342 162.656 51.5517 164.343 52.7295 166.2C57.3199 160.809 61.7291 155.557 66.239 150.376C67.6886 148.72 68.1114 146.963 67.8296 144.834C67.2759 140.728 70.0241 136.852 74.1012 136.129C77.2319 135.577 79.7184 134.211 81.6311 131.641C83.1411 129.613 84.8826 127.775 86.4732 125.807C86.7148 125.516 86.8356 124.884 86.6846 124.562C85.9598 123.006 85.1746 121.47 84.3088 119.994C83.4733 118.578 82.5371 117.213 81.5908 115.877C79.8694 113.458 79.2553 110.747 79.2251 107.815C79.1949 105.134 79.0842 102.443 78.913 99.7623C78.8829 99.3205 78.4701 98.6378 78.0876 98.5273C75.6313 97.7944 73.1649 97.0112 70.6483 96.5795C68.6148 96.2381 66.7122 97.0815 65.3431 98.6077C64.8196 99.19 64.5378 100.365 64.729 101.128C65.1418 102.865 65.927 104.511 66.541 106.208C67.296 108.287 66.8229 109.572 64.719 110.114C61.4775 110.957 58.3467 112.012 55.4777 113.769C55.4475 113.789 55.4072 113.809 55.367 113.829C53.6657 114.532 53.1019 114.17 53.2328 112.363C53.4341 109.471 53.6959 106.61 53.9576 103.538ZM213.274 96.71C213.002 93.8284 212.881 91.0974 210.918 88.8885C210.354 88.2559 209.871 87.5631 209.318 86.9306C207.012 84.2999 204.687 81.6894 202.382 79.0688C201.828 78.4463 201.566 77.7937 201.848 76.87C202.674 74.1892 203.388 71.4782 204.153 68.7773C204.657 66.9901 205.19 65.2029 205.704 63.4258C205.079 63.6366 204.707 63.9679 204.324 64.2993C202.955 65.4841 201.365 66.0363 199.553 65.9961C197.55 65.956 196.855 64.8314 197.781 63.0643C198.264 62.1406 198.868 61.2871 199.422 60.3935C199.794 59.8011 199.714 59.3493 199.019 59.0682C197.972 58.6565 196.925 58.2549 195.899 57.793C191.942 56.0159 191.902 55.9657 189.033 59.3493C186.667 62.1305 184.02 64.5402 180.788 66.2973C179.198 67.1608 177.547 67.944 176.087 68.9982C174.094 70.4441 172.171 70.5244 169.997 69.4802C166.635 67.8636 163.192 66.3877 159.829 64.7712C156.145 63.0041 152.581 63.0041 149.018 65.1226C144.77 67.6428 140.491 70.1228 136.223 72.6028C136.052 72.7032 135.851 72.7433 135.579 72.8337C137.079 73.8177 138.287 74.5406 139.414 75.3739C141.045 76.5888 142.575 77.9443 144.226 79.1391C146.109 80.5046 148.293 81.0368 150.608 80.9565C152.743 80.8862 154.867 80.7958 157.001 80.6854C158.37 80.6151 158.793 81.0167 158.621 82.342C158.531 83.0549 158.42 83.7678 158.319 84.4807C157.887 87.4125 157.464 90.3443 157.021 93.2761C156.9 94.0995 157.222 94.6718 157.937 95.0433C159.095 95.6457 159.699 96.6799 160.011 97.8747C160.303 98.9992 160.625 100.154 160.625 101.288C160.635 104.491 160.544 107.704 160.383 110.907C160.333 112.002 160.705 112.705 161.662 113.086C163.333 113.749 165.004 114.462 166.735 114.954C170.319 115.988 173.943 116.871 177.547 117.855C178.976 118.247 179.842 119.171 179.842 120.717C179.842 123.046 179.842 125.366 179.772 127.695C179.741 128.589 179.953 129.131 180.799 129.613C182.339 130.476 183.758 131.551 185.238 132.504C187.976 134.261 190.724 135.998 193.462 137.745C194.137 138.177 194.761 138.177 195.496 137.806C199.009 136.029 202.553 134.322 206.066 132.565C210.153 130.506 214.27 128.589 219.183 130.024C216.374 125.496 214.935 120.687 214.804 115.486C214.733 112.674 214.683 109.863 214.472 107.062C214.22 103.758 213.817 100.455 213.465 97.1317L213.274 96.71ZM195.254 97.1518C195.254 98.3366 195.264 99.4511 195.254 100.566C195.234 103.457 195.204 103.598 192.305 103.538C187.966 103.447 183.627 103.186 179.288 102.985C178 102.925 176.721 102.845 175.433 102.744C174.758 102.694 174.326 102.403 174.346 101.61C174.426 98.7984 174.497 95.9971 174.507 93.1858C174.517 92.0311 175.05 91.2681 176.057 90.8363C178.936 89.6013 181.825 88.4065 184.714 87.2016C184.896 87.1314 185.137 87.0611 185.298 87.1314C186.889 87.7338 188.711 88.0752 190.01 89.0692C192.184 90.7359 193.744 93.0553 194.691 95.6658L195.254 97.1518ZM118.747 60.9257C119.21 61.1566 119.552 61.3474 119.905 61.508C123.257 62.9538 126.267 64.9218 128.925 67.4319C130.324 68.7573 131.824 69.9822 133.213 71.3176C133.898 71.9803 134.401 71.8698 135.176 71.418C139.917 68.6267 144.669 65.8656 149.471 63.1747C152.37 61.5482 155.44 61.4076 158.551 62.5924C159.487 62.9538 160.433 63.2852 161.35 63.6968C164.833 65.2531 168.306 66.8295 171.779 68.4159C172.675 68.8175 173.48 68.6669 174.295 68.185C175.916 67.2211 177.537 66.2371 179.198 65.3535C182.429 63.6266 185.238 61.4076 187.573 58.5762C188.62 57.3111 189.838 56.1765 191.107 55.1423C191.57 54.7708 192.516 54.6002 193.07 54.811C195.425 55.7147 197.751 56.7287 200.026 57.8131C201.365 58.4457 201.657 59.4899 200.992 60.8253C200.61 61.6185 200.076 62.3313 199.623 63.0944C199.412 63.4458 199.241 63.8173 198.999 64.2993C201.254 64.5704 202.744 63.6366 204.133 62.3012C204.858 61.6084 205.12 60.996 204.798 60.012C202.331 52.3009 199.915 44.5797 197.449 36.8686C197.258 36.2863 196.905 35.6839 196.452 35.2722C195.355 34.2682 194.187 33.3545 192.999 32.4508C191.298 31.1556 189.506 30.0411 187.332 29.6395C185.993 29.3885 184.664 29.0471 183.386 28.5852C181.946 28.0531 181.815 27.5711 182.399 26.1956C183.537 23.5047 184.654 20.7938 185.812 18.113C186.275 17.0387 186.104 16.2053 185.157 15.4824C183.909 14.5285 182.671 13.5647 181.503 12.5305C178.946 10.2613 173.238 11.0445 172.051 15.3719C171.91 15.874 171.708 16.3559 171.537 16.8479C170.702 19.2677 169.171 21.0247 166.856 22.2396C161.178 25.2217 155.088 26.2659 148.786 26.0852C146.662 26.0249 145.132 26.5771 143.823 28.1133C143.3 28.7258 142.736 29.2981 142.213 29.9106C140.28 32.2199 138.357 34.5392 136.424 36.8486C135.689 37.7221 134.834 38.2341 133.596 38.0735C131.683 37.8325 129.75 37.6819 127.827 37.5815C127.465 37.5614 126.911 37.8727 126.75 38.1839C125.522 40.5736 124.415 43.0235 123.187 45.4131C122.069 47.5819 121.787 49.7205 122.542 52.1202C123.257 54.4295 122.804 56.6484 121.022 58.4657C120.257 59.2389 119.552 60.0521 118.747 60.9257ZM61.3969 208.953C61.9103 208.872 62.1519 208.872 62.3633 208.802C64.4169 208.079 66.4806 207.999 68.4738 208.923C70.8798 210.037 73.175 210.077 75.43 208.561C75.5306 208.491 75.6414 208.451 75.7622 208.411C76.5675 208.18 76.9198 207.718 76.8192 206.834C76.497 203.963 76.2051 201.091 75.9534 198.219C75.7219 195.619 75.5105 193.028 75.43 190.418C75.4098 189.826 75.9031 188.771 76.2957 188.701C78.2889 188.33 80.3526 187.948 82.3559 188.109C84.0672 188.249 85.7282 189.083 87.3892 189.665C88.2852 189.986 88.8187 189.816 89.3523 188.982C91.0636 186.311 92.8656 183.701 94.6373 181.08C95.6641 179.574 97.0432 178.661 98.9157 178.5C100.003 178.41 100.929 177.897 101.483 176.924C102.298 175.498 103.063 174.052 103.848 172.606C104.251 171.863 104.15 171.17 103.697 170.457C102.882 169.172 102.167 167.807 101.291 166.572C100.043 164.815 99.9727 162.957 100.808 161.1C101.805 158.871 102.993 156.732 104.06 154.533C104.774 153.057 105.469 151.571 106.073 150.045C106.204 149.724 106.033 149.061 105.771 148.84C102.942 146.531 100.154 144.141 97.1439 142.083C95.9661 141.28 94.9292 140.497 94.1239 139.352C93.7112 138.76 93.2481 138.207 92.8152 137.625C90.5804 134.643 88.3557 131.651 86.0403 128.548C85.1142 129.733 84.1981 130.787 83.4028 131.942C81.1781 135.195 78.2084 137.133 74.2421 137.735C71.1315 138.207 68.9268 141.691 69.3899 144.814C69.5409 145.828 69.5107 146.892 69.3899 147.906C69.1684 149.874 67.6685 151.14 66.5008 152.525C62.5244 157.264 58.4675 161.933 54.4106 166.602C53.7865 167.325 53.5449 167.897 54.1388 168.781C54.924 169.945 55.1555 171.271 54.8334 172.686C54.1589 175.658 53.5147 178.63 52.9308 181.612C52.1758 185.478 50.8671 189.022 47.4545 191.402C46.7599 191.884 46.9109 192.486 47.4444 192.888C47.9276 193.249 48.5618 193.611 49.1356 193.621C50.2027 193.641 51.2899 193.44 52.3469 193.259C53.6455 193.038 54.9341 192.647 56.2428 192.516C56.7159 192.466 57.4508 192.818 57.7326 193.209C59.7862 196.141 61.2862 199.314 61.407 202.979C61.4473 204.947 61.3969 206.904 61.3969 208.953ZM158.028 151.16C158.783 150.889 159.397 150.718 159.96 150.437C160.625 150.115 161.108 150.256 161.551 150.798C163.041 152.636 164.541 154.473 166.041 156.31C166.564 156.953 166.494 157.515 165.96 158.128C165.064 159.152 164.209 160.226 163.343 161.28C159.517 165.979 155.612 170.628 151.897 175.407C149.813 178.088 149.954 178.199 152.259 180.628C152.451 180.829 152.652 181.03 152.833 181.251C153.467 182.014 154.091 182.677 155.249 182.145C155.561 182.004 156.075 182.104 156.417 182.265C157.655 182.817 158.944 183.329 160.061 184.072C160.866 184.615 161.42 184.554 162.215 184.173C166.323 182.145 170.379 180.006 174.597 178.239C177.758 176.903 180.456 175.176 182.6 172.476C183.637 171.17 184.876 169.965 186.204 168.941C192.718 163.871 200.086 160.286 207.576 156.933C208.522 156.511 208.915 155.969 208.985 154.965C209.066 153.77 209.237 152.575 209.509 151.411C209.67 150.738 210.113 150.196 211.009 150.397C213.495 150.949 215.952 151.672 217.985 153.238C220.139 154.895 222.122 156.772 224.206 158.58C225.636 157.917 226.169 156.511 226.32 154.935C226.683 151.019 226.995 147.103 227.297 143.187C227.438 141.36 226.894 139.673 225.887 138.177C224.951 136.782 223.874 135.476 222.877 134.121C221.851 132.725 220.643 131.832 218.79 131.571C215.831 131.139 213.022 130.938 210.234 132.404C206.579 134.342 202.875 136.189 199.12 137.906C193.815 140.336 195.214 140.798 189.657 137.404C186.235 135.316 182.933 133.006 179.611 130.747C178.976 130.316 178.483 129.683 177.698 128.92C170.43 129.111 163.051 130.356 156.286 134.201C155.561 134.613 155.471 135.165 155.551 135.798C155.914 138.699 156.276 141.601 156.739 144.493C157.071 146.692 157.564 148.87 158.028 151.16ZM139.273 77.8037C137.038 81.7296 133.374 83.6473 129.428 85.1936C127.183 86.0671 124.968 87.0008 122.723 87.8844C121.948 88.1957 121.868 88.6073 122.2 89.3604C122.915 90.9769 123.619 92.6034 124.143 94.2802C125.542 98.7884 126.841 103.327 128.16 107.855C128.572 109.291 128.059 110.295 126.75 111.058C124.767 112.213 122.885 113.518 120.911 114.672C119.502 115.496 118.596 116.671 118.234 118.207C117.952 119.402 117.63 120.667 117.74 121.871C117.972 124.492 118.495 127.082 118.828 129.693C118.959 130.717 119.432 131.018 120.418 130.948C123.841 130.717 126.348 132.022 127.586 135.356C127.616 135.426 127.666 135.496 127.696 135.567C128.351 136.932 129.378 137.886 130.797 138.428C132.408 139.041 134.018 139.673 135.629 140.286C137.642 141.049 137.663 141.079 137.461 143.157C137.109 146.762 136.515 146.039 140.209 147.997C140.25 148.017 140.28 148.027 140.32 148.047C143.662 149.593 147.166 150.828 150.105 153.168C150.588 153.549 151.645 153.449 152.36 153.268C153.477 152.997 154.534 152.445 155.632 152.053C156.236 151.842 156.427 151.571 156.266 150.909C155.893 149.352 155.571 147.776 155.33 146.2C154.786 142.645 154.273 139.081 153.81 135.506C153.648 134.231 154.273 133.328 155.44 132.695C160.836 129.743 166.584 128.036 172.715 127.544C174.275 127.424 175.836 127.323 177.386 127.103C177.688 127.062 178.121 126.53 178.141 126.199C178.221 124.552 178.171 122.906 178.201 121.259C178.221 120.275 177.829 119.663 176.862 119.402C173.953 118.638 171.034 117.936 168.155 117.072C165.708 116.339 163.242 115.586 160.907 114.562C158.772 113.628 158.601 112.604 158.722 110.285C158.913 106.851 158.913 103.397 158.783 99.9631C158.722 98.4068 158.118 96.9108 156.528 96.0875C155.571 95.5955 155.189 94.6919 155.279 93.6677C155.42 92.001 155.591 90.3242 155.843 88.6676C156.155 86.6293 156.558 84.6112 156.95 82.3923C153.638 82.3923 150.538 82.6633 147.498 82.322C144.286 81.9906 141.951 79.601 139.273 77.8037ZM35.6663 227.367C42.3909 228.251 48.0283 231.514 53.8469 234.084C55.679 230.841 57.4709 227.718 59.2124 224.556C60.5312 222.156 60.9339 219.606 60.4708 216.875C60.1386 214.907 59.9372 212.899 59.8466 210.911C59.7661 208.872 59.897 206.834 59.9272 204.796C59.9775 201.282 58.9608 198.109 57.1387 195.107C56.5146 194.083 55.9005 193.992 54.8938 194.243C53.3033 194.645 51.6926 195.037 50.0618 195.227C48.3907 195.428 46.8505 195.037 45.864 193.46C45.0083 192.085 45.0687 191.542 46.2163 190.418C46.8203 189.826 47.3941 189.203 48.0384 188.661C49.2967 187.627 50.0517 186.331 50.4342 184.745C51.1188 181.904 52.0248 179.102 52.5583 176.231C53.6657 170.186 54.1287 171.702 50.7363 166.02C50.7161 165.989 50.7061 165.949 50.6859 165.909C49.488 164.021 48.3001 162.134 47.0015 160.106C45.7633 161.019 44.6459 161.853 43.5184 162.666C39.5823 165.518 35.6965 168.439 30.8846 169.765C28.5693 170.407 26.2237 171.05 24.0191 171.974C21.3112 173.118 20.7978 173.61 21.1702 176.462C21.4219 178.399 20.9488 178.791 18.9254 178.982C16.5999 179.193 14.2745 179.414 11.9592 179.675C11.6068 179.715 11.2444 179.936 10.9626 180.167C10.0264 180.92 9.15056 181.743 8.21436 182.486C7.20768 183.279 6.06007 183.922 5.1742 184.825C4.73126 185.277 4.45946 186.201 4.56013 186.833C4.92253 189.123 5.51647 191.372 5.95941 193.651C6.14061 194.595 6.59361 195.227 7.44928 195.679C8.96936 196.492 10.4693 197.356 11.939 198.26C13.4088 199.163 13.3987 199.394 12.533 200.81C11.1035 203.159 9.72437 205.539 8.20429 208.089C9.79483 208.17 11.1035 208.22 12.4122 208.31C16.4087 208.591 20.3548 208.772 23.848 206.171C24.3211 205.82 25.3781 205.84 25.962 206.111C28.1465 207.125 30.2404 208.32 32.3645 209.455C33.3812 209.997 34.0758 210.81 34.2872 211.945C34.6496 213.913 35.0925 215.881 35.2536 217.869C35.4851 221.001 35.5254 224.134 35.6663 227.367ZM130.878 20.1412C127.666 19.0769 125.049 19.8801 122.502 21.2758C120.811 22.1995 119.079 23.0529 117.368 23.9365C116.402 24.4285 115.586 24.2277 114.7 23.6152C112.194 21.8882 109.617 20.2516 107.07 18.5749C105.56 17.5809 104.04 16.6069 102.54 15.6029C101.603 14.9703 100.959 14.157 100.869 12.9622C100.798 12.0084 100.607 11.0545 100.466 10.1107C100.305 9.06651 100.134 8.01226 100.013 7.29938C97.3452 7.29938 94.8386 7.6508 92.483 7.21906C87.9932 6.39574 83.584 5.10052 79.1245 4.04626C75.5306 3.20286 71.9267 2.37954 68.3128 1.63654C67.0947 1.38553 66.5914 1.90764 66.6417 3.15266C66.6719 3.74505 66.7927 4.35752 67.0142 4.90975C67.7792 6.79736 68.4839 8.73517 69.4403 10.5324C72.3596 15.9643 74.1414 21.7376 75.1179 27.8021C75.7622 31.7982 76.6279 35.7542 77.2722 39.7402C77.5037 41.1559 78.158 41.8588 79.4869 42.3206C85.0538 44.2484 89.7147 47.4915 93.389 52.1101C93.681 52.4716 94.0132 52.8029 94.3353 53.1543C94.748 52.9134 95.05 52.7226 95.3621 52.5519C98.4727 50.7848 101.583 49.0377 104.684 47.2606C105.6 46.7384 106.194 46.9593 106.798 47.8128C108.862 50.7346 110.281 53.9475 111.227 57.3713C111.63 58.8272 111.952 60.1927 113.955 59.7509C114.026 59.7309 114.116 59.761 114.187 59.7911C116.301 60.7851 117.66 59.9216 119.13 58.275C120.871 56.3171 121.757 54.3793 120.841 51.8491C120.036 49.6201 120.428 47.5216 121.425 45.4633C122.119 44.0175 122.814 42.5716 123.509 41.1258C124.193 39.68 125.029 38.2743 125.532 36.7682C126.569 33.6657 127.394 30.4929 128.391 27.3703C129.146 24.9506 130.022 22.5911 130.878 20.1412ZM164.662 157.164C163.443 155.648 162.276 154.262 161.199 152.816C160.655 152.083 160.142 152.083 159.356 152.415C157.323 153.278 155.239 154.001 153.206 154.855C151.444 155.598 149.964 155.346 148.394 154.232C146.702 153.037 144.82 152.113 142.968 151.16C141.548 150.427 140.028 149.864 138.599 149.141C135.357 147.515 135.236 147.294 135.679 143.74C135.82 142.635 135.609 141.932 134.401 141.641C133.475 141.42 132.599 140.969 131.683 140.677C129.045 139.824 126.921 138.398 125.804 135.737C125.572 135.185 125.301 134.593 124.878 134.201C124.324 133.689 123.65 133.137 122.945 132.986C121.737 132.725 120.448 132.866 119.23 132.635C118.294 132.464 117.761 132.735 117.197 133.448C116.311 134.553 115.486 135.667 113.814 135.888C111.398 136.199 108.962 136.631 106.657 137.384C103.899 138.288 101.271 139.573 98.3721 140.778C98.8553 141.23 99.0465 141.42 99.2579 141.591C101.775 143.589 104.281 145.607 106.838 147.555C107.774 148.268 108.127 149.081 107.764 150.156C107.422 151.18 107.07 152.204 106.587 153.168C105.268 155.828 103.848 158.429 102.53 161.09C101.644 162.877 101.785 164.574 102.993 166.291C104.07 167.827 104.865 169.554 105.801 171.19C106.083 171.692 106.305 172.265 106.697 172.666C109.093 175.156 111.59 177.546 113.925 180.086C115.335 181.622 116.482 183.39 117.791 185.006C118.053 185.327 118.667 185.729 118.908 185.619C120.005 185.127 121.103 184.544 121.314 183.159C121.445 182.285 121.475 181.392 121.727 180.558C121.908 179.976 122.281 179.122 122.734 179.012C124.133 178.65 125.643 178.319 127.052 178.47C129.136 178.691 130.867 178.58 131.975 176.522C132.216 176.07 132.619 175.699 132.971 175.317C134.27 173.921 135.619 173.61 137.3 174.534C138.629 175.267 139.907 176.13 141.055 177.114C142.696 178.53 144.468 179.253 146.672 179.012C147.427 178.932 147.85 178.751 148.293 178.098C150.276 175.136 152.209 172.114 154.424 169.323C157.685 165.186 161.189 161.25 164.662 157.164ZM35.3543 71.8899C35.314 72.3518 35.2939 72.7132 35.2435 73.0646C34.6597 77.5527 34.1362 82.0509 33.4617 86.5289C33.0893 89.0089 32.4349 89.4507 29.878 89.4005C28.4686 89.3704 27.0694 89.1997 25.6701 89.1294C25.3278 89.1093 24.9151 89.1395 24.6433 89.3202C23.3044 90.2339 22.4085 92.503 23.1836 93.9187C24.1903 95.7561 25.6197 97.3526 26.8076 99.0996C27.1902 99.6519 27.5526 100.335 27.6029 100.977C27.7136 102.544 27.6432 104.13 27.6432 105.797C27.9653 105.696 28.1868 105.636 28.4082 105.546C32.4853 103.959 36.5724 102.393 40.6292 100.756C43.6593 99.5414 46.6794 99.2302 49.7799 100.425C51.3201 101.017 52.8704 101.57 54.4408 102.052C55.5985 102.403 55.8703 103.005 55.6891 104.19C55.2663 106.821 55.0247 109.471 54.6824 112.403C55.528 111.962 56.0414 111.64 56.585 111.419C58.4272 110.666 60.2896 109.933 62.1519 109.23C62.7459 109 63.3901 108.889 64.0042 108.698C65.3028 108.277 65.484 107.945 65.0008 106.68C64.5277 105.445 63.9539 104.25 63.4908 103.005C62.8365 101.208 62.5244 99.3205 63.9136 97.7643C65.8766 95.5654 68.4537 94.5111 71.3831 95.0232C73.779 95.4449 76.0944 96.3485 78.4802 96.8707C79.7687 97.1618 80.3627 97.8647 80.4331 99.0695C80.6043 102.031 80.8358 104.993 80.8559 107.955C80.8761 110.576 81.5304 112.915 82.98 115.094C84.6209 117.564 86.2114 120.074 87.6812 122.645C88.6073 124.271 89.1711 126.038 87.1476 127.424C90.0871 131.35 92.9864 135.145 95.795 139.001C96.5097 139.985 97.0634 139.964 98.0298 139.402C102.006 137.083 106.244 135.346 110.815 134.623C113.14 134.261 115.385 133.98 116.673 131.591C117.036 130.918 117.277 130.426 117.116 129.643C116.482 126.5 115.727 123.368 116.12 120.114C116.492 117.072 117.529 114.452 120.479 112.945C121.616 112.363 122.663 111.59 123.75 110.907C126.941 108.929 127.042 108.899 125.844 105.234C124.072 99.8326 122.18 94.471 120.237 89.1194C119.814 87.9547 119.965 87.3322 121.073 86.8502C122.734 86.1374 124.374 85.3944 126.015 84.6413C128.844 83.326 131.743 82.1212 134.471 80.6251C136.112 79.7215 137.29 78.1853 138.015 76.3479C137.622 76.0768 137.31 75.8258 136.958 75.635C133.555 73.8177 130.626 71.3879 127.898 68.697C125.582 66.4178 122.915 64.6708 119.975 63.2751C116.553 61.6586 113.049 60.8855 109.224 61.4879C106.727 61.8795 104.17 61.8795 101.644 62.0703C100.295 62.1707 99.1875 61.7088 98.3419 60.6747C97.4359 59.5501 96.4996 58.4457 95.6842 57.2509L94.3856 55.6745C91.6072 52.5017 89.2315 49.3088 85.839 47.2104C82.3559 45.0516 78.8426 42.8528 74.383 43.5355C73.4065 43.6861 72.3797 43.4954 71.3731 43.4251C69.4302 43.2845 69.4302 43.2745 68.655 45.1119C67.5578 47.6923 66.4001 50.2526 65.3934 52.8732C64.9404 54.058 64.1854 54.4998 62.9975 54.6303C58.84 55.0921 56.7562 53.9174 55.1153 50.0819C54.9441 49.6803 54.8535 49.2084 54.5817 48.8771C54.2999 48.5457 53.8368 48.114 53.4643 48.1341C48.3202 48.4152 43.1862 48.7666 38.0522 49.118C37.8307 49.1381 37.5186 49.1984 37.4079 49.349C35.9784 51.2366 35.0422 53.3652 34.2469 55.6745L34.2268 56.0962C32.4752 58.8674 32.3242 61.4879 33.9349 64.1788C35.1731 66.2371 35.6965 68.4661 35.3643 70.8658C35.3442 71.0465 35.4348 71.2373 35.4751 71.4381L35.3543 71.8899ZM23.6467 225.73C27.16 226.202 30.5323 226.654 34.2067 227.156C33.8543 222.678 33.5322 218.331 33.1698 213.983C32.9987 211.935 31.8108 210.68 29.9182 209.947C28.8713 209.545 27.8042 209.083 26.9184 208.431C25.5694 207.416 24.3916 207.386 23.0125 208.36C20.7776 209.927 18.271 210.328 15.553 210.067C13.1974 209.836 10.8116 209.907 8.43582 209.856C8.10362 209.846 7.77142 209.917 7.07681 209.977C7.82175 210.891 8.32509 211.583 8.90896 212.206C12.5028 216.102 16.157 219.947 19.6804 223.903C20.6367 224.977 21.6736 225.409 23.2843 225.52L23.6467 225.73ZM193.493 96.6698C191.822 93.5573 190.463 90.6857 187.322 89.3102C186.627 88.9989 185.681 88.6776 185.037 88.8985C182.359 89.8523 179.731 90.9869 177.114 92.1014C176.721 92.2721 176.188 92.7239 176.178 93.0653C176.097 95.7059 176.138 98.3366 176.138 101.128C181.886 101.369 187.694 102.222 193.462 101.811C193.462 100.154 193.462 98.6679 193.462 97.0413L193.493 96.6698ZM96.7815 56.1765C97.909 57.5621 98.815 58.7268 99.8015 59.8212C100.083 60.1325 100.637 60.4036 101.05 60.3835C104.05 60.273 107.05 60.0823 110.271 59.9116C109.184 55.805 107.895 52.0398 105.318 48.616C101.996 50.5438 98.7546 52.4214 95.503 54.2989L96.7815 56.1765ZM70.7791 72.0907C72.42 73.3458 74.0609 74.5908 75.8226 75.9463C76.6078 74.4 77.3426 73.0345 77.9768 71.6188C78.0976 71.3577 77.9366 70.6951 77.7151 70.5846C74.081 68.7874 70.3664 67.2813 66.1988 68.456L70.7791 72.0907Z" fill="#58645D"/>
</g>
<defs>
<clipPath id="clip0">
<rect width="228.857" height="300" fill="white"/>
</clipPath>
</defs>
</svg>
