<svg width="25" height="25" viewBox="0 0 25 25" fill="none" xmlns="http://www.w3.org/2000/svg">
<circle cx="12.5" cy="12.5" r="12.5" fill="#4CBBB6"/>
<path d="M19.0965 8.7146L14.7832 13.0001L19.0965 17.2856C19.1745 17.1226 19.2218 16.9425 19.2218 16.7501V9.25012C19.2218 9.05771 19.1745 8.87757 19.0965 8.7146Z" fill="white"/>
<path d="M17.9725 8H6.25037C6.05795 8 5.87782 8.04731 5.71484 8.12528L11.2277 13.6103C11.7151 14.0978 12.5078 14.0978 12.9952 13.6103L18.508 8.12528C18.3451 8.04731 18.1649 8 17.9725 8Z" fill="white"/>
<path d="M5.12528 8.7146C5.04731 8.87757 5 9.05771 5 9.25012V16.7501C5 16.9425 5.04731 17.1227 5.12528 17.2856L9.43856 13.0001L5.12528 8.7146Z" fill="white"/>
<path d="M14.1948 13.5891L13.5844 14.1995C12.7722 15.0117 11.4506 15.0117 10.6385 14.1995L10.0281 13.5891L5.71484 17.8746C5.87782 17.9526 6.05795 17.9999 6.25037 17.9999H17.9725C18.1649 17.9999 18.3451 17.9526 18.508 17.8746L14.1948 13.5891Z" fill="white"/>
</svg>
