<svg width="327" height="115" viewBox="0 0 327 115" fill="none" xmlns="http://www.w3.org/2000/svg">
<path d="M319.172 65.1732L317.904 63.8969L324.097 57.7045L317.904 51.5121L319.172 50.2359L326.64 57.7045L319.172 65.1732Z" fill="#49CB84"/>
<path d="M57.5007 115C42.0421 115 27.5453 108.933 16.6884 97.9237C5.84043 86.905 -0.0104412 72.3183 0.214247 56.8508C0.654635 26.473 24.7592 1.70336 55.092 0.454093C82.3062 -0.669347 106.734 17.6832 113.169 44.0795L111.426 44.5019C105.188 18.9414 81.5243 1.17309 55.1639 2.2516C25.7837 3.45592 2.43416 27.4526 2.01175 56.8777C1.79605 71.8689 7.45819 85.9973 17.9736 96.6565C28.489 107.325 42.5275 113.202 57.5007 113.202C84.4992 113.202 107.48 93.9333 112.154 67.3931C113.232 61.2636 118.589 56.8058 124.889 56.8058H324.322V58.6033H124.889C119.461 58.6033 114.85 62.432 113.924 67.7077C109.107 95.1106 85.371 115 57.5007 115Z" fill="#49CB84"/>
<circle cx="56" cy="58" r="45" fill="#49CB84"/>
<path d="M67.3068 41H60.9723C59.4949 41 58.293 42.2019 58.293 43.6791V50.0138C58.293 51.491 59.4949 52.6929 60.9723 52.6929H67.3068C68.784 52.6929 69.9859 51.491 69.9859 50.0138V43.6791C69.9862 42.2019 68.7843 41 67.3068 41ZM67.9354 50.0138C67.9354 50.3602 67.6534 50.6421 67.3068 50.6421H60.9723C60.6257 50.6421 60.344 50.3602 60.344 50.0138V43.6791C60.344 43.3328 60.6257 43.0508 60.9723 43.0508H67.3068C67.6534 43.0508 67.9354 43.3328 67.9354 43.6791V50.0138Z" fill="white"/>
<path d="M62.4002 55.2529C61.9081 55.2529 61.4443 55.375 61.037 55.5905C60.5123 54.8043 59.6175 54.2858 58.6036 54.2858C58.08 54.2858 57.5881 54.4241 57.1625 54.6663C56.6297 53.9429 55.7723 53.4726 54.807 53.4726C54.5031 53.4726 54.2099 53.5191 53.9341 53.6056V52.6929H54.1776C55.6551 52.6929 56.857 51.491 56.857 50.0136V43.6791C56.857 42.2019 55.6551 41 54.1776 41H47.8431C46.3659 41 45.164 42.2019 45.164 43.6791V50.0138C45.164 51.491 46.3659 52.6929 47.8431 52.6929H48.0869V59.045C47.9283 58.8861 47.7502 58.7443 47.5548 58.6228C46.9248 58.2316 46.1862 58.0955 45.4621 58.2348C44.6831 58.2661 43.9843 58.606 43.5304 59.1783C43.0535 59.7793 42.8879 60.5852 43.0756 61.3895L44.4233 67.1565C45.1918 71.9681 48.9452 75.5679 49.1051 75.7194C49.2955 75.8996 49.5479 76 49.8101 76H61.3431C61.6883 76 62.0101 75.8262 62.2 75.5378C64.2425 72.4306 65.3226 68.8231 65.3229 65.105L65.3239 58.1766C65.3239 58.1766 65.3239 58.1766 65.3239 58.1764C65.3239 56.5643 64.0123 55.2529 62.4002 55.2529ZM50.2408 73.9492C49.4143 73.0702 46.979 70.2316 46.4431 66.8014C46.4391 66.776 46.4343 66.7509 46.4284 66.7264L45.0725 60.923C45.0273 60.7292 45.05 60.562 45.1368 60.4528C45.2233 60.3436 45.3718 60.2864 45.5699 60.2675C45.6695 60.2581 45.7109 60.2464 45.8033 60.2408C46.0359 60.2266 46.2744 60.2418 46.4725 60.3649C46.6706 60.488 46.8087 60.6808 46.8618 60.9078L48.0314 65.9135C48.1291 66.3314 48.4768 66.6444 48.9025 66.6978L48.9847 66.7079C49.2766 66.7445 49.57 66.654 49.7906 66.4593C50.0112 66.2647 50.1375 65.9846 50.1375 65.6906V49.3941C50.1375 48.9126 50.5289 48.5211 51.0104 48.5211C51.4916 48.5211 51.8833 48.9126 51.8833 49.3941V59.0095C51.8833 59.5756 52.3423 60.0349 52.9087 60.0349C53.4751 60.0349 53.9341 59.5756 53.9341 59.0095V56.3963C53.9341 55.9149 54.3255 55.5234 54.807 55.5234C55.2882 55.5234 55.6799 55.9149 55.6799 56.3963V59.1262C55.6799 59.6926 56.1389 60.1516 56.7053 60.1516C57.2717 60.1516 57.7307 59.6926 57.7307 59.1262V57.2094C57.7307 56.7283 58.1224 56.3365 58.6036 56.3365C59.0851 56.3365 59.4765 56.7283 59.4765 57.2094V59.8424C59.4765 60.4085 59.9355 60.8677 60.5019 60.8677C61.0683 60.8677 61.5273 60.4085 61.5273 59.8424V58.1766C61.5273 57.6952 61.919 57.3034 62.4002 57.3034C62.8817 57.3034 63.2731 57.6952 63.2731 58.1764L63.2721 65.1047C63.2718 68.2388 62.4114 71.2848 60.7794 73.9492H50.2408ZM47.2148 50.0138V43.6791C47.2148 43.3328 47.4968 43.0508 47.8431 43.0508H54.1776C54.5242 43.0508 54.8062 43.3328 54.8062 43.6791V50.0138C54.8062 50.3602 54.5242 50.6421 54.1776 50.6421H53.9341V49.3938C53.9341 47.7817 52.6224 46.4701 51.0104 46.4701C49.3983 46.4701 48.0867 47.7817 48.0867 49.3938V50.6421H47.8431C47.4968 50.6421 47.2148 50.3602 47.2148 50.0138Z" fill="white"/>
</svg>
