<svg width="329" height="117" viewBox="0 0 329 117" fill="none" xmlns="http://www.w3.org/2000/svg">
<path d="M321.284 66.2701L320 64.9773L326.273 58.7046L320 52.4318L321.284 51.139L328.849 58.7046L321.284 66.2701Z" fill="#00B4EF"/>
<path d="M58.036 116.743C42.3769 116.743 27.6919 110.598 16.6942 99.4455C5.7055 88.2839 -0.221283 73.5079 0.00631987 57.8397C0.452422 27.0678 24.8697 1.97685 55.5961 0.71138C83.1633 -0.426634 107.908 18.164 114.427 44.9028L112.661 45.3307C106.342 19.4385 82.3713 1.43971 55.6689 2.5322C25.9075 3.75216 2.25504 28.0601 1.82714 57.867C1.60864 73.0527 7.34424 87.3644 17.9961 98.1618C28.6479 108.968 42.8685 114.923 58.036 114.923C85.3847 114.923 108.664 95.4033 113.398 68.5188C114.491 62.3098 119.917 57.7942 126.299 57.7942H326.5V59.615H126.299C120.8 59.615 116.129 63.4934 115.192 68.8375C110.312 96.5959 86.2678 116.743 58.036 116.743Z" fill="#00B4EF"/>
<circle cx="59" cy="58.6575" r="45" fill="#00B4EF"/>
<path d="M72.3922 56.4974V53.093H76.4799L71.9911 42.6575H43.4889L39 53.093H43.0877V69.2664H61.4129C62.8813 72.4457 66.0998 74.6575 69.8255 74.6575C74.9322 74.6575 79.0866 70.5029 79.0866 65.3963C79.0867 61.18 76.2543 57.6129 72.3922 56.4974ZM70.4444 45.0063L72.9126 50.7442H61.9918L59.5236 45.0063H70.4444ZM45.0355 45.0063H55.9563L53.4881 50.7442H42.5673L45.0355 45.0063ZM45.4366 53.093H55.0348L56.5656 49.5343V66.9175H45.4366V53.093ZM58.9144 66.9175V49.5342L60.4452 53.0929H70.0434V56.138C69.971 56.1364 69.8985 56.1353 69.8257 56.1353C64.7191 56.1353 60.5646 60.2898 60.5646 65.3963C60.5646 65.9144 60.6081 66.4224 60.6902 66.9175H58.9144ZM69.8256 72.3086C66.0141 72.3086 62.9134 69.2079 62.9134 65.3963C62.9134 61.5849 66.0141 58.4841 69.8256 58.4841C73.6371 58.4841 76.7379 61.5849 76.7379 65.3963C76.7379 69.2079 73.6371 72.3086 69.8256 72.3086Z" fill="white"/>
<path d="M69.0465 65.9571L66.9909 63.9016L65.3301 65.5624L69.0465 69.2788L74.32 64.0052L72.6591 62.3444L69.0465 65.9571Z" fill="white"/>
<path d="M48.6084 61.5264H50.9572V63.8753H48.6084V61.5264Z" fill="white"/>
</svg>
