<svg width="114" height="114" viewBox="0 0 114 114" fill="none" xmlns="http://www.w3.org/2000/svg">
<circle cx="57" cy="56.6575" r="45" fill="#4CBBB6"/>
<circle cx="57" cy="57" r="56" stroke="#4CBBB6" stroke-width="2"/>
<path d="M64.9101 55.2435C64.7481 54.8855 64.3921 54.6575 64.0001 54.6575H60.0001V41.6575C60.0001 41.1055 59.5521 40.6575 59.0001 40.6575H55.0001C54.4481 40.6575 54.0001 41.1055 54.0001 41.6575V54.6575H50.0001C49.6081 54.6575 49.2521 54.8875 49.0901 55.2435C48.9261 55.6015 48.9901 56.0195 49.2481 56.3155L56.2481 64.3155C56.4381 64.5335 56.7121 64.6575 57.0001 64.6575C57.2881 64.6575 57.5621 64.5315 57.7521 64.3155L64.7521 56.3155C65.0121 56.0215 65.0721 55.6015 64.9101 55.2435Z" fill="white"/>
<path d="M68 62.6575V68.6575H46V62.6575H42V70.6575C42 71.7635 42.896 72.6575 44 72.6575H70C71.106 72.6575 72 71.7635 72 70.6575V62.6575H68Z" fill="white"/>
</svg>
