<svg width="675" height="502" viewBox="0 0 675 502" fill="none" xmlns="http://www.w3.org/2000/svg">
<path d="M493.561 90.8633L492.67 90.6087L492.797 90.1569L493.688 90.4178L493.561 90.8633ZM495.165 85.728L494.287 85.4289C494.828 83.8317 495.401 82.2663 495.986 80.7709L496.845 81.1082C496.266 82.5908 495.7 84.1435 495.165 85.728ZM498.761 76.5901L497.921 76.202C498.621 74.6747 499.366 73.1793 500.13 71.7539L500.945 72.193C500.187 73.6057 499.455 75.082 498.761 76.5901ZM503.427 67.9804L502.65 67.4841C503.561 66.065 504.522 64.6905 505.508 63.4115L506.24 63.9778C505.273 65.2314 504.324 66.5805 503.427 67.9804ZM543.865 61.197C542.789 61.197 541.701 60.9998 540.714 60.6243L541.045 59.7589C542.471 60.3061 544.145 60.4207 545.634 60.0707L545.844 60.9743C545.201 61.1207 544.533 61.197 543.865 61.197ZM509.404 60.2489L508.729 59.6125C509.881 58.3908 511.091 57.2262 512.325 56.1636L512.93 56.8635C511.721 57.9071 510.53 59.0462 509.404 60.2489ZM550.179 58.0599L549.759 57.8626L549.396 57.5762C550.007 56.6344 550.306 55.5781 550.306 54.4136C550.306 54.0191 550.268 53.6118 550.198 53.2109L551.108 53.0518C551.191 53.51 551.229 53.9682 551.229 54.4136C551.229 55.7563 550.873 56.9844 550.179 58.0599ZM536.691 57.4362C535.736 56.1126 535.049 54.49 534.699 52.7464L535.609 52.5619C535.934 54.1782 536.57 55.6736 537.442 56.8953L536.691 57.4362ZM516.8 53.8918L516.278 53.1282C517.64 52.1991 519.079 51.3337 520.543 50.551L520.976 51.3719C519.544 52.1355 518.137 52.9818 516.8 53.8918ZM525.412 49.3229L525.068 48.4638C526.583 47.8593 528.162 47.312 529.779 46.8411L530.04 47.732C528.448 48.1966 526.895 48.7311 525.412 49.3229ZM548.168 49.0429C547.474 48.2475 546.646 47.5729 545.774 47.1084C545.31 46.8602 544.82 46.6502 544.31 46.4784L544.603 45.6003C545.163 45.7848 545.704 46.0203 546.207 46.2875C547.181 46.803 548.104 47.5475 548.868 48.432L548.168 49.0429ZM535.539 47.8147L534.623 47.6684C534.68 47.2929 534.756 46.9175 534.839 46.5357C534.82 46.5421 534.807 46.5421 534.788 46.5484L534.597 45.6448C534.763 45.613 534.928 45.5748 535.087 45.543C535.342 44.6649 535.66 43.7676 536.061 42.8449L536.914 43.214C536.596 43.9458 536.335 44.6585 536.112 45.3585C537.398 45.1357 538.518 45.0148 539.556 44.9703L539.594 45.893C538.473 45.9375 537.264 46.0839 535.832 46.3448C535.717 46.8348 535.615 47.3248 535.539 47.8147ZM539.212 38.925L538.429 38.4351L538.83 37.8114C539.594 36.6342 540.421 35.4697 541.293 34.3561L542.025 34.9225C541.172 36.0233 540.364 37.1624 539.613 38.3205L539.212 38.925ZM545.201 31.1999L544.527 30.5635C545.653 29.3672 546.856 28.2027 548.104 27.1018L548.715 27.7954C547.486 28.8772 546.303 30.029 545.201 31.1999ZM552.521 24.7283L551.974 23.9837C553.304 23.0101 554.698 22.0747 556.111 21.2156L556.589 22.0047C555.201 22.851 553.826 23.7674 552.521 24.7283ZM560.891 19.6566L560.484 18.823C561.974 18.0912 563.508 17.423 565.048 16.8313L565.379 17.6967C563.864 18.2821 562.349 18.9375 560.891 19.6566ZM570.019 16.144L569.764 15.2531C571.362 14.795 572.992 14.4132 574.608 14.1077L574.78 15.0177C573.189 15.3168 571.585 15.6986 570.019 16.144ZM579.624 14.3432L579.541 13.4205C581.094 13.2805 582.66 13.2041 584.201 13.2041H584.519L584.512 14.1268H584.201C582.686 14.1332 581.152 14.2032 579.624 14.3432Z" fill="#708CD5"/>
<path d="M618.757 25.441H591.114C584.086 25.441 578.39 19.7457 578.39 12.7205C578.39 5.69526 584.086 0 591.114 0H618.757C625.784 0 631.481 5.69526 631.481 12.7205C631.481 19.7457 625.784 25.441 618.757 25.441Z" fill="#D3DFFF"/>
<path d="M592.431 15.9594C594.22 15.9594 595.671 14.5093 595.671 12.7204C595.671 10.9316 594.22 9.48145 592.431 9.48145C590.642 9.48145 589.191 10.9316 589.191 12.7204C589.191 14.5093 590.642 15.9594 592.431 15.9594Z" fill="white"/>
<path d="M604.932 15.9594C606.722 15.9594 608.172 14.5093 608.172 12.7204C608.172 10.9316 606.722 9.48145 604.932 9.48145C603.143 9.48145 601.692 10.9316 601.692 12.7204C601.692 14.5093 603.143 15.9594 604.932 15.9594Z" fill="white"/>
<path d="M617.433 15.9594C619.223 15.9594 620.673 14.5093 620.673 12.7204C620.673 10.9316 619.223 9.48145 617.433 9.48145C615.644 9.48145 614.193 10.9316 614.193 12.7204C614.193 14.5093 615.644 15.9594 617.433 15.9594Z" fill="white"/>
<path d="M78.357 438.351V437.428C79.9738 437.421 81.6224 437.371 83.2646 437.275L83.3219 438.198C81.6606 438.293 79.9929 438.344 78.357 438.351ZM73.3922 438.223C71.75 438.134 70.0887 437.994 68.4465 437.81L68.5547 436.887C70.1778 437.071 71.8264 437.211 73.4432 437.301L73.3922 438.223ZM88.2612 437.759L88.153 436.842C89.757 436.658 91.3929 436.422 93.016 436.149L93.1687 437.065C91.5392 437.339 89.8843 437.574 88.2612 437.759ZM63.5326 437.091C61.9032 436.804 60.2673 436.461 58.6697 436.072L58.8861 435.175C60.4583 435.557 62.075 435.894 63.6918 436.181L63.5326 437.091ZM98.0444 436.092L97.8407 435.188C98.4136 435.061 98.9865 434.921 99.5657 434.781C100.584 434.532 101.596 434.265 102.608 433.985L102.856 434.876C101.838 435.162 100.813 435.43 99.7885 435.684C99.2029 435.824 98.6236 435.964 98.0444 436.092ZM53.8831 434.742C52.2982 434.246 50.7196 433.693 49.192 433.101L49.5293 432.235C51.0379 432.821 52.5973 433.362 54.1631 433.858L53.8831 434.742ZM107.598 433.444L107.312 432.566C108.852 432.063 110.412 431.51 111.952 430.937L112.277 431.803C110.724 432.382 109.152 432.935 107.598 433.444ZM44.6218 431.16C43.1324 430.466 41.6429 429.703 40.1917 428.901L40.6372 428.093C42.063 428.882 43.5397 429.633 45.0101 430.32L44.6218 431.16ZM116.879 429.964L116.522 429.111C118.012 428.487 119.52 427.813 121.016 427.113L121.411 427.953C119.896 428.653 118.375 429.334 116.879 429.964ZM35.927 426.349C34.5394 425.452 33.1709 424.497 31.847 423.505L32.4007 422.767C33.7056 423.74 35.0614 424.688 36.4299 425.573L35.927 426.349ZM125.854 425.776L125.434 424.949C126.872 424.217 128.336 423.441 129.781 422.639L130.227 423.447C128.775 424.262 127.299 425.038 125.854 425.776ZM134.529 420.998L134.058 420.202C135.465 419.368 136.872 418.509 138.259 417.631L138.756 418.414C137.356 419.298 135.942 420.158 134.529 420.998ZM27.977 420.387C26.7358 419.318 25.5137 418.172 24.3425 416.995L24.9981 416.339C26.1565 417.504 27.3595 418.63 28.5817 419.687L27.977 420.387ZM142.906 415.722L142.39 414.952C143.752 414.042 145.108 413.113 146.458 412.171L146.992 412.929C145.637 413.877 144.274 414.806 142.906 415.722ZM20.9562 413.361C19.8869 412.127 18.8303 410.829 17.8246 409.505L18.5629 408.945C19.5559 410.256 20.5934 411.535 21.65 412.757L20.9562 413.361ZM151.009 410.04L150.461 409.295C151.779 408.322 153.097 407.335 154.401 406.336L154.968 407.074C153.657 408.073 152.333 409.066 151.009 410.04ZM14.9539 405.452C14.0373 404.077 13.1589 402.658 12.3315 401.233L13.1335 400.768C13.9482 402.174 14.8266 403.581 15.7241 404.943L14.9539 405.452ZM158.863 404.026L158.284 403.301C159.57 402.283 160.849 401.245 162.116 400.202L162.702 400.915C161.435 401.958 160.155 403.002 158.863 404.026ZM9.96362 396.867C9.22526 395.404 8.51873 393.896 7.85676 392.375L8.70332 392.006C9.35893 393.514 10.0591 395.009 10.7911 396.454L9.96362 396.867ZM6.01087 387.761C5.438 386.209 4.9097 384.631 4.43231 383.059L5.31707 382.792C5.78809 384.344 6.31639 385.91 6.87652 387.45L6.01087 387.761ZM3.12109 378.267C2.73282 376.664 2.3891 375.028 2.0963 373.412L3.00652 373.246C3.29295 374.85 3.63667 376.466 4.01858 378.051L3.12109 378.267ZM1.36431 368.499C1.16699 366.845 1.0206 365.184 0.931484 363.555L1.85443 363.504C1.94354 365.114 2.08994 366.762 2.28089 368.391L1.36431 368.499ZM1.73349 358.591L0.810547 358.585C0.823277 356.924 0.893293 355.251 1.01423 353.622L1.93718 353.692C1.81624 355.302 1.74622 356.956 1.73349 358.591ZM2.45912 348.817L1.54254 348.684C1.77805 347.048 2.07084 345.4 2.42093 343.797L3.32478 343.994C2.98742 345.578 2.69463 347.201 2.45912 348.817Z" fill="#B0C3F5"/>
<path d="M98 114V373.402C98 388.088 109.216 400 123.059 400H498.941C512.777 400 524 388.095 524 373.402V114H98Z" fill="white"/>
<path d="M499.357 401H122.643C108.502 401 97 389.417 97 375.178V128H525V375.178C525 389.417 513.498 401 499.357 401ZM98.0578 129.065V375.178C98.0578 388.827 109.082 399.928 122.637 399.928H499.357C512.911 399.928 523.936 388.827 523.936 375.178V129.065H98.0578Z" fill="#D3DFFF"/>
<path d="M524 112.455C524 99.5044 512.783 89 498.941 89H123.059C109.223 89 98 99.4984 98 112.455V128H524V112.455Z" fill="#D3DFFF"/>
<path d="M525 128H97V112.357C97 99.477 108.502 89 122.643 89H499.357C513.498 89 525 99.477 525 112.357V128ZM98.0578 127.036H523.936V112.357C523.936 100.011 512.911 89.9693 499.357 89.9693H122.643C109.089 89.9693 98.0642 100.011 98.0642 112.357V127.036H98.0578Z" fill="#D3DFFF"/>
<path d="M128.539 114.701C132.047 114.701 134.891 111.858 134.891 108.351C134.891 104.843 132.047 102 128.539 102C125.031 102 122.187 104.843 122.187 108.351C122.187 111.858 125.031 114.701 128.539 114.701Z" fill="white"/>
<path d="M150.766 114.701C154.275 114.701 157.119 111.858 157.119 108.351C157.119 104.843 154.275 102 150.766 102C147.258 102 144.414 104.843 144.414 108.351C144.414 111.858 147.258 114.701 150.766 114.701Z" fill="white"/>
<path d="M490.944 113H475.056C472.263 113 470 110.986 470 108.5C470 106.014 472.263 104 475.056 104H490.944C493.737 104 496 106.014 496 108.5C496 110.986 493.737 113 490.944 113Z" fill="white"/>
<path d="M647.762 131.332H544.331V188.688H647.762V131.332Z" fill="white"/>
<path d="M648.094 189.02H544V131H648.094V189.02ZM544.663 188.357H647.43V131.663H544.663V188.357Z" fill="#D3DFFF"/>
<path d="M562.409 165.144L564.249 168.87L568.362 169.468L565.385 172.369L566.088 176.467L562.409 174.532L558.729 176.467L559.432 172.369L556.455 169.468L560.569 168.87L562.409 165.144Z" fill="#FFD966"/>
<path d="M579.451 165.144L581.291 168.87L585.404 169.468L582.428 172.369L583.129 176.467L579.451 174.532L575.771 176.467L576.474 172.369L573.497 169.468L577.611 168.87L579.451 165.144Z" fill="#FFD966"/>
<path d="M596.494 165.144L598.333 168.87L602.446 169.468L599.471 172.369L600.172 176.467L596.494 174.532L592.814 176.467L593.516 172.369L590.541 169.468L594.654 168.87L596.494 165.144Z" fill="#FFD966"/>
<path d="M613.536 165.144L615.375 168.87L619.488 169.468L616.513 172.369L617.215 176.467L613.536 174.532L609.856 176.467L610.558 172.369L607.583 169.468L611.696 168.87L613.536 165.144Z" fill="#FFD966"/>
<path d="M630.577 165.144L632.416 168.87L636.529 169.468L633.554 172.369L634.256 176.467L630.577 174.532L626.897 176.467L627.599 172.369L624.624 169.468L628.737 168.87L630.577 165.144Z" fill="#D2D2D2"/>
<path d="M634.464 140.629H588.702V141.292H634.464V140.629Z" fill="#D3DFFF"/>
<path d="M623.598 147.525H588.702V148.188H623.598V147.525Z" fill="#D3DFFF"/>
<path d="M618.165 154.421H588.702V155.084H618.165V154.421Z" fill="#D3DFFF"/>
<path d="M569.32 148.272H569.222V146.162C570.273 145.347 570.962 143.991 570.962 142.451C570.962 139.956 569.154 137.935 566.923 137.935C564.691 137.935 562.883 139.958 562.883 142.451C562.883 143.991 563.574 145.348 564.625 146.162V148.271H564.526C560.715 148.271 557.625 151.36 557.625 155.171V157.777H576.219V155.171C576.22 151.36 573.13 148.272 569.32 148.272Z" fill="#D2D2D2"/>
<path d="M220.047 59.4858H68.4844V143.534H220.047V59.4858Z" fill="white"/>
<path d="M220.534 136.02C220.534 140.438 216.952 144.02 212.534 144.02H76C71.5817 144.02 68 140.438 68 136.02V67C68 62.5817 71.5817 59 76 59H212.534C216.952 59 220.534 62.5817 220.534 67V136.02ZM68.9716 135.048C68.9716 139.467 72.5533 143.048 76.9716 143.048H211.563C215.981 143.048 219.563 139.467 219.563 135.048V67.9716C219.563 63.5533 215.981 59.9716 211.563 59.9716H76.9716C72.5533 59.9716 68.9716 63.5533 68.9716 67.9716V135.048Z" fill="#D3DFFF"/>
<path d="M94.976 109.033L97.6722 114.493L103.699 115.37L99.336 119.621L100.366 125.625L94.976 122.791L89.5836 125.625L90.6135 119.621L86.251 115.37L92.2798 114.493L94.976 109.033Z" fill="#FCA804"/>
<path d="M119.949 109.033L122.645 114.493L128.671 115.37L124.311 119.621L125.339 125.625L119.949 122.791L114.556 125.625L115.586 119.621L111.224 115.37L117.252 114.493L119.949 109.033Z" fill="#FCA804"/>
<path d="M144.921 109.033L147.617 114.493L153.643 115.37L149.283 119.621L150.311 125.625L144.921 122.791L139.528 125.625L140.558 119.621L136.198 115.37L142.225 114.493L144.921 109.033Z" fill="#FCA804"/>
<path d="M169.893 109.033L172.59 114.493L178.616 115.37L174.256 119.621L175.286 125.625L169.893 122.791L164.501 125.625L165.531 119.621L161.171 115.37L167.197 114.493L169.893 109.033Z" fill="#FCA804"/>
<path d="M194.865 109.033L197.561 114.493L203.588 115.37L199.228 119.621L200.258 125.625L194.865 122.791L189.473 125.625L190.503 119.621L186.143 115.37L192.169 114.493L194.865 109.033Z" fill="#FCA804"/>
<path d="M200.563 73.1101H133.506V74.0817H200.563V73.1101Z" fill="#D3DFFF"/>
<path d="M184.641 83.2147H133.506V84.1863H184.641V83.2147Z" fill="#D3DFFF"/>
<path d="M176.679 93.3193H133.506V94.2909H176.679V93.3193Z" fill="#D3DFFF"/>
<path d="M105.101 84.3101H104.958V81.218C106.498 80.0229 107.509 78.036 107.509 75.7794C107.509 72.1238 104.859 69.1628 101.589 69.1628C98.3197 69.1628 95.6696 72.1262 95.6696 75.7794C95.6696 78.036 96.6825 80.0253 98.2225 81.218V84.3077H98.0768C92.4925 84.3077 87.9648 88.8353 87.9648 94.4196V98.238H115.211V94.4196C115.213 88.8353 110.686 84.3101 105.101 84.3101Z" fill="#D2D2D2"/>
<path d="M653.478 181.886C653.389 181.886 653.3 181.854 653.23 181.797C653.058 181.657 653.032 181.408 653.172 181.237L662.357 169.891C662.491 169.719 662.746 169.693 662.917 169.833C663.089 169.973 663.115 170.222 662.975 170.393L653.79 181.739C653.707 181.835 653.592 181.886 653.478 181.886Z" fill="black"/>
<path d="M657.768 186.124C657.634 186.124 657.5 186.054 657.43 185.933C657.316 185.742 657.379 185.5 657.564 185.392L672.408 176.509C672.599 176.394 672.84 176.458 672.949 176.649C673.063 176.839 673 177.081 672.815 177.189L657.971 186.073C657.908 186.111 657.838 186.124 657.768 186.124Z" fill="black"/>
<path d="M658.525 191.895C658.341 191.895 658.175 191.768 658.137 191.577C658.093 191.361 658.233 191.151 658.449 191.113L673.528 188.065C673.745 188.02 673.955 188.16 673.993 188.376C674.037 188.593 673.897 188.803 673.681 188.841L658.602 191.889C658.576 191.895 658.551 191.895 658.525 191.895Z" fill="black"/>
<path d="M515.145 471.975V501.056H473.835C475.433 492.472 482.11 487.164 493.147 484.683L494.611 471.975H515.145Z" fill="black"/>
<path d="M493.426 484.264L492.866 485.16L500.547 489.959L501.107 489.063L493.426 484.264Z" fill="white"/>
<path d="M560.222 469.913L562.864 501.037H542.253L540.49 472.102L560.222 469.913Z" fill="black"/>
<path d="M538.505 501.062H566.613C566.613 495.252 561.903 490.543 556.092 490.543H549.026C543.215 490.537 538.505 495.246 538.505 501.062Z" fill="black"/>
<path d="M567.142 501.062H566.085V500.47C566.085 495.291 561.865 491.072 556.684 491.072H548.434C543.253 491.072 539.033 495.291 539.033 500.47H537.977C537.977 494.705 542.668 490.015 548.434 490.015H556.684C562.451 490.015 567.142 494.705 567.142 500.47V501.062Z" fill="white"/>
<path d="M568.516 476.926H534.781L525.494 353.227L522.305 310.936L521.745 303.44V303.408L560.362 301.454L561.298 321.397L568.516 476.926Z" fill="#599BFF"/>
<path d="M540.319 303.898L537.016 314.881L525.488 353.227L515.387 386.832L520.275 476.76H487.03L478.202 390.937C477.788 386.928 478.138 382.887 479.227 379.012L500.709 302.924L507.532 303.096L521.733 303.446L540.319 303.898Z" fill="#599BFF"/>
<path opacity="0.2" d="M561.299 321.397L537.015 314.881L522.306 310.936L503.847 305.972L507.538 303.09L521.745 303.44V303.408L560.363 301.454L561.299 321.397Z" fill="black"/>
<path d="M527.296 385.286C527.086 385.286 526.914 385.127 526.901 384.917L524.062 339.953L513.433 339.03C513.216 339.011 513.051 338.82 513.07 338.598C513.089 338.381 513.293 338.216 513.503 338.235L524.814 339.221L527.697 384.866C527.71 385.082 527.544 385.273 527.328 385.286C527.309 385.286 527.302 385.286 527.296 385.286Z" fill="black"/>
<g opacity="0.8">
<path opacity="0.8" d="M486.081 455.748C485.687 455.837 485.292 455.939 484.897 456.034L485.006 457.09C496.036 454.443 508.016 454.469 519.097 455.169L519.04 454.157C508.016 453.463 497.01 453.285 486.081 455.748Z" fill="white"/>
<path opacity="0.8" d="M533.146 455.15L533.222 456.155C544.755 456.9 556.435 457.18 567.479 454.698L567.428 453.616C563.475 454.571 559.484 455.182 555.614 455.455C548.135 455.971 540.644 455.653 533.146 455.15Z" fill="white"/>
<path opacity="0.8" d="M567.886 463.448L567.835 462.379C561.61 463.002 555.328 463.142 549.211 463.015C544.061 462.913 538.88 462.665 533.692 462.442L533.769 463.486C545.175 463.983 556.588 464.555 567.886 463.448Z" fill="white"/>
<path opacity="0.8" d="M519.473 462.029C508.143 461.94 496.883 462.703 485.929 466.044L486.037 467.126C495.445 464.243 505.552 463.168 515.259 463.053C516.679 463.034 518.104 463.041 519.53 463.053L519.473 462.029Z" fill="white"/>
</g>
<path d="M621.887 260.461L596.401 223.566L609.393 218.647L634.312 254.27L621.887 260.461Z" fill="black"/>
<path d="M658.213 215.962L634.465 167.676L621.003 191.857L594.804 208.707L605.612 228.682L631.881 214.765L658.213 215.962Z" fill="#FF5970"/>
<path d="M585.027 214.995L595.517 234.034L605.612 228.682L594.804 208.708L585.027 214.995Z" fill="black"/>
<path d="M495.082 278.323L485.992 292.081C484.751 293.965 483.084 295.479 481.136 296.523C480.086 297.095 478.965 297.528 477.794 297.802C472.638 299.011 467.419 297.114 464.217 293.207C463.326 292.138 462.601 290.904 462.066 289.548C454.549 270.375 439.737 231.259 444.6 233.69C444.205 228.93 444.995 228.752 447.248 229.719C446.325 225.666 448.527 224.692 450.278 227.161C449.418 219.703 454.555 225.691 460.175 237.426C460.786 223.133 467.266 243.528 476.833 266.589L480.665 258.062L495.082 278.323Z" fill="#FF8F78"/>
<path d="M619.266 256.484L595.524 289.631C595.008 290.318 594.435 290.955 593.812 291.527C591.412 293.729 588.268 295.021 584.945 295.091C581.801 295.167 578.784 294.149 576.365 292.297C575.219 291.432 574.213 290.369 573.392 289.154L563.87 274.403L577.345 253.557L584.735 267.238L601.195 244.101C601.195 244.101 608.203 232.863 613.416 232.048C617.713 231.374 610.157 242.472 610.157 242.472L619.266 256.484Z" fill="#FF8F78"/>
<path d="M572.927 245.399C569.458 239.023 563.265 234.594 556.111 233.372L527.347 228.466L500.982 233.41C494.63 234.6 489.264 238.832 486.622 244.724L480.646 258.056L495.075 278.317L492.364 301.225C491.899 305.164 494.973 308.619 498.939 308.619H557.486C561.165 308.619 564.143 305.616 564.105 301.938L563.844 274.403L577.319 253.557L572.927 245.399Z" fill="#FFD966"/>
<path d="M616.198 231.107C614.384 233.27 613.76 235.727 614.804 236.598C615.848 237.47 618.158 236.427 619.972 234.269C621.786 232.106 623.498 230.674 621.366 228.778C619.374 227.009 618.012 228.95 616.198 231.107Z" fill="#FF8F78"/>
<path d="M618.578 234.874C616.739 237.069 616.102 239.57 617.159 240.461C618.222 241.352 620.571 240.289 622.417 238.087C624.262 235.886 626.007 234.428 623.836 232.5C621.812 230.706 620.424 232.678 618.578 234.874Z" fill="#FF8F78"/>
<path d="M620.882 237.839C619.043 240.035 618.406 242.535 619.463 243.426C620.526 244.317 622.874 243.254 624.72 241.053C626.56 238.857 628.31 237.394 626.14 235.466C624.115 233.671 622.722 235.644 620.882 237.839Z" fill="#FF8F78"/>
<path d="M623.333 242.484C621.818 244.292 621.296 246.341 622.168 247.072C623.04 247.804 624.969 246.932 626.484 245.125C627.999 243.318 629.431 242.122 627.649 240.537C625.987 239.061 624.842 240.677 623.333 242.484Z" fill="#FF8F78"/>
<path d="M580.451 273.703C580.368 273.703 580.285 273.678 580.215 273.627C580.037 273.5 579.999 273.252 580.133 273.073L592.201 256.643C592.335 256.465 592.583 256.427 592.755 256.56C592.933 256.688 592.971 256.936 592.838 257.114L580.769 273.544C580.693 273.646 580.572 273.703 580.451 273.703Z" fill="black"/>
<path d="M481.327 277.827C481.174 277.827 481.021 277.738 480.958 277.585L476.457 266.748C476.375 266.545 476.47 266.315 476.674 266.233C476.878 266.15 477.107 266.245 477.196 266.449L481.696 277.286C481.779 277.49 481.683 277.719 481.48 277.801C481.429 277.814 481.378 277.827 481.327 277.827Z" fill="black"/>
<path opacity="0.4" d="M481.136 296.523C480.086 297.095 478.966 297.528 477.795 297.802C472.639 299.011 467.419 297.114 464.218 293.207C465.898 290.713 468.75 289.058 471.983 289.058C476.503 289.065 480.258 292.266 481.136 296.523Z" fill="#FF5970"/>
<path opacity="0.4" d="M593.811 291.527C591.411 293.729 588.267 295.021 584.944 295.091C581.8 295.167 578.783 294.149 576.364 292.297C577.593 288.575 581.094 285.883 585.231 285.883C589.069 285.889 592.373 288.206 593.811 291.527Z" fill="#FF5970"/>
<path d="M494.032 289.816C494.025 289.816 494.019 289.816 494.006 289.816C493.79 289.803 493.618 289.612 493.637 289.396L495.4 260.474C495.413 260.258 495.604 260.086 495.82 260.105C496.037 260.118 496.209 260.308 496.19 260.525L494.426 289.447C494.414 289.65 494.236 289.816 494.032 289.816Z" fill="black"/>
<path d="M563.882 287.697C563.672 287.697 563.494 287.531 563.487 287.321L562.074 256.987C562.068 256.77 562.234 256.58 562.45 256.573C562.673 256.56 562.857 256.732 562.864 256.949L564.277 287.283C564.283 287.499 564.118 287.69 563.901 287.697C563.895 287.697 563.888 287.697 563.882 287.697Z" fill="black"/>
<path d="M452.753 232.634C452.658 232.634 452.562 232.577 452.511 232.481L450.029 227.276C449.965 227.142 450.023 226.983 450.156 226.926C450.29 226.862 450.443 226.92 450.506 227.053L452.989 232.258C453.052 232.392 452.995 232.551 452.861 232.608C452.83 232.628 452.791 232.634 452.753 232.634Z" fill="#E86562"/>
<path d="M449.755 235.192C449.66 235.192 449.564 235.135 449.513 235.039L447.031 229.834C446.967 229.7 447.025 229.541 447.158 229.484C447.285 229.42 447.445 229.478 447.508 229.611L449.991 234.817C450.054 234.95 449.997 235.109 449.863 235.167C449.831 235.186 449.793 235.192 449.755 235.192Z" fill="#E86562"/>
<path d="M447.286 239.074C447.19 239.074 447.095 239.016 447.044 238.921L444.561 233.716C444.498 233.582 444.555 233.423 444.688 233.366C444.816 233.302 444.975 233.359 445.039 233.493L447.521 238.698C447.585 238.832 447.527 238.991 447.394 239.048C447.362 239.061 447.324 239.074 447.286 239.074Z" fill="#E86562"/>
<path d="M459.634 245.596C459.551 245.596 459.475 245.558 459.424 245.488C457.775 243.299 457.775 240.741 459.424 238.469C459.507 238.348 459.672 238.323 459.793 238.412C459.914 238.495 459.939 238.66 459.85 238.781C458.966 239.996 457.794 242.44 459.85 245.17C459.939 245.284 459.914 245.45 459.799 245.539C459.742 245.577 459.685 245.596 459.634 245.596Z" fill="#E86562"/>
<path d="M528.365 244.495C528.32 244.495 528.276 244.495 528.237 244.495C524.431 244.451 521.121 242.548 519.606 239.513C519.511 239.316 519.587 239.08 519.785 238.978C519.982 238.883 520.217 238.959 520.319 239.156C521.7 241.918 524.737 243.662 528.25 243.7C528.288 243.7 528.333 243.7 528.371 243.7C531.936 243.7 535.061 241.963 536.55 239.15C536.652 238.959 536.894 238.883 537.085 238.985C537.282 239.086 537.352 239.328 537.25 239.519C535.621 242.599 532.228 244.495 528.365 244.495Z" fill="black"/>
<path d="M527.639 188.134C510.733 188.134 506.647 208.427 510.313 222.198L545.532 220.422C550.178 205.316 540.319 185.175 527.639 188.134Z" fill="black"/>
<path d="M535.946 215.726V230.368C535.946 234.568 532.547 237.979 528.346 237.979C524.145 237.979 520.733 234.575 520.733 230.368V215.726H535.946Z" fill="#FF8F78"/>
<path d="M535.946 219.672C533.432 231.908 521.924 229.261 520.733 219.309L535.946 219.672Z" fill="#E86562"/>
<path d="M539.472 209.242C539.472 216.668 534.685 223.751 528.486 223.604C522.426 223.464 517.359 216.668 517.359 209.242C517.359 201.816 520.173 196.095 527.926 195.58C536.372 195.02 539.472 201.816 539.472 209.242Z" fill="#FF8F78"/>
<path d="M517.424 208.892C518.13 205.017 519.804 199.391 525.164 197.406C530.943 204.463 538.129 201.377 540.644 207.963L539.332 195.58L525.806 192.907L516.507 198.679L515.24 206.283L517.424 208.892Z" fill="black"/>
<path d="M518.731 212.37C520.208 211.669 520.66 209.533 519.741 207.6C518.822 205.667 516.88 204.668 515.404 205.37C513.927 206.071 513.475 208.207 514.394 210.14C515.313 212.073 517.255 213.071 518.731 212.37Z" fill="#FF8F78"/>
<path d="M536.748 207.619C535.831 209.554 536.283 211.685 537.76 212.385C539.236 213.085 541.178 212.086 542.094 210.158C543.011 208.23 542.559 206.092 541.082 205.392C539.612 204.692 537.671 205.691 536.748 207.619Z" fill="#FF8F78"/>
<path d="M526.01 206.735C526.01 207.428 525.526 207.988 524.928 207.988C524.329 207.988 523.846 207.428 523.846 206.735C523.846 206.041 524.329 205.481 524.928 205.481C525.526 205.475 526.01 206.041 526.01 206.735Z" fill="black"/>
<path d="M532.98 206.735C532.98 207.428 532.496 207.988 531.898 207.988C531.299 207.988 530.815 207.428 530.815 206.735C530.815 206.041 531.299 205.481 531.898 205.481C532.496 205.481 532.98 206.041 532.98 206.735Z" fill="black"/>
<path d="M528.48 211.45C528.155 211.45 527.888 211.183 527.888 210.858V208.873C527.888 208.548 528.155 208.281 528.48 208.281C528.804 208.281 529.072 208.548 529.072 208.873V210.858C529.078 211.183 528.811 211.45 528.48 211.45Z" fill="#E86562"/>
<path d="M526.672 203.579C526.691 204.317 525.743 204.323 524.457 204.571C523.178 204.82 522.096 204.775 522.039 204.476C521.981 204.177 522.968 203.731 524.254 203.483C525.533 203.235 526.66 203.019 526.672 203.579Z" fill="black"/>
<path d="M530.16 203.438C530.141 204.177 531.096 204.183 532.376 204.431C533.655 204.679 534.737 204.635 534.794 204.336C534.852 204.037 533.859 203.591 532.579 203.343C531.306 203.095 530.18 202.878 530.16 203.438Z" fill="black"/>
<path d="M525.647 214.619C527.181 217.813 530.676 217.482 531.993 214.116C530.358 215.16 527.398 215.071 525.647 214.619Z" fill="black"/>
<path d="M525.297 213.741C525.399 214.059 525.513 214.345 525.647 214.619C527.397 215.071 530.357 215.16 531.993 214.116C532.095 213.862 532.178 213.594 532.254 213.302L525.297 213.741Z" fill="white"/>
<path opacity="0.6" d="M535.768 210.324C535.768 211.017 535.208 211.577 534.514 211.577C533.82 211.577 533.26 211.017 533.26 210.324C533.26 209.63 533.82 209.07 534.514 209.07C535.208 209.07 535.768 209.63 535.768 210.324Z" fill="#E86562"/>
<path opacity="0.6" d="M524.164 210.585C524.164 211.278 523.604 211.838 522.91 211.838C522.216 211.838 521.656 211.278 521.656 210.585C521.656 209.891 522.216 209.331 522.91 209.331C523.604 209.331 524.164 209.891 524.164 210.585Z" fill="#E86562"/>
<path d="M630.608 500.483H413.404V501.539H630.608V500.483Z" fill="black"/>
<path d="M666.727 465.408C668.084 467.904 671.004 466.158 671.004 466.158C671.004 466.158 670.836 465.335 669.525 464.648C668.548 464.136 667.142 464.561 666.643 464.739L665.031 464.697H665.007C664.648 464.714 664.292 464.742 663.939 464.777C668.534 463.156 666.367 457.732 666.367 457.732C666.367 457.732 664.923 457.791 663.395 459.827C662.167 461.458 662.652 464.233 662.795 464.913C660.96 465.175 659.191 465.642 657.499 466.252C657.719 466.043 657.942 465.802 658.169 465.53C659.92 463.435 659.149 459.461 659.149 459.461C652.877 460.266 654.126 466.161 654.499 467.514C652.448 468.5 650.546 469.665 648.83 470.885C649.27 470.275 649.734 469.4 650.069 468.159C650.86 465.21 648.206 461.535 648.206 461.535C642.055 465.401 646.479 470.99 647.347 471.987C646.245 472.837 645.23 473.695 644.319 474.521C643.318 475.424 642.397 476.327 641.56 477.195C641.867 476.372 642.125 475.072 641.877 473.21C641.438 469.898 637.209 467.305 637.209 467.305C632.73 473.643 639.139 477.401 640.642 478.168C637.792 481.253 636.149 483.676 636.124 483.711L636.679 484.084C636.697 484.056 637.775 482.473 639.69 480.242C642.066 487.755 650.236 483.937 650.236 483.937C650.236 483.937 650.034 481.887 647.006 479.876C645.052 478.579 642.142 478.917 640.576 479.234C641.752 477.927 643.161 476.47 644.78 475.006C645.314 474.525 645.882 474.03 646.482 473.534C648.586 480.625 656.177 477.076 656.177 477.076C656.177 477.076 655.992 475.201 653.222 473.364C651.481 472.206 648.903 472.471 647.449 472.754C649.203 471.377 651.199 470.01 653.393 468.832C654.691 475.536 661.832 472.834 661.832 472.834C661.832 472.834 661.794 471.15 659.449 469.327C657.914 468.134 655.476 468.249 654.196 468.413C656.564 467.218 659.143 466.255 661.874 465.746C661.759 471.826 668.349 470.651 668.349 470.651C668.349 470.651 668.583 469.229 666.894 467.322C665.583 465.837 662.893 465.712 662.101 465.708C663.06 465.537 664.037 465.422 665.031 465.373L666.727 465.408Z" fill="url(#paint0_linear)"/>
<path d="M613.5 501.553C613.5 501.553 599.824 470.704 609.718 442.04C619.616 413.377 643.509 405 643.509 405C643.509 405 629.328 421.409 637.558 447.008C645.344 471.216 630.497 501.553 630.497 501.553H613.5Z" fill="url(#paint1_linear)"/>
<path opacity="0.3" d="M618.339 501.553C618.339 501.553 614.836 438.795 629.652 422.288C616.176 443.093 621.785 501.553 621.785 501.553H618.339Z" fill="white"/>
<path d="M641.828 501.553H627.2C627.783 498.976 629.886 491.195 635.137 485.328C641.514 478.199 649.562 478.889 649.562 478.889C649.562 478.889 645.188 483.686 644.514 492.311C644.249 495.745 643.084 498.966 641.828 501.553Z" fill="url(#paint2_linear)"/>
<path opacity="0.3" d="M631.945 501.553H630.85C632.932 496.787 638.242 485.621 643.217 483.351C638.354 486.611 633.878 496.714 631.945 501.553Z" fill="white"/>
<path d="M608.009 467.434C618.656 481.305 621.046 499.395 621.297 501.556H600.596C595.359 496.724 588.937 488.908 588.884 479.506C588.797 462.717 581 452.76 581 452.76C581 452.76 596.664 452.656 608.009 467.434Z" fill="url(#paint3_linear)"/>
<path opacity="0.3" d="M614.756 501.553H612.607C610.085 493.221 602.382 470.027 592.655 462.368C602.699 467.932 612.08 493.677 614.756 501.553Z" fill="white"/>
<path d="M390 502L671 502V500L390 500V502Z" fill="#43457B"/>
<g clip-path="url(#clip0)">
<path d="M452 72.0045C463.598 72.0045 473 62.8253 473 51.5023C473 40.1792 463.598 31 452 31C440.402 31 431 40.1792 431 51.5023C431 62.8253 440.402 72.0045 452 72.0045Z" fill="#FEBF00"/>
<path d="M452 68.718C461.74 68.718 469.635 61.0103 469.635 51.5023C469.635 41.9943 461.74 34.2865 452 34.2865C442.26 34.2865 434.364 41.9943 434.364 51.5023C434.364 61.0103 442.26 68.718 452 68.718Z" fill="#FEBF00"/>
<path opacity="0.1" d="M452 68.718C461.74 68.718 469.635 61.0103 469.635 51.5023C469.635 41.9943 461.74 34.2865 452 34.2865C442.26 34.2865 434.364 41.9943 434.364 51.5023C434.364 61.0103 442.26 68.718 452 68.718Z" fill="black"/>
<path d="M452 67.7501C461.194 67.7501 468.647 60.4757 468.647 51.5022C468.647 42.5288 461.194 35.2544 452 35.2544C442.806 35.2544 435.353 42.5288 435.353 51.5022C435.353 60.4757 442.806 67.7501 452 67.7501Z" fill="#FCD721"/>
<path d="M458.195 54.2034C458.257 54.9778 458.177 55.6846 457.948 56.3284C457.718 56.9722 457.368 57.5395 456.896 58.0257C456.42 58.5164 455.836 58.9261 455.136 59.2502C454.439 59.5789 453.653 59.813 452.782 59.9525L452.728 62.8609C452.723 62.9329 452.71 63.0004 452.683 63.0544C452.656 63.113 452.602 63.1625 452.517 63.203C452.431 63.2435 452.319 63.284 452.166 63.3201C452.018 63.3561 451.829 63.3786 451.6 63.3966C451.308 63.4191 451.075 63.4236 450.891 63.4101C450.711 63.3966 450.567 63.3696 450.464 63.3291C450.361 63.2885 450.289 63.2255 450.248 63.149C450.208 63.0725 450.194 62.9824 450.208 62.8789L450.271 60.1191C449.875 60.0966 449.498 60.0561 449.148 59.9976C448.793 59.939 448.474 59.8715 448.182 59.7905C447.89 59.7094 447.638 59.6239 447.423 59.5294C447.207 59.4393 447.046 59.3448 446.933 59.2502C446.821 59.1557 446.731 59.0071 446.668 58.809C446.605 58.6109 446.56 58.3138 446.529 57.9176C446.502 57.6115 446.493 57.3594 446.493 57.1613C446.493 56.9632 446.515 56.8056 446.551 56.6931C446.587 56.5805 446.637 56.504 446.704 56.459C446.767 56.4139 446.848 56.3869 446.938 56.3779C447.054 56.3689 447.234 56.4229 447.472 56.54C447.71 56.6571 448.016 56.7831 448.384 56.9137C448.752 57.0487 449.197 57.1613 449.714 57.2558C450.23 57.3504 450.832 57.3729 451.515 57.3189C452.584 57.2333 453.361 56.9767 453.846 56.5445C454.336 56.1123 454.552 55.5721 454.498 54.9238C454.462 54.4916 454.323 54.1449 454.075 53.8838C453.828 53.6227 453.509 53.4021 453.119 53.2175C452.728 53.0374 452.292 52.8799 451.807 52.7493C451.326 52.6187 450.828 52.4792 450.32 52.3306C449.813 52.182 449.314 51.9975 448.824 51.7859C448.335 51.5698 447.886 51.2951 447.481 50.9575C447.077 50.6198 446.74 50.1921 446.475 49.6879C446.21 49.1792 446.044 48.5534 445.985 47.8061C445.931 47.1308 445.994 46.5095 446.179 45.9377C446.363 45.366 446.65 44.8572 447.046 44.4115C447.441 43.9658 447.939 43.5877 448.546 43.2815C449.152 42.9754 449.844 42.7458 450.63 42.5927L450.684 39.86C450.689 39.7879 450.702 39.7249 450.733 39.6709C450.76 39.6169 450.814 39.5673 450.9 39.5223C450.985 39.4773 451.097 39.4368 451.241 39.4053C451.385 39.3738 451.578 39.3512 451.811 39.3332C452.094 39.3107 452.328 39.3062 452.521 39.3197C452.71 39.3332 452.858 39.3602 452.961 39.4008C453.065 39.4413 453.132 39.5043 453.168 39.5808C453.204 39.6574 453.222 39.7474 453.231 39.8465L453.164 42.4171C453.424 42.4351 453.694 42.4621 453.981 42.5027C454.269 42.5432 454.538 42.5972 454.794 42.6602C455.046 42.7278 455.279 42.7998 455.486 42.8763C455.693 42.9529 455.841 43.0294 455.922 43.1014C456.007 43.1735 456.07 43.2455 456.119 43.3175C456.164 43.3896 456.205 43.4841 456.236 43.5922C456.268 43.7047 456.294 43.8353 456.317 43.9928C456.339 44.1504 456.357 44.3305 456.375 44.5376C456.398 44.8167 456.411 45.0463 456.411 45.2264C456.411 45.4065 456.398 45.546 456.371 45.6451C456.344 45.7441 456.308 45.8072 456.263 45.8432C456.218 45.8792 456.169 45.8972 456.101 45.9017C455.985 45.9107 455.805 45.8657 455.567 45.7666C455.329 45.6676 455.037 45.564 454.695 45.456C454.349 45.348 453.959 45.2534 453.514 45.1679C453.074 45.0868 452.589 45.0643 452.072 45.1048C451.596 45.1409 451.196 45.2174 450.864 45.3344C450.531 45.4515 450.271 45.6001 450.073 45.7756C449.875 45.9557 449.736 46.1583 449.655 46.3924C449.574 46.6265 449.543 46.8786 449.566 47.1443C449.601 47.5675 449.741 47.9141 449.992 48.1842C450.244 48.4544 450.567 48.6795 450.963 48.855C451.358 49.0306 451.803 49.1882 452.297 49.3187C452.791 49.4538 453.289 49.5934 453.806 49.7419C454.318 49.8905 454.826 50.0706 455.324 50.2822C455.823 50.4938 456.272 50.7639 456.676 51.097C457.081 51.4302 457.417 51.8489 457.687 52.3486C457.974 52.8618 458.136 53.4741 458.195 54.2034Z" fill="#FEA600"/>
<path d="M464.464 40.1391L466.728 41.3817L464.464 42.6243L463.224 44.8933L461.985 42.6243L459.721 41.3817L461.985 40.1391L463.224 37.8701L464.464 40.1391Z" fill="white"/>
<path d="M460.84 47.8916L462.264 48.675L460.84 49.4538L460.058 50.8855L459.281 49.4538L457.853 48.675L459.281 47.8916L460.058 46.4645L460.84 47.8916Z" fill="white"/>
<path d="M469.091 46.0683L471.26 47.2568L469.091 48.4453L467.905 50.6243L466.715 48.4453L464.545 47.2568L466.715 46.0683L467.905 43.8893L469.091 46.0683Z" fill="white"/>
</g>
<g clip-path="url(#clip1)">
<path d="M597 378.003C604.18 378.003 610 372.406 610 365.501C610 358.597 604.18 353 597 353C589.82 353 584 358.597 584 365.501C584 372.406 589.82 378.003 597 378.003Z" fill="#FEBF00"/>
<path d="M597 375.999C603.03 375.999 607.917 371.299 607.917 365.501C607.917 359.704 603.03 355.004 597 355.004C590.971 355.004 586.083 359.704 586.083 365.501C586.083 371.299 590.971 375.999 597 375.999Z" fill="#FEBF00"/>
<path opacity="0.1" d="M597 375.999C603.03 375.999 607.917 371.299 607.917 365.501C607.917 359.704 603.03 355.004 597 355.004C590.971 355.004 586.083 359.704 586.083 365.501C586.083 371.299 590.971 375.999 597 375.999Z" fill="black"/>
<path d="M597 375.409C602.691 375.409 607.305 370.973 607.305 365.501C607.305 360.03 602.691 355.594 597 355.594C591.308 355.594 586.694 360.03 586.694 365.501C586.694 370.973 591.308 375.409 597 375.409Z" fill="#FCD721"/>
<path d="M600.834 367.148C600.873 367.621 600.823 368.052 600.681 368.444C600.539 368.837 600.323 369.183 600.031 369.479C599.736 369.778 599.374 370.028 598.941 370.226C598.51 370.426 598.023 370.569 597.483 370.654L597.45 372.427C597.447 372.471 597.439 372.512 597.422 372.545C597.406 372.581 597.372 372.611 597.319 372.636C597.267 372.661 597.197 372.685 597.102 372.707C597.011 372.729 596.894 372.743 596.752 372.754C596.571 372.768 596.427 372.77 596.313 372.762C596.202 372.754 596.113 372.738 596.049 372.713C595.985 372.688 595.94 372.65 595.915 372.603C595.89 372.556 595.882 372.501 595.89 372.438L595.929 370.756C595.684 370.742 595.451 370.717 595.234 370.681C595.014 370.646 594.817 370.605 594.636 370.555C594.455 370.506 594.299 370.454 594.166 370.396C594.033 370.341 593.932 370.283 593.863 370.226C593.793 370.168 593.738 370.077 593.699 369.957C593.66 369.836 593.632 369.655 593.613 369.413C593.596 369.227 593.59 369.073 593.59 368.952C593.59 368.831 593.604 368.735 593.627 368.666C593.649 368.598 593.679 368.551 593.721 368.524C593.76 368.496 593.81 368.48 593.866 368.474C593.938 368.469 594.049 368.502 594.197 368.573C594.344 368.645 594.533 368.721 594.761 368.801C594.989 368.883 595.264 368.952 595.584 369.01C595.904 369.067 596.277 369.081 596.699 369.048C597.361 368.996 597.842 368.839 598.142 368.576C598.446 368.312 598.579 367.983 598.546 367.588C598.523 367.324 598.437 367.113 598.284 366.954C598.131 366.794 597.934 366.66 597.692 366.547C597.45 366.437 597.18 366.341 596.88 366.262C596.582 366.182 596.274 366.097 595.96 366.006C595.645 365.916 595.337 365.803 595.034 365.674C594.73 365.543 594.452 365.375 594.202 365.169C593.952 364.963 593.743 364.703 593.579 364.395C593.415 364.085 593.312 363.703 593.276 363.248C593.243 362.836 593.282 362.457 593.396 362.108C593.51 361.76 593.688 361.45 593.932 361.178C594.177 360.906 594.486 360.675 594.861 360.489C595.237 360.302 595.665 360.162 596.151 360.069L596.185 358.402C596.188 358.358 596.196 358.32 596.215 358.287C596.232 358.254 596.265 358.224 596.318 358.197C596.371 358.169 596.441 358.144 596.53 358.125C596.619 358.106 596.738 358.092 596.883 358.081C597.058 358.068 597.203 358.065 597.322 358.073C597.439 358.081 597.531 358.098 597.595 358.122C597.659 358.147 597.7 358.186 597.723 358.232C597.745 358.279 597.756 358.334 597.762 358.394L597.72 359.962C597.881 359.973 598.048 359.989 598.226 360.014C598.404 360.039 598.571 360.071 598.729 360.11C598.885 360.151 599.03 360.195 599.157 360.242C599.285 360.288 599.377 360.335 599.427 360.379C599.48 360.423 599.519 360.467 599.55 360.511C599.577 360.555 599.602 360.612 599.622 360.678C599.641 360.747 599.658 360.826 599.672 360.922C599.686 361.019 599.697 361.128 599.708 361.255C599.722 361.425 599.73 361.565 599.73 361.675C599.73 361.784 599.722 361.87 599.705 361.93C599.689 361.99 599.666 362.029 599.639 362.051C599.611 362.073 599.58 362.084 599.538 362.086C599.466 362.092 599.355 362.064 599.207 362.004C599.06 361.944 598.879 361.881 598.668 361.815C598.454 361.749 598.212 361.691 597.937 361.639C597.664 361.59 597.364 361.576 597.044 361.6C596.749 361.622 596.502 361.669 596.296 361.741C596.09 361.812 595.929 361.902 595.807 362.01C595.684 362.119 595.598 362.243 595.548 362.386C595.498 362.528 595.479 362.682 595.492 362.844C595.515 363.102 595.601 363.313 595.757 363.478C595.912 363.643 596.113 363.78 596.357 363.887C596.602 363.994 596.877 364.09 597.183 364.17C597.489 364.252 597.798 364.337 598.117 364.428C598.434 364.519 598.749 364.628 599.057 364.757C599.366 364.886 599.644 365.051 599.894 365.254C600.145 365.457 600.353 365.713 600.52 366.017C600.698 366.33 600.798 366.704 600.834 367.148Z" fill="#FEA600"/>
<path d="M604.717 358.573L606.118 359.33L604.717 360.088L603.949 361.472L603.182 360.088L601.78 359.33L603.182 358.573L603.949 357.189L604.717 358.573Z" fill="white"/>
<path d="M602.472 363.3L603.354 363.777L602.472 364.252L601.988 365.125L601.507 364.252L600.623 363.777L601.507 363.3L601.988 362.43L602.472 363.3Z" fill="white"/>
<path d="M607.581 362.188L608.924 362.913L607.581 363.637L606.847 364.966L606.11 363.637L604.767 362.913L606.11 362.188L606.847 360.859L607.581 362.188Z" fill="white"/>
</g>
<g clip-path="url(#clip2)">
<path d="M321.446 376.128C320.733 376.251 320.022 376.365 319.31 376.471L319.153 375.41C319.857 375.306 320.559 375.193 321.264 375.071L321.446 376.128ZM323.577 375.734L323.369 374.683C324.071 374.544 324.767 374.399 325.462 374.245L325.694 375.292C324.99 375.444 324.282 375.591 323.577 375.734ZM317.166 376.766C316.446 376.856 315.73 376.937 315.016 377.01L314.909 375.944C315.615 375.873 316.327 375.792 317.034 375.704L317.166 376.766ZM327.797 374.798L327.541 373.759C328.237 373.588 328.927 373.41 329.612 373.224L329.892 374.258C329.199 374.442 328.501 374.625 327.797 374.798ZM312.861 377.2C312.14 377.257 311.421 377.305 310.7 377.34L310.644 376.269C311.355 376.231 312.066 376.185 312.778 376.129L312.861 377.2ZM331.977 373.661L331.668 372.637C332.354 372.434 333.033 372.223 333.712 372.005L334.045 373.021C333.358 373.241 332.671 373.457 331.977 373.661ZM308.536 377.435C307.813 377.458 307.092 377.468 306.37 377.474L306.368 376.401C307.078 376.398 307.794 376.384 308.505 376.363L308.536 377.435ZM336.095 372.332L335.737 371.321C336.413 371.086 337.083 370.844 337.747 370.594L338.129 371.596C337.455 371.844 336.778 372.092 336.095 372.332ZM304.21 377.457C303.489 377.442 302.767 377.423 302.047 377.395L302.097 376.325C302.809 376.355 303.519 376.376 304.235 376.388L304.21 377.457ZM340.143 370.804L339.738 369.815C340.399 369.548 341.057 369.27 341.711 368.988L342.14 369.969C341.479 370.257 340.816 370.536 340.143 370.804ZM299.886 377.276C299.167 377.227 298.446 377.173 297.728 377.106L297.831 376.04C298.54 376.104 299.252 376.159 299.962 376.206L299.886 377.276ZM344.117 369.087L343.663 368.114C344.31 367.817 344.955 367.511 345.595 367.198L346.071 368.157C345.424 368.476 344.772 368.787 344.117 369.087ZM295.579 376.888C294.857 376.805 294.14 376.717 293.424 376.616L293.575 375.558C294.282 375.656 294.991 375.746 295.703 375.826L295.579 376.888ZM348 367.182L347.5 366.235C348.133 365.906 348.764 365.569 349.385 365.225L349.908 366.159C349.275 366.509 348.64 366.847 348 367.182ZM291.276 376.292C290.561 376.174 289.849 376.05 289.14 375.914L289.343 374.863C290.044 374.997 290.747 375.117 291.452 375.233L291.276 376.292ZM351.791 365.095L351.244 364.174C351.862 363.814 352.47 363.447 353.078 363.076L353.643 363.985C353.033 364.361 352.412 364.73 351.791 365.095ZM287.016 375.488C286.308 375.339 285.602 375.176 284.9 375.009L285.157 373.969C285.85 374.134 286.547 374.294 287.246 374.44L287.016 375.488ZM355.467 362.83L354.877 361.933C355.474 361.548 356.064 361.154 356.649 360.754L357.261 361.633C356.664 362.04 356.066 362.439 355.467 362.83ZM282.797 374.486C282.099 374.301 281.4 374.107 280.709 373.909L281.016 372.881C281.699 373.081 282.388 373.272 283.077 373.454L282.797 374.486ZM359.022 360.4L358.391 359.533C358.969 359.116 359.538 358.697 360.105 358.27L360.758 359.121C360.184 359.554 359.603 359.979 359.022 360.4ZM362.46 357.797L361.789 356.963C362.345 356.521 362.895 356.071 363.44 355.619L364.134 356.436C363.578 356.899 363.02 357.35 362.46 357.797ZM278.637 373.277C277.947 373.061 277.264 372.836 276.583 372.601L276.939 371.589C277.615 371.821 278.29 372.044 278.971 372.257L278.637 373.277ZM365.767 355.036L365.054 354.235C365.588 353.767 366.116 353.292 366.64 352.814L367.371 353.599C366.844 354.082 366.308 354.563 365.767 355.036ZM274.545 371.874C273.87 371.626 273.193 371.365 272.523 371.098L272.926 370.104C273.586 370.368 274.254 370.622 274.919 370.868L274.545 371.874ZM368.942 352.121L368.192 351.352C368.705 350.859 369.208 350.363 369.709 349.855L370.476 350.604C369.972 351.117 369.462 351.622 368.942 352.121ZM270.524 370.28C269.861 369.999 269.2 369.71 268.545 369.411L268.999 368.437C269.648 368.732 270.299 369.015 270.954 369.297L270.524 370.28ZM371.974 349.059L371.189 348.326C371.675 347.808 372.156 347.286 372.633 346.761L373.436 347.474C372.956 348.004 372.468 348.535 371.974 349.059ZM266.588 368.496C265.94 368.183 265.294 367.861 264.656 367.534L265.152 366.581C265.785 366.905 266.421 367.22 267.064 367.53L266.588 368.496ZM374.857 345.854L374.036 345.162C374.497 344.623 374.952 344.077 375.402 343.527L376.241 344.199C375.788 344.758 375.324 345.306 374.857 345.854ZM262.746 366.525C262.113 366.179 261.484 365.829 260.862 365.473L261.405 364.546C262.022 364.898 262.642 365.246 263.265 365.585L262.746 366.525ZM377.585 342.513L376.729 341.861C377.165 341.301 377.595 340.734 378.016 340.164L378.885 340.797C378.462 341.376 378.024 341.949 377.585 342.513ZM259.004 364.378C258.387 364.005 257.778 363.625 257.171 363.237L257.758 362.335C258.355 362.717 258.959 363.093 259.566 363.46L259.004 364.378ZM380.15 339.049L379.267 338.436C379.677 337.856 380.079 337.273 380.474 336.682L381.375 337.275C380.968 337.872 380.564 338.464 380.15 339.049ZM255.37 362.055C254.775 361.656 254.186 361.247 253.595 360.831L254.226 359.959C254.807 360.369 255.39 360.771 255.977 361.171L255.37 362.055ZM382.547 335.468L381.634 334.899C382.015 334.298 382.387 333.695 382.754 333.089L383.681 333.634C383.311 334.25 382.932 334.862 382.547 335.468ZM251.856 359.565C251.281 359.137 250.708 358.7 250.143 358.257L250.813 357.417C251.373 357.856 251.936 358.283 252.502 358.708L251.856 359.565ZM384.771 331.779L383.831 331.252C384.184 330.636 384.527 330.017 384.865 329.39L385.818 329.893C385.472 330.525 385.126 331.153 384.771 331.779ZM248.465 356.913C247.91 356.456 247.363 355.997 246.819 355.529L247.53 354.719C248.069 355.184 248.611 355.639 249.156 356.09L248.465 356.913ZM386.813 327.983L385.847 327.504C386.171 326.872 386.481 326.233 386.791 325.595L387.765 326.051C387.457 326.702 387.14 327.346 386.813 327.983ZM245.208 354.1C244.679 353.621 244.152 353.133 243.633 352.639L244.38 351.865C244.894 352.356 245.415 352.836 245.939 353.308L245.208 354.1ZM388.675 324.098L387.688 323.665C387.979 323.017 388.261 322.367 388.538 321.714L389.534 322.124C389.254 322.786 388.968 323.441 388.675 324.098ZM242.09 351.143C241.582 350.639 241.081 350.125 240.588 349.609L241.371 348.871C241.86 349.383 242.355 349.89 242.858 350.386L242.09 351.143ZM390.346 320.129L389.342 319.742C389.601 319.083 389.85 318.418 390.095 317.749L391.112 318.113C390.86 318.787 390.608 319.461 390.346 320.129ZM239.121 348.035C238.638 347.505 238.163 346.974 237.695 346.432L238.515 345.73C238.982 346.263 239.451 346.791 239.924 347.314L239.121 348.035ZM391.823 316.081L390.799 315.744C391.025 315.071 391.243 314.398 391.456 313.719L392.489 314.033C392.273 314.717 392.052 315.398 391.823 316.081ZM236.307 344.797C235.85 344.245 235.401 343.692 234.959 343.129L235.812 342.467C236.248 343.022 236.692 343.572 237.143 344.117L236.307 344.797ZM233.656 341.427C233.23 340.857 232.806 340.278 232.391 339.697L233.273 339.076C233.683 339.649 234.101 340.221 234.521 340.784L233.656 341.427ZM393.104 311.964L392.067 311.676C392.262 310.995 392.447 310.308 392.624 309.622L393.67 309.887C393.486 310.582 393.297 311.275 393.104 311.964ZM231.168 337.938C230.768 337.346 230.376 336.752 229.99 336.149L230.902 335.569C231.285 336.164 231.672 336.755 232.066 337.335L231.168 337.938ZM394.182 307.795L393.128 307.557C393.287 306.866 393.442 306.171 393.587 305.478L394.645 305.69C394.497 306.396 394.344 307.095 394.182 307.795ZM228.853 334.323C228.484 333.713 228.118 333.098 227.759 332.473L228.695 331.939C229.048 332.552 229.409 333.16 229.777 333.767L228.853 334.323ZM395.058 303.574L393.996 303.384C394.124 302.686 394.243 301.985 394.353 301.282L395.418 301.446C395.306 302.158 395.184 302.868 395.058 303.574ZM226.711 330.6C226.368 329.972 226.037 329.338 225.71 328.699L226.672 328.211C226.994 328.843 227.324 329.469 227.661 330.09L226.711 330.6ZM395.726 299.315L394.657 299.177C394.75 298.477 394.834 297.775 394.909 297.07L395.982 297.181C395.905 297.895 395.818 298.607 395.726 299.315ZM224.755 326.775C224.444 326.133 224.145 325.484 223.849 324.831L224.833 324.39C225.123 325.036 225.425 325.676 225.731 326.311L224.755 326.775ZM396.187 295.044L395.11 294.958C395.169 294.256 395.217 293.547 395.259 292.844L396.335 292.904C396.295 293.616 396.244 294.333 396.187 295.044ZM222.985 322.865C222.706 322.208 222.438 321.545 222.173 320.877L223.179 320.484C223.437 321.144 223.708 321.799 223.982 322.448L222.985 322.865ZM396.435 290.757L395.355 290.723C395.378 290.019 395.393 289.312 395.399 288.602L396.479 288.611C396.475 289.328 396.461 290.043 396.435 290.757ZM221.409 318.872C221.161 318.201 220.926 317.528 220.694 316.85L221.716 316.504C221.943 317.175 222.182 317.843 222.423 318.503L221.409 318.872ZM396.476 286.465L395.397 286.482C395.386 285.776 395.367 285.071 395.34 284.364L396.418 284.321C396.448 285.037 396.464 285.751 396.476 286.465ZM220.029 314.805C219.818 314.123 219.61 313.441 219.414 312.747L220.454 312.449C220.648 313.13 220.851 313.81 221.065 314.483L220.029 314.805ZM396.309 282.174L395.23 282.242C395.186 281.537 395.133 280.835 395.071 280.129L396.144 280.033C396.212 280.75 396.267 281.461 396.309 282.174ZM218.848 310.68C218.669 309.988 218.498 309.294 218.331 308.596L219.385 308.35C219.547 309.041 219.716 309.727 219.894 310.411L218.848 310.68ZM395.938 277.899L394.866 278.021C394.787 277.319 394.701 276.618 394.606 275.919L395.678 275.772C395.77 276.48 395.859 277.193 395.938 277.899ZM217.867 306.501C217.721 305.803 217.582 305.099 217.448 304.394L218.511 304.198C218.64 304.895 218.776 305.587 218.921 306.277L217.867 306.501ZM395.358 273.646L394.29 273.818C394.179 273.122 394.059 272.427 393.93 271.73L393.904 271.586L394.967 271.39L394.993 271.529C395.124 272.239 395.245 272.942 395.358 273.646ZM218.151 302.11L217.083 302.282C216.97 301.573 216.865 300.867 216.768 300.16L217.841 300.013C217.931 300.713 218.035 301.41 218.151 302.11ZM393.49 269.508C393.345 268.814 393.192 268.125 393.027 267.439L394.08 267.189C394.243 267.885 394.401 268.581 394.548 269.283L393.49 269.508ZM217.577 297.911L216.504 298.033C216.424 297.322 216.352 296.61 216.289 295.897L217.366 295.799C217.423 296.501 217.498 297.205 217.577 297.911ZM392.518 265.378C392.34 264.694 392.15 264.013 391.956 263.332L392.992 263.034C393.191 263.719 393.379 264.409 393.563 265.105L392.518 265.378ZM217.202 293.684L216.125 293.755C216.078 293.039 216.04 292.325 216.016 291.612L217.094 291.566C217.122 292.273 217.158 292.979 217.202 293.684ZM391.346 261.303C391.135 260.625 390.913 259.953 390.687 259.287L391.71 258.941C391.941 259.615 392.161 260.295 392.377 260.981L391.346 261.303ZM217.036 289.447L215.958 289.468C215.945 288.75 215.946 288.037 215.951 287.324L217.031 287.332C217.023 288.033 217.025 288.741 217.036 289.447ZM389.98 257.288C389.738 256.625 389.483 255.963 389.225 255.307L390.23 254.913C390.494 255.577 390.746 256.247 390.994 256.918L389.98 257.288ZM217.075 285.207L215.994 285.174C216.016 284.457 216.051 283.742 216.091 283.031L217.167 283.091C217.13 283.793 217.098 284.499 217.075 285.207ZM388.421 253.343C388.147 252.69 387.86 252.043 387.571 251.401L388.555 250.96C388.85 251.61 389.138 252.265 389.418 252.926L388.421 253.343ZM217.315 280.973L216.238 280.887C216.299 280.172 216.364 279.46 216.438 278.751L217.511 278.862C217.44 279.563 217.373 280.266 217.315 280.973ZM386.673 249.48C386.362 248.841 386.048 248.208 385.727 247.58L386.69 247.093C387.017 247.728 387.336 248.369 387.648 249.015L386.673 249.48ZM217.767 276.749L216.699 276.616C216.794 275.903 216.894 275.193 217.006 274.481L218.071 274.641C217.961 275.344 217.86 276.045 217.767 276.749ZM384.734 245.702C384.397 245.082 384.052 244.463 383.699 243.849L384.636 243.316C384.994 243.937 385.345 244.559 385.684 245.192L384.734 245.702ZM218.424 272.544L217.363 272.358C217.489 271.652 217.628 270.943 217.772 270.242L218.829 270.454C218.683 271.147 218.552 271.846 218.424 272.544ZM382.614 242.026C382.245 241.42 381.869 240.819 381.486 240.229L382.397 239.649C382.782 240.252 383.163 240.856 383.538 241.47L382.614 242.026ZM219.283 268.373L218.23 268.135C218.391 267.435 218.562 266.737 218.742 266.042L219.787 266.303C219.615 266.992 219.447 267.681 219.283 268.373ZM380.325 238.462C379.931 237.878 379.525 237.299 379.119 236.725L380.001 236.104C380.416 236.685 380.824 237.271 381.225 237.863L380.325 238.462ZM220.349 264.252L219.308 263.965C219.506 263.276 219.708 262.585 219.924 261.901L220.957 262.215C220.744 262.89 220.54 263.568 220.349 264.252ZM377.866 235.014C377.441 234.448 377.013 233.891 376.576 233.335L377.425 232.674C377.867 233.233 378.305 233.801 378.732 234.375L377.866 235.014ZM221.609 260.186L220.584 259.849C220.813 259.166 221.052 258.49 221.296 257.817L222.312 258.177C222.072 258.845 221.835 259.512 221.609 260.186ZM375.241 231.686C374.789 231.142 374.33 230.603 373.868 230.069L374.688 229.366C375.156 229.908 375.62 230.45 376.077 231.001L375.241 231.686ZM223.065 256.184L222.057 255.798C222.318 255.13 222.589 254.465 222.869 253.803L223.864 254.213C223.591 254.866 223.324 255.526 223.065 256.184ZM372.456 228.489C371.978 227.967 371.493 227.45 371.005 226.938L371.789 226.199C372.282 226.714 372.772 227.239 373.255 227.769L372.456 228.489ZM224.715 252.262L223.728 251.829C224.022 251.172 224.325 250.523 224.633 249.872L225.607 250.328C225.302 250.97 225.006 251.614 224.715 252.262ZM369.519 225.422C369.016 224.921 368.51 224.429 367.997 223.943L368.743 223.169C369.262 223.663 369.778 224.161 370.286 224.665L369.519 225.422ZM226.547 248.42L225.581 247.941C225.908 247.3 226.24 246.666 226.58 246.03L227.533 246.533C227.199 247.159 226.871 247.788 226.547 248.42ZM366.438 222.5C365.914 222.025 365.382 221.555 364.844 221.094L365.554 220.284C366.098 220.752 366.635 221.226 367.169 221.708L366.438 222.5ZM228.563 244.672L227.623 244.145C227.978 243.52 228.343 242.901 228.712 242.286L229.639 242.831C229.272 243.442 228.914 244.051 228.563 244.672ZM363.218 219.727C362.668 219.278 362.116 218.833 361.556 218.397L362.227 217.557C362.792 217.999 363.354 218.447 363.908 218.9L363.218 219.727ZM230.759 241.021L229.845 240.452C230.23 239.847 230.623 239.244 231.022 238.644L231.922 239.233C231.526 239.824 231.136 240.421 230.759 241.021ZM359.867 217.106C359.297 216.681 358.724 216.265 358.143 215.855L358.774 214.984C359.359 215.397 359.942 215.82 360.517 216.248L359.867 217.106ZM233.121 237.48L232.234 236.868C232.647 236.279 233.066 235.696 233.494 235.121L234.364 235.754C233.947 236.323 233.532 236.9 233.121 237.48ZM356.389 214.648C355.798 214.252 355.204 213.861 354.607 213.48L355.194 212.578C355.8 212.967 356.399 213.361 356.995 213.76L356.389 214.648ZM235.655 234.056L234.799 233.404C235.237 232.836 235.685 232.273 236.143 231.718L236.982 232.39C236.531 232.94 236.09 233.492 235.655 234.056ZM352.8 212.359C352.193 211.991 351.579 211.63 350.962 211.277L351.505 210.35C352.132 210.709 352.751 211.074 353.363 211.445L352.8 212.359ZM238.348 230.755L237.527 230.063C237.996 229.518 238.469 228.977 238.948 228.443L239.755 229.155C239.275 229.681 238.809 230.216 238.348 230.755ZM349.101 210.238C348.478 209.899 347.848 209.566 347.215 209.246L347.711 208.294C348.353 208.62 348.989 208.957 349.621 209.298L349.101 210.238ZM241.194 227.583L240.405 226.855C240.898 226.331 241.398 225.815 241.902 225.302L242.673 226.05C242.172 226.558 241.68 227.069 241.194 227.583ZM345.302 208.293C344.659 207.983 344.017 207.682 343.369 207.39L343.818 206.417C344.476 206.715 345.127 207.019 345.775 207.332L345.302 208.293ZM244.185 224.554L243.432 223.789C243.948 223.291 244.473 222.8 245.003 222.312L245.738 223.096C245.215 223.575 244.697 224.06 244.185 224.554ZM341.41 206.535C340.755 206.257 340.098 205.988 339.433 205.725L339.836 204.73C340.505 204.997 341.171 205.268 341.836 205.553L341.41 206.535ZM247.319 221.672L246.607 220.87C247.148 220.397 247.69 219.928 248.243 219.47L248.937 220.287C248.393 220.744 247.853 221.204 247.319 221.672ZM337.435 204.962C336.77 204.716 336.096 204.475 335.421 204.248L335.778 203.236C336.463 203.47 337.14 203.71 337.816 203.963L337.435 204.962ZM250.588 218.939L249.916 218.105C250.48 217.657 251.045 217.218 251.618 216.781L252.272 217.631C251.705 218.063 251.145 218.501 250.588 218.939ZM333.394 203.579C332.713 203.365 332.033 203.16 331.346 202.96L331.652 201.932C332.343 202.131 333.037 202.343 333.723 202.559L333.394 203.579ZM253.981 216.37L253.346 215.503C253.927 215.082 254.515 214.672 255.107 214.266L255.719 215.146C255.138 215.545 254.559 215.954 253.981 216.37ZM329.281 202.392C328.593 202.209 327.898 202.036 327.204 201.872L327.461 200.828C328.163 200.995 328.863 201.171 329.561 201.356L329.281 202.392ZM257.494 213.965L256.905 213.069C257.505 212.678 258.114 212.294 258.724 211.914L259.294 212.823C258.688 213.198 258.09 213.575 257.494 213.965ZM325.115 201.401C324.416 201.254 323.718 201.112 323.014 200.979L323.217 199.927C323.93 200.059 324.637 200.204 325.345 200.353L325.115 201.401ZM261.124 211.725L260.577 210.804C261.199 210.439 261.826 210.086 262.459 209.736L262.982 210.67C262.357 211.014 261.738 211.366 261.124 211.725ZM320.905 200.609C320.199 200.493 319.494 200.386 318.783 200.288L318.934 199.23C319.65 199.331 320.367 199.436 321.081 199.55L320.905 200.609ZM264.862 209.657L264.362 208.71C265.002 208.375 265.643 208.049 266.291 207.734L266.767 208.694C266.132 209.006 265.494 209.328 264.862 209.657ZM316.655 200.024C315.947 199.942 315.241 199.869 314.528 199.81L314.626 198.744C315.345 198.811 316.064 198.882 316.78 198.962L316.655 200.024ZM268.698 207.773L268.245 206.801C268.899 206.498 269.555 206.203 270.221 205.919L270.65 206.9C269.996 207.182 269.344 207.472 268.698 207.773ZM312.397 199.644C311.686 199.597 310.977 199.558 310.262 199.529L310.308 198.46C311.028 198.488 311.75 198.529 312.469 198.574L312.397 199.644ZM272.624 206.073L272.219 205.083C272.887 204.811 273.558 204.552 274.234 204.295L274.615 205.294C273.947 205.544 273.285 205.807 272.624 206.073ZM308.125 199.47C307.412 199.457 306.701 199.453 305.988 199.458L305.982 198.385C306.704 198.379 307.428 198.386 308.145 198.397L308.125 199.47ZM276.623 204.562L276.265 203.551C276.944 203.311 277.629 203.083 278.315 202.859L278.648 203.875C277.97 204.097 277.294 204.328 276.623 204.562ZM303.847 199.497C303.136 199.517 302.423 199.547 301.712 199.586L301.655 198.514C302.375 198.475 303.096 198.443 303.815 198.421L303.847 199.497ZM280.692 203.243L280.383 202.218C281.073 202.014 281.767 201.814 282.464 201.626L282.749 202.659C282.06 202.846 281.373 203.04 280.692 203.243ZM299.578 199.729C298.869 199.784 298.158 199.847 297.448 199.919L297.341 198.853C298.059 198.78 298.778 198.715 299.495 198.659L299.578 199.729ZM284.818 202.12L284.562 201.081C285.262 200.91 285.963 200.742 286.67 200.586L286.906 201.633C286.202 201.784 285.51 201.95 284.818 202.12ZM295.325 200.167C294.618 200.255 293.913 200.351 293.205 200.461L293.048 199.4C293.764 199.293 294.478 199.195 295.193 199.106L295.325 200.167ZM288.99 201.193L288.778 200.142C289.171 200.065 289.551 199.991 289.956 199.916C290.27 199.858 290.589 199.799 290.904 199.745L291.086 200.801C290.755 200.858 290.428 200.919 290.093 200.981C289.729 201.048 289.36 201.116 288.99 201.193Z" fill="url(#paint4_linear)"/>
<path d="M319.582 355.999C301.328 359.37 282.866 355.493 267.595 345.08C252.324 334.667 242.074 318.967 238.732 300.871C235.39 282.775 239.356 264.449 249.901 249.269C260.446 234.088 276.305 223.873 294.558 220.502C312.812 217.131 331.274 221.008 346.545 231.421C361.816 241.834 372.066 257.534 375.408 275.63C378.75 293.726 374.784 312.052 364.239 327.232C353.694 342.412 337.835 352.628 319.582 355.999ZM294.695 221.24C257.423 228.123 232.65 263.788 239.474 300.738C246.298 337.689 282.175 362.152 319.447 355.269C356.719 348.386 381.492 312.721 374.668 275.771C367.843 238.816 331.971 214.356 294.695 221.24Z" fill="url(#paint5_linear)"/>
<path d="M235.32 253.343L236.503 250.928L240.514 252.883C240.639 253.63 240.639 254.407 240.495 255.231C240.36 256.055 240.11 256.822 239.764 257.531C239.273 258.537 238.61 259.342 237.782 259.946C236.955 260.549 236.051 260.885 235.06 260.981C234.07 261.067 233.088 260.875 232.127 260.406C231.155 259.936 230.405 259.285 229.866 258.451C229.327 257.617 229.029 256.697 229 255.672C228.972 254.646 229.212 253.621 229.712 252.586C230.155 251.685 230.703 250.947 231.357 250.382C232.011 249.816 232.742 249.433 233.55 249.232L234.272 251.733C233.233 252.04 232.492 252.643 232.05 253.554C231.646 254.378 231.569 255.173 231.828 255.921C232.078 256.668 232.627 257.253 233.473 257.655C234.012 257.914 234.541 258.029 235.07 258.01C235.599 257.981 236.09 257.818 236.522 257.521C236.965 257.224 237.311 256.802 237.571 256.275C237.831 255.748 237.965 255.212 237.975 254.646L235.32 253.343Z" fill="#FC7B04"/>
<path d="M245.102 243.472L247.084 244.747L242.399 251.992L233.348 246.175L237.926 239.102L239.908 240.377L236.964 244.929L238.494 245.906L241.091 241.901L243.005 243.127L240.408 247.133L242.062 248.197L245.102 243.472Z" fill="#FC7B04"/>
<path d="M239.61 236.841L241.544 234.493L247.998 239.783L251.259 235.825L253.125 237.349L247.931 243.654L239.61 236.841Z" fill="#FC7B04"/>
<path d="M246.401 228.781L250.162 225.351C251.038 224.555 251.952 224.019 252.923 223.722C253.895 223.434 254.837 223.415 255.761 223.674C256.674 223.932 257.502 224.459 258.242 225.255C258.973 226.05 259.435 226.922 259.608 227.852C259.781 228.781 259.685 229.721 259.31 230.66C258.935 231.599 258.31 232.461 257.444 233.257L253.683 236.678L246.401 228.781ZM255.693 231.57C256.376 230.947 256.742 230.257 256.809 229.5C256.867 228.743 256.588 228.024 255.963 227.344C255.337 226.664 254.645 226.319 253.875 226.309C253.106 226.299 252.384 226.606 251.701 227.229L250.278 228.523L254.27 232.864L255.693 231.57Z" fill="#FC7B04"/>
<path d="M273.132 219.572L274.325 221.661L265.937 226.405L264.995 224.747L266.534 216.486L261.926 219.093L260.733 217.004L268.804 212.442L269.746 214.1L268.207 222.361L273.132 219.572Z" fill="#FC7B04"/>
<path d="M275.95 219.831C274.815 219.323 273.969 218.326 273.411 216.831L271.333 211.254L274.19 210.2L276.239 215.691C276.835 217.301 277.778 217.866 279.057 217.397C280.327 216.927 280.663 215.882 280.057 214.273L278.009 208.781L280.817 207.737L282.895 213.314C283.453 214.809 283.463 216.122 282.943 217.243C282.414 218.365 281.404 219.208 279.904 219.764C278.413 220.31 277.095 220.339 275.95 219.831Z" fill="#FC7B04"/>
<path d="M290.235 213.678L288.609 214.004L289.167 216.802L286.176 217.397L284.06 206.874L288.888 205.906C289.841 205.715 290.706 205.705 291.476 205.887C292.245 206.06 292.88 206.405 293.38 206.913C293.881 207.421 294.208 208.072 294.371 208.868C294.525 209.634 294.477 210.334 294.236 210.966C293.996 211.608 293.573 212.145 292.976 212.605L295.92 215.461L292.717 216.103L290.235 213.678ZM290.649 208.417C290.283 208.206 289.792 208.168 289.177 208.293L287.513 208.628L288.138 211.714L289.802 211.378C290.418 211.254 290.851 211.033 291.11 210.698C291.37 210.372 291.447 209.96 291.351 209.471C291.255 208.973 291.014 208.628 290.649 208.417Z" fill="#FC7B04"/>
<path d="M298.199 214.196C297.266 213.381 296.746 212.174 296.66 210.583L296.323 204.642L299.363 204.469L299.7 210.315C299.796 212.03 300.527 212.845 301.893 212.768C303.249 212.691 303.874 211.8 303.778 210.085L303.441 204.239L306.442 204.067L306.779 210.008C306.866 211.599 306.5 212.854 305.663 213.774C304.826 214.694 303.605 215.193 302.008 215.288C300.402 215.375 299.132 215.011 298.199 214.196ZM298.843 203.31C298.603 203.099 298.468 202.821 298.449 202.466C298.43 202.112 298.526 201.815 298.747 201.575C298.968 201.335 299.247 201.211 299.594 201.192C299.94 201.173 300.238 201.268 300.479 201.479C300.719 201.69 300.854 201.977 300.873 202.332C300.892 202.687 300.796 202.984 300.575 203.214C300.354 203.444 300.084 203.568 299.728 203.587C299.372 203.607 299.084 203.52 298.843 203.31ZM302.104 203.127C301.864 202.917 301.729 202.639 301.71 202.284C301.691 201.93 301.787 201.633 302.008 201.393C302.229 201.153 302.508 201.029 302.855 201.01C303.201 200.99 303.499 201.086 303.739 201.297C303.98 201.508 304.115 201.795 304.134 202.15C304.153 202.505 304.057 202.802 303.836 203.032C303.614 203.262 303.335 203.386 302.989 203.405C302.643 203.425 302.345 203.329 302.104 203.127Z" fill="#FC7B04"/>
<path d="M311.147 214.493C310.281 213.966 309.617 213.257 309.165 212.375C308.704 211.493 308.511 210.516 308.579 209.452C308.646 208.379 308.963 207.44 309.531 206.625C310.098 205.811 310.839 205.197 311.772 204.776C312.695 204.354 313.725 204.182 314.85 204.258C315.831 204.325 316.707 204.555 317.476 204.948C318.246 205.341 318.861 205.887 319.342 206.577L317.303 208.197C316.658 207.315 315.841 206.846 314.85 206.779C314.263 206.74 313.734 206.836 313.263 207.056C312.792 207.286 312.416 207.622 312.138 208.063C311.859 208.503 311.695 209.04 311.657 209.634C311.618 210.238 311.705 210.775 311.926 211.254C312.147 211.733 312.474 212.116 312.917 212.404C313.359 212.691 313.869 212.845 314.446 212.883C315.437 212.95 316.312 212.586 317.062 211.791L318.88 213.659C318.313 214.282 317.63 214.733 316.822 215.03C316.014 215.327 315.11 215.442 314.129 215.384C313.013 215.327 312.012 215.02 311.147 214.493Z" fill="#FC7B04"/>
<path d="M324.584 212.49L323.266 213.496L322.824 216.141L319.852 215.652L321.612 205.063L324.584 205.552L323.853 209.951L328.701 206.223L332.01 206.769L326.893 210.746L330.481 217.397L326.989 216.822L324.584 212.49Z" fill="#FC7B04"/>
<path d="M213.546 297.391L383.816 204.769L404.412 268.967L234.961 360.51L213.546 297.391Z" fill="#FCA804"/>
<path d="M234.727 361.567L212.781 296.871L213.282 296.596L384.057 203.698L405.167 269.494L404.672 269.759L234.727 361.567ZM214.311 297.907L235.187 359.45L403.655 268.441L383.571 205.836L214.311 297.907Z" fill="white"/>
<path d="M387.215 215.372L398.935 207.554L401.612 247.416L420.452 275.624L403.736 284.955L404.411 268.967L387.215 215.372Z" fill="#FF922E"/>
<path d="M403.113 286.24L403.841 269.009L386.477 214.898L399.408 206.27L402.149 247.13L421.439 276.01L403.113 286.24ZM387.953 215.851L404.982 268.93L404.358 283.669L419.461 275.239L401.07 247.703L398.462 208.841L387.953 215.851Z" fill="white"/>
<path d="M217.049 307.267L204.466 312.454L224.893 342.816L227.478 379.722L244.41 371.052L234.99 360.466L217.049 307.267Z" fill="#FF922E"/>
<path d="M252.729 268.893L249.093 269.039L246.921 266.148L245.924 269.624L242.477 270.786L245.495 272.791L245.537 276.401L248.401 274.163L251.875 275.23L250.621 271.844L252.729 268.893Z" fill="#FCA804"/>
<path d="M283.736 339.312L280.101 339.458L277.929 336.568L276.932 340.043L273.484 341.206L276.507 343.209L276.545 346.82L279.409 344.582L282.883 345.65L281.633 342.263L283.736 339.312Z" fill="#FCA804"/>
<path d="M317.244 346.009L313.608 346.151L311.436 343.261L310.439 346.736L306.992 347.903L310.01 349.907L310.052 353.513L312.916 351.279L316.39 352.343L315.136 348.96L317.244 346.009Z" fill="#FCA804"/>
<path d="M353.145 330.014L349.509 330.16L347.337 327.27L346.34 330.745L342.893 331.908L345.915 333.911L345.953 337.522L348.817 335.284L352.291 336.352L351.041 332.965L353.145 330.014Z" fill="#FCA804"/>
<path d="M372.19 296.901L368.55 297.043L366.382 294.152L365.385 297.627L361.934 298.795L364.956 300.794L364.998 304.404L367.863 302.17L371.332 303.235L370.082 299.848L372.19 296.901Z" fill="#FCA804"/>
<path d="M269.425 242.936L265.789 243.077L263.617 240.191L262.62 243.662L259.173 244.829L262.195 246.833L262.233 250.44L265.097 248.206L268.571 249.269L267.321 245.886L269.425 242.936Z" fill="#FCA804"/>
<path d="M295.289 227.128L291.654 227.273L289.481 224.383L288.485 227.858L285.037 229.021L288.056 231.025L288.098 234.635L290.961 232.397L294.436 233.465L293.182 230.079L295.289 227.128Z" fill="#FCA804"/>
<path d="M328.814 226.967L325.179 227.113L323.007 224.223L322.01 227.698L318.563 228.861L321.585 230.864L321.623 234.475L324.487 232.237L327.961 233.305L326.711 229.918L328.814 226.967Z" fill="#FCA804"/>
<path d="M273.39 325.539L264.47 330.114L249.88 301.985L242.432 309.014L238.959 302.322L252.827 287.897L253.646 287.476L273.39 325.539Z" fill="white"/>
<path d="M303.594 290.366C305.023 293.119 305.934 295.668 306.324 298.017C306.719 300.366 306.669 302.504 306.176 304.431C305.682 306.358 304.787 308.068 303.484 309.552C302.181 311.036 300.543 312.282 298.575 313.293C296.584 314.312 294.6 314.92 292.624 315.121C290.643 315.319 288.719 315.058 286.856 314.338C284.989 313.619 283.206 312.42 281.501 310.746C279.796 309.073 278.231 306.859 276.802 304.105L273.194 297.153C271.776 294.417 270.866 291.872 270.47 289.516C270.07 287.161 270.119 285.019 270.612 283.088C271.105 281.161 272.001 279.451 273.304 277.967C274.607 276.483 276.252 275.232 278.238 274.214C280.21 273.202 282.184 272.6 284.164 272.402C286.145 272.204 288.069 272.464 289.933 273.184C291.8 273.904 293.587 275.106 295.294 276.791C297.001 278.476 298.566 280.686 299.987 283.421L303.594 290.366ZM290.509 286.848C289.722 285.333 288.954 284.11 288.204 283.18C287.454 282.251 286.718 281.564 285.999 281.12C285.275 280.672 284.566 280.453 283.867 280.457C283.167 280.461 282.466 280.645 281.762 281.005C281.057 281.366 280.502 281.827 280.09 282.39C279.679 282.953 279.455 283.654 279.409 284.493C279.363 285.331 279.511 286.322 279.847 287.461C280.184 288.603 280.744 289.93 281.531 291.446L286.276 300.597C287.082 302.148 287.855 303.393 288.599 304.336C289.343 305.278 290.076 305.966 290.79 306.407C291.508 306.843 292.22 307.059 292.926 307.049C293.633 307.04 294.342 306.854 295.046 306.494C295.732 306.141 296.281 305.685 296.688 305.123C297.099 304.559 297.332 303.861 297.39 303.024C297.448 302.191 297.305 301.2 296.966 300.05C296.624 298.9 296.053 297.552 295.251 296L290.509 286.848Z" fill="white"/>
<path d="M334.898 274.315C336.327 277.069 337.238 279.618 337.632 281.967C338.027 284.315 337.977 286.453 337.484 288.38C336.99 290.308 336.095 292.017 334.792 293.501C333.489 294.985 331.851 296.231 329.882 297.242C327.892 298.261 325.908 298.869 323.932 299.07C321.951 299.268 320.027 299.008 318.164 298.287C316.297 297.568 314.514 296.369 312.809 294.695C311.104 293.022 309.539 290.808 308.11 288.054L304.502 281.102C303.084 278.366 302.174 275.821 301.778 273.465C301.378 271.11 301.427 268.968 301.92 267.037C302.413 265.11 303.309 263.4 304.612 261.916C305.915 260.432 307.56 259.181 309.546 258.163C311.515 257.152 313.492 256.549 315.472 256.347C317.452 256.149 319.376 256.41 321.24 257.13C323.107 257.849 324.894 259.052 326.601 260.736C328.309 262.421 329.873 264.631 331.294 267.367L334.898 274.315ZM321.813 270.798C321.026 269.283 320.258 268.06 319.508 267.13C318.758 266.2 318.022 265.514 317.303 265.07C316.579 264.622 315.87 264.402 315.171 264.407C314.472 264.411 313.77 264.595 313.066 264.955C312.362 265.315 311.806 265.777 311.395 266.34C310.983 266.903 310.759 267.604 310.713 268.443C310.668 269.281 310.815 270.272 311.151 271.41C311.487 272.549 312.048 273.88 312.835 275.396L317.581 284.547C318.386 286.098 319.159 287.343 319.903 288.286C320.647 289.228 321.38 289.916 322.095 290.357C322.812 290.793 323.525 291.009 324.231 290.999C324.937 290.99 325.646 290.804 326.346 290.445C327.032 290.092 327.581 289.636 327.988 289.073C328.4 288.51 328.633 287.812 328.69 286.975C328.749 286.141 328.605 285.15 328.267 284C327.925 282.851 327.353 281.502 326.551 279.951L321.813 270.798Z" fill="white"/>
<path d="M331.666 256.744C331.104 255.663 330.758 254.557 330.627 253.423C330.497 252.29 330.603 251.182 330.942 250.102C331.285 249.021 331.883 247.998 332.738 247.03C333.594 246.061 334.727 245.216 336.136 244.496C337.581 243.757 338.947 243.321 340.236 243.189C341.525 243.056 342.71 243.168 343.782 243.52C344.858 243.875 345.815 244.435 346.661 245.203C347.507 245.975 348.208 246.898 348.77 247.979L349.814 249.993C350.365 251.057 350.713 252.155 350.854 253.283C350.997 254.414 350.897 255.513 350.558 256.577C350.221 257.645 349.629 258.659 348.781 259.623C347.932 260.586 346.795 261.436 345.373 262.166C343.947 262.898 342.591 263.327 341.298 263.461C340.009 263.594 338.818 263.49 337.73 263.157C336.641 262.82 335.671 262.27 334.818 261.507C333.966 260.745 333.262 259.83 332.711 258.766L331.666 256.744ZM338.44 255.821C338.648 256.223 338.902 256.578 339.207 256.884C339.511 257.19 339.857 257.427 340.242 257.593C340.631 257.759 341.045 257.831 341.49 257.815C341.935 257.795 342.406 257.662 342.898 257.407C343.372 257.164 343.742 256.869 344.008 256.523C344.275 256.178 344.442 255.804 344.514 255.405C344.585 255.006 344.58 254.593 344.505 254.167C344.43 253.74 344.288 253.33 344.08 252.927L343.035 250.914C342.817 250.498 342.556 250.129 342.246 249.812C341.936 249.495 341.592 249.254 341.215 249.082C340.837 248.91 340.426 248.838 339.977 248.855C339.529 248.875 339.069 249.007 338.595 249.25C338.121 249.494 337.751 249.788 337.484 250.134C337.218 250.479 337.04 250.859 336.954 251.265C336.864 251.675 336.86 252.097 336.94 252.531C337.02 252.964 337.169 253.389 337.384 253.809L338.44 255.821ZM356.429 279.361L351.214 279.419L354.549 240.05L359.765 239.992L356.429 279.361ZM361.037 268.79C360.486 267.726 360.141 266.624 360.005 265.48C359.868 264.336 359.974 263.228 360.319 262.159C360.665 261.089 361.267 260.069 362.122 259.1C362.977 258.132 364.111 257.287 365.52 256.566C366.964 255.828 368.334 255.388 369.635 255.253C370.935 255.118 372.118 255.219 373.189 255.567C374.259 255.912 375.22 256.475 376.068 257.25C376.915 258.029 377.616 258.949 378.17 260.012L379.215 262.026C379.776 263.107 380.126 264.212 380.267 265.34C380.409 266.472 380.309 267.57 379.971 268.635C379.634 269.703 379.042 270.717 378.194 271.68C377.345 272.644 376.201 273.495 374.757 274.237C373.331 274.968 371.975 275.398 370.682 275.532C369.393 275.664 368.202 275.561 367.114 275.228C366.025 274.891 365.055 274.341 364.202 273.578C363.349 272.812 362.64 271.89 362.083 270.812L361.037 268.79ZM367.782 267.88C367.99 268.282 368.267 268.629 368.609 268.928C368.951 269.227 369.331 269.45 369.744 269.603C370.158 269.757 370.584 269.826 371.021 269.808C371.459 269.794 371.878 269.681 372.284 269.473C372.881 269.168 373.323 268.837 373.607 268.481C373.891 268.124 374.059 267.754 374.112 267.362C374.166 266.97 374.128 266.572 373.994 266.167C373.861 265.763 373.691 265.358 373.483 264.956L372.439 262.942C372.231 262.54 371.972 262.182 371.662 261.865C371.352 261.548 371.005 261.308 370.62 261.141C370.231 260.975 369.817 260.904 369.369 260.924C368.92 260.945 368.461 261.076 367.986 261.32C367.512 261.563 367.135 261.863 366.861 262.21C366.588 262.56 366.406 262.941 366.317 263.351C366.227 263.762 366.223 264.183 366.303 264.617C366.383 265.051 366.527 265.468 366.734 265.867L367.782 267.88Z" fill="white"/>
</g>
<path d="M305.08 366.14L307.88 366.13L307.89 370.77C307.25 371.23 306.52 371.58 305.69 371.83C304.86 372.08 304.03 372.2 303.19 372.21C302.02 372.21 300.96 371.97 300.02 371.48C299.08 370.99 298.34 370.3 297.81 369.42C297.28 368.54 297 367.52 297 366.4C297 365.28 297.26 364.28 297.79 363.39C298.32 362.5 299.06 361.81 300.01 361.31C300.96 360.81 302.03 360.56 303.22 360.56C304.26 360.56 305.2 360.73 306.04 361.08C306.87 361.43 307.57 361.93 308.12 362.59L306.11 364.42C305.35 363.59 304.44 363.18 303.39 363.18C302.43 363.18 301.66 363.48 301.07 364.06C300.48 364.64 300.2 365.42 300.2 366.39C300.2 367.01 300.34 367.56 300.61 368.04C300.88 368.52 301.25 368.9 301.73 369.17C302.21 369.44 302.76 369.57 303.38 369.57C303.99 369.57 304.56 369.44 305.09 369.2L305.08 366.14Z" fill="#FC7B04"/>
<path d="M317.98 368.65L313.28 369.25L312.68 371.52L309.47 371.93L312.96 360.19L316.05 359.79L322.39 370.27L319.12 370.69L317.98 368.65ZM316.76 366.45L314.88 363.08L313.91 366.82L316.76 366.45Z" fill="#FC7B04"/>
<path d="M328.12 365.77L326.45 366.2L327.18 369.08L324.11 369.86L321.35 359L326.31 357.74C327.29 357.49 328.19 357.44 328.99 357.58C329.79 357.72 330.47 358.04 331.02 358.55C331.57 359.05 331.94 359.72 332.15 360.53C332.35 361.32 332.34 362.05 332.12 362.72C331.9 363.4 331.49 363.99 330.9 364.49L334.11 367.31L330.82 368.15L328.12 365.77ZM328.28 360.26C327.89 360.06 327.38 360.04 326.75 360.2L325.04 360.63L325.85 363.81L327.56 363.38C328.19 363.22 328.63 362.96 328.88 362.61C329.13 362.25 329.19 361.82 329.06 361.32C328.93 360.82 328.67 360.46 328.28 360.26Z" fill="#FC7B04"/>
<path d="M342.62 361.69L338.23 363.47V365.82L335.23 367.03L335.61 354.79L338.5 353.62L347.3 362.14L344.25 363.38L342.62 361.69ZM340.88 359.88L338.2 357.1L338.21 360.96L340.88 359.88Z" fill="#FC7B04"/>
<path d="M352.43 346.04L358.24 355.62L356.01 356.97L348.69 354.43L351.78 359.53L349.13 361.14L343.32 351.56L345.55 350.21L352.87 352.75L349.78 347.65L352.43 346.04Z" fill="#FC7B04"/>
<path d="M357.11 345.4L354.48 347.62L352.86 345.7L360.52 339.22L362.14 341.14L359.53 343.35L365.14 349.98L362.72 352.03L357.11 345.4Z" fill="#FC7B04"/>
<path d="M360.95 338.57L363.13 336.27L371.25 343.98L369.07 346.28L360.95 338.57Z" fill="#FC7B04"/>
<path d="M376.81 333.12L378.76 334.6L373.33 341.76L364.4 335L369.71 328L371.66 329.48L368.25 333.98L369.75 335.12L372.76 331.16L374.65 332.59L371.64 336.55L373.27 337.79L376.81 333.12Z" fill="#FC7B04"/>
<defs>
<linearGradient id="paint0_linear" x1="635.642" y1="471.315" x2="671.001" y2="471.315" gradientUnits="userSpaceOnUse">
<stop stop-color="#FAB481"/>
<stop offset="1" stop-color="#ED5379"/>
</linearGradient>
<linearGradient id="paint1_linear" x1="643.51" y1="453.276" x2="606.127" y2="453.276" gradientUnits="userSpaceOnUse">
<stop stop-color="#3393EB"/>
<stop offset="0.9985" stop-color="#37BEDF"/>
</linearGradient>
<linearGradient id="paint2_linear" x1="628.32" y1="480.615" x2="642.598" y2="494.262" gradientUnits="userSpaceOnUse">
<stop stop-color="#5E6398"/>
<stop offset="0.9995" stop-color="#292E6F"/>
</linearGradient>
<linearGradient id="paint3_linear" x1="621.297" y1="477.157" x2="581" y2="477.157" gradientUnits="userSpaceOnUse">
<stop stop-color="#FB40B7"/>
<stop offset="1" stop-color="#C639AF"/>
</linearGradient>
<linearGradient id="paint4_linear" x1="235.281" y1="373.377" x2="392.194" y2="181.049" gradientUnits="userSpaceOnUse">
<stop stop-color="#FA9D2D"/>
<stop offset="0.5323" stop-color="#F38C1D"/>
<stop offset="1" stop-color="#A84812"/>
</linearGradient>
<linearGradient id="paint5_linear" x1="235.951" y1="373.924" x2="392.864" y2="181.597" gradientUnits="userSpaceOnUse">
<stop stop-color="#FA9D2D"/>
<stop offset="0.5323" stop-color="#F38C1D"/>
<stop offset="1" stop-color="#A84812"/>
</linearGradient>
<clipPath id="clip0">
<rect width="42" height="41" fill="white" transform="translate(431 31)"/>
</clipPath>
<clipPath id="clip1">
<rect width="26" height="25" fill="white" transform="translate(584 353)"/>
</clipPath>
<clipPath id="clip2">
<rect width="220.929" height="179.001" fill="white" transform="translate(186.258 219.066) rotate(-10.4633)"/>
</clipPath>
</defs>
</svg>
