<svg width="25" height="25" viewBox="0 0 25 25" fill="none" xmlns="http://www.w3.org/2000/svg">
<circle cx="12.5" cy="12.5" r="12.5" fill="#49CB84"/>
<path d="M12.9 6C10.1982 6 8 8.18306 8 10.8663C8 14.2389 12.9048 20 12.9048 20C12.9048 20 17.8 14.0731 17.8 10.8663C17.8 8.18306 15.6019 6 12.9 6ZM14.3784 12.2912C13.9708 12.696 13.4354 12.8984 12.9 12.8984C12.3647 12.8984 11.8291 12.696 11.4217 12.2912C10.6064 11.4817 10.6064 10.1644 11.4217 9.35474C11.8164 8.96252 12.3415 8.74651 12.9 8.74651C13.4585 8.74651 13.9835 8.96261 14.3784 9.35474C15.1937 10.1644 15.1937 11.4817 14.3784 12.2912Z" fill="white"/>
</svg>
