<svg width="25" height="25" viewBox="0 0 25 25" fill="none" xmlns="http://www.w3.org/2000/svg">
<circle cx="12.5" cy="12.5" r="12.5" fill="#00B4EF"/>
<path d="M16.6436 14.2614C16.1862 13.8098 15.6152 13.8098 15.1607 14.2614C14.814 14.6052 14.4674 14.9489 14.1265 15.2985C14.0333 15.3947 13.9546 15.4151 13.841 15.351C13.6167 15.2286 13.3778 15.1296 13.1622 14.9955C12.1571 14.3634 11.3152 13.5506 10.5694 12.6358C10.1994 12.1813 9.87022 11.6948 9.64008 11.1471C9.59346 11.0364 9.6022 10.9636 9.69251 10.8733C10.0392 10.5383 10.3771 10.1945 10.718 9.85072C11.1928 9.37294 11.1928 8.8136 10.7151 8.33291C10.4441 8.05906 10.1732 7.79104 9.90227 7.51719C9.6226 7.23752 9.34584 6.95493 9.06325 6.67817C8.60587 6.23244 8.03487 6.23244 7.5804 6.68109C7.2308 7.02485 6.89578 7.37736 6.54036 7.71529C6.21116 8.02701 6.04511 8.40865 6.01015 8.85438C5.95479 9.57979 6.1325 10.2644 6.38304 10.9315C6.89578 12.3124 7.67653 13.5389 8.62335 14.6634C9.90227 16.1842 11.4288 17.3873 13.2147 18.2555C14.0187 18.6459 14.8519 18.9459 15.7579 18.9955C16.3814 19.0304 16.9232 18.8731 17.3573 18.3866C17.6545 18.0545 17.9895 17.7515 18.3041 17.434C18.7703 16.962 18.7732 16.391 18.31 15.9249C17.7564 15.3684 17.2 14.8149 16.6436 14.2614Z" fill="white"/>
<path d="M16.0877 11.9395L17.1627 11.756C16.9937 10.7684 16.5276 9.87403 15.8196 9.1632C15.0709 8.41449 14.1241 7.94254 13.0812 7.79688L12.9297 8.8777C13.7367 8.99131 14.4708 9.35547 15.0505 9.93521C15.5982 10.4829 15.9566 11.1763 16.0877 11.9395Z" fill="white"/>
<path d="M17.7685 7.26652C16.5274 6.02547 14.9571 5.2418 13.2238 5L13.0723 6.08082C14.5697 6.29058 15.9273 6.96937 16.9993 8.03854C18.0161 9.05527 18.6832 10.34 18.925 11.753L20 11.5694C19.7174 9.93216 18.9454 8.44639 17.7685 7.26652Z" fill="white"/>
</svg>
