<svg width="19" height="18" viewBox="0 0 19 18" fill="none" xmlns="http://www.w3.org/2000/svg">
<path d="M7.08502 17.9985C7.08502 17.1423 7.08502 16.3448 7.08502 15.5368C5.98788 15.8444 5.51079 15.752 5.11804 15.1729C4.80399 14.7095 4.81283 14.1208 5.14213 13.6686C5.55577 13.1007 6.06097 13.01 7.08502 13.3417C7.08502 12.5465 7.08502 11.7626 7.08502 10.9434C7.91791 10.9434 8.71226 10.9434 9.54194 10.9434C9.18292 11.7144 9.18613 12.4212 9.97726 12.928C10.4391 13.2236 11.0463 13.1569 11.4736 12.7955C11.9916 12.3578 12.0671 11.8221 11.7129 10.9426C12.5314 10.9426 13.3353 10.9426 14.1763 10.9426C14.1851 11.0582 14.202 11.1739 14.202 11.2896C14.2036 13.1642 14.206 15.038 14.202 16.9126C14.2004 17.6636 13.8662 17.9969 13.1297 17.9977C11.2551 17.9993 9.3805 17.9985 7.50588 17.9985C7.38701 17.9985 7.26814 17.9985 7.08502 17.9985Z" fill="white"/>
<path d="M13.3786 7.0978C12.5489 7.0978 11.765 7.0978 10.9466 7.0978C10.9466 6.26972 10.9466 5.47618 10.9466 4.64409C11.7216 5.01676 12.426 5.00552 12.9336 4.21439C13.2204 3.76783 13.1625 3.17187 12.8276 2.74859C12.4148 2.22733 11.871 2.1422 10.9434 2.4715C10.9434 1.65627 10.9434 0.853098 10.9434 0.0185973C11.0791 0.0121719 11.2092 0.000927428 11.3385 0.000927428C13.1987 0.000124252 15.058 -0.000678925 16.9182 0.000927428C17.6732 0.0017306 18.0025 0.323001 18.0033 1.06433C18.0049 2.93734 18.0041 4.81035 18.0041 6.68336C18.0041 6.80062 18.0041 6.91869 18.0041 7.08575C17.1632 7.08575 16.3568 7.08575 15.4934 7.08575C15.7255 7.57328 15.8925 8.02466 15.6556 8.47605C15.5303 8.71459 15.3416 8.94912 15.1231 9.10413C14.6677 9.42781 14.0203 9.35472 13.5938 8.99088C13.0726 8.54592 12.9971 7.9853 13.3786 7.0978Z" fill="white"/>
<path d="M7.09282 8.43586C7.09282 8.92097 7.09282 9.3579 7.09282 9.84704C6.73942 9.84704 6.41895 9.87354 6.10812 9.83017C6.01737 9.81732 5.92339 9.61251 5.88484 9.48079C5.60212 8.50493 4.98528 7.87604 3.98131 7.6889C3.00545 7.50738 2.20469 7.86239 1.63764 8.65834C1.40472 8.98523 1.29469 9.40047 1.10674 9.82455C0.795112 9.82455 0.416013 9.82455 0.00157357 9.82455C0.00157357 9.05671 0.00157357 8.31056 0.00157357 7.56361C0.00157357 6.6271 -0.00324549 5.6906 0.0039831 4.7541C0.00880216 4.18545 0.356577 3.80715 0.922817 3.80474C2.92995 3.7951 4.93629 3.80394 6.94343 3.80715C6.96833 3.80715 6.99322 3.82241 7.06872 3.84731C7.06872 4.63683 7.06872 5.44402 7.06872 6.32912C7.91607 5.88417 8.62849 5.92754 9.1353 6.72911C9.43568 7.20378 9.3393 7.84472 8.9602 8.25594C8.50561 8.74909 7.99077 8.80933 7.09282 8.43586Z" fill="white"/>
<path d="M0.037199 10.908C0.853227 10.908 1.65158 10.908 2.51018 10.908C2.1094 10.1105 2.11743 9.41411 2.87161 8.89445C3.30452 8.59647 3.92618 8.63663 4.34464 8.94987C4.89883 9.36511 4.98397 9.85907 4.65868 10.8984C5.10444 10.8984 5.53896 10.8984 6.00721 10.8984C6.00721 11.2919 6.00721 11.6453 6.00721 12.0437C5.23215 12.1786 4.56792 12.5345 4.15509 13.2597C3.89486 13.7167 3.79848 14.2075 3.8539 14.7295C3.96634 15.7921 4.70607 16.515 6.01284 16.8218C6.01284 17.1953 6.01284 17.576 6.01284 17.9977C5.54458 17.9977 5.09239 17.9977 4.64101 17.9977C3.40894 17.9977 2.17686 18.0025 0.944789 17.9953C0.370517 17.992 0.00587511 17.6386 0.00426876 17.0724C-0.00215666 15.0773 0.0026624 13.083 0.00346558 11.0879C0.00507193 11.0502 0.0179228 11.0116 0.037199 10.908Z" fill="white"/>
</svg>
