<svg width="20" height="18" viewBox="0 0 20 18" fill="none" xmlns="http://www.w3.org/2000/svg">
<path d="M12.5468 3.69181C11.4584 1.46935 9.18154 0 6.62764 0C2.97329 0 0.000290189 2.95613 0.000290189 6.58969C0.000290189 7.57716 0.21229 8.52363 0.630716 9.40609L0.0112479 12.5038C-0.0676024 12.8981 0.280258 13.2467 0.67466 13.1686L3.81056 12.5487C4.23279 12.7489 4.66959 12.9013 5.11841 13.0062C4.11237 8.24125 7.72412 3.76855 12.5468 3.69181Z" fill="white"/>
<path d="M18.6498 14.226C18.758 13.9977 18.8521 13.7652 18.9326 13.5288H18.912C20.3221 9.38984 17.3566 5.03974 12.9787 4.82793C12.9787 4.8277 12.9786 4.82748 12.9785 4.82725C9.21164 4.65366 6.08203 7.6697 6.08203 11.4096C6.08203 15.0401 9.03274 17.9939 12.662 17.9991C13.6465 17.9978 14.59 17.7859 15.4699 17.3685C18.9044 18.0475 18.6365 17.9992 18.7154 17.9992C19.0723 17.9992 19.339 17.6722 19.2693 17.3237L18.6498 14.226Z" fill="white"/>
</svg>
