<svg width="14" height="16" viewBox="0 0 14 16" fill="none" xmlns="http://www.w3.org/2000/svg">
<path d="M3.89931 6.78363C4.04507 7.73108 4.77718 8.93692 5.97971 9.36095C6.47331 9.53321 7.01329 9.53653 7.50689 9.35764C8.68954 8.93029 9.44484 7.72777 9.59392 6.78363C9.75293 6.77038 9.96163 6.54843 10.1869 5.75006C10.495 4.66016 10.167 4.49784 9.88875 4.52434C9.94175 4.37527 9.98151 4.22288 10.008 4.07712C10.4784 1.25135 9.08707 1.15528 9.08707 1.15528C9.08707 1.15528 8.85517 0.711371 8.24894 0.376783C7.84147 0.134953 7.27499 -0.0505608 6.52963 0.0123814C6.2878 0.0223196 6.05922 0.0720108 5.84389 0.141578C5.56893 0.234335 5.31716 0.370158 5.08858 0.52917C4.81031 0.704745 4.54529 0.923387 4.3134 1.17184C3.94568 1.5495 3.61772 2.03647 3.47527 2.6427C3.35602 3.09655 3.38252 3.57027 3.4819 4.08043C3.5084 4.22951 3.54816 4.37858 3.60116 4.52765C3.32289 4.50115 2.99493 4.66348 3.30301 5.75337C3.53159 6.54843 3.74029 6.77038 3.89931 6.78363Z" fill="white"/>
<path d="M12.2123 10.4909C10.5195 10.0602 9.1447 9.09288 9.1447 9.09288L8.07137 12.4884L7.86929 13.1278L7.86598 13.1179L7.6904 13.6612L7.12392 12.0545C8.51528 10.1132 6.84234 10.1331 6.74958 10.1364C6.65683 10.1331 4.98389 10.1132 6.37524 12.0545L5.80876 13.6612L5.63319 13.1179L5.62987 13.1278L5.4278 12.4884L4.35116 9.09288C4.35116 9.09288 2.97637 10.0602 1.28355 10.4909C0.0213965 10.8122 -0.0382329 12.2698 0.0114583 12.9887C0.0114583 12.9887 0.0843388 13.9659 0.157219 14.3966C0.157219 14.3966 2.6219 15.9966 6.74958 16C10.8773 16 13.3419 14.3966 13.3419 14.3966C13.4148 13.9659 13.4877 12.9887 13.4877 12.9887C13.5341 12.2698 13.4745 10.8122 12.2123 10.4909Z" fill="white"/>
</svg>
