<svg width="19" height="19" viewBox="0 0 19 19" fill="none" xmlns="http://www.w3.org/2000/svg">
<path d="M14.618 0.712494C12.4226 0.712494 10.6367 2.49837 10.6367 4.69374C10.6367 6.73669 13.8308 10.3551 14.1948 10.7612C14.3029 10.8806 14.4564 10.95 14.618 10.95C14.7795 10.95 14.9331 10.8806 15.0411 10.7612C15.4051 10.3551 18.5992 6.73669 18.5992 4.69374C18.5992 2.49837 16.8133 0.712494 14.618 0.712494ZM14.618 6.39999C13.6761 6.39999 12.9117 5.63559 12.9117 4.69374C12.9117 3.75189 13.6761 2.98749 14.618 2.98749C15.5598 2.98749 16.3242 3.75189 16.3242 4.69374C16.3242 5.63559 15.5598 6.39999 14.618 6.39999Z" fill="white"/>
<path d="M0.756589 7.39425C0.541602 7.4807 0.399414 7.69 0.399414 7.92319V18.3438C0.399414 18.5326 0.493827 18.709 0.649664 18.8147C0.745214 18.8784 0.855552 18.9126 0.968164 18.9126C1.03983 18.9126 1.11149 18.8989 1.17974 18.8716L6.08691 16.9083V5.26257L0.756589 7.39425Z" fill="white"/>
<path d="M15.8878 11.5212C15.5648 11.8807 15.1018 12.0877 14.6184 12.0877C14.1349 12.0877 13.672 11.8807 13.3489 11.5212C13.2329 11.3927 13.0839 11.2232 12.9121 11.0219V18.9127L18.2424 16.781C18.4586 16.6957 18.5996 16.4853 18.5996 16.2532V7.89148C17.668 9.46919 16.4224 10.9252 15.8878 11.5212Z" fill="white"/>
<path d="M9.85792 6.3159L7.22461 5.26257V16.9083L11.7746 18.7283V9.59417C11.0477 8.61479 10.289 7.4352 9.85792 6.3159Z" fill="white"/>
</svg>
