<svg width="20" height="16" viewBox="0 0 20 16" fill="none" xmlns="http://www.w3.org/2000/svg">
<path d="M-0.00010477 14.7716C0.612765 14.7716 1.17681 14.7716 1.7862 14.7716C1.7862 10.4807 1.7862 6.21936 1.7862 1.9284C4.18711 1.28589 6.55141 0.652972 8.99156 0C8.99156 0.235384 8.99156 0.416717 8.99156 0.598921C8.99156 5.14532 8.99853 9.69171 8.98023 14.2372C8.97848 14.6888 9.10402 14.8344 9.54079 14.7821C9.82412 14.7481 10.1144 14.776 10.4597 14.776C10.4597 14.5554 10.4597 14.3854 10.4597 14.2163C10.4614 11.0212 10.4675 7.82521 10.4562 4.63009C10.4553 4.26829 10.5233 4.11922 10.9278 4.12183C13.0341 4.13665 15.1403 4.12096 17.2457 4.11835C17.373 4.11835 17.5011 4.13404 17.6624 4.1445C17.6624 7.67874 17.6624 11.1886 17.6624 14.7577C18.2805 14.7577 18.8663 14.7577 19.4775 14.7577C19.4775 15.2006 19.4775 15.585 19.4775 16C12.9879 16 6.50521 16 -0.000976562 16C-0.00010477 15.599 -0.00010477 15.2154 -0.00010477 14.7716ZM15.6538 7.26377C15.6538 6.79649 15.6538 6.38239 15.6538 5.91772C14.6294 5.91772 13.6339 5.91337 12.6383 5.92644C12.5642 5.92731 12.4325 6.05198 12.4282 6.12434C12.4064 6.49485 12.4186 6.86711 12.4186 7.2629C13.5257 7.26377 14.5763 7.26377 15.6538 7.26377ZM15.6616 9.04833C14.6312 9.04833 13.6469 9.03961 12.6635 9.06402C12.5772 9.06577 12.4107 9.30115 12.429 9.40228C12.4883 9.74228 12.178 10.3342 12.613 10.3857C13.6103 10.5034 14.6312 10.4231 15.6625 10.4231C15.6616 9.95238 15.6616 9.53653 15.6616 9.04833ZM12.4369 13.5206C13.5231 13.5206 14.5858 13.5206 15.6459 13.5206C15.6459 13.0603 15.6459 12.634 15.6459 12.2112C14.5588 12.2112 13.5083 12.2112 12.4369 12.2112C12.4369 12.6628 12.4369 13.0778 12.4369 13.5206ZM7.02915 7.38059C7.02915 6.98305 7.04397 6.63608 7.01956 6.29259C7.01346 6.20193 6.88792 6.04675 6.81557 6.04501C5.82085 6.02844 4.82614 6.03367 3.81922 6.03367C3.81922 6.51229 3.81922 6.93772 3.81922 7.37972C4.88978 7.38059 5.92634 7.38059 7.02915 7.38059ZM3.81834 9.16689C3.81834 9.61674 3.81834 10.0413 3.81834 10.5129C4.83311 10.5129 5.81475 10.5173 6.79639 10.5042C6.8731 10.5034 7.01085 10.3848 7.01521 10.3142C7.037 9.93145 7.02567 9.547 7.02567 9.16602C5.91152 9.16689 4.87408 9.16689 3.81834 9.16689ZM3.81224 4.28834C4.82003 4.28834 5.77465 4.29619 6.72839 4.27701C6.82951 4.27527 7.02044 4.09742 7.00998 4.02506C6.9568 3.66589 7.22967 3.2544 6.85567 2.94666C6.84608 2.93881 6.82777 2.9423 6.81295 2.9423C5.81998 2.9423 4.82701 2.9423 3.81224 2.9423C3.81224 3.41219 3.81224 3.82368 3.81224 4.28834ZM3.80178 13.5721C4.89675 13.5721 5.9429 13.5721 6.99777 13.5721C6.99777 13.1205 6.99777 12.709 6.99777 12.2888C5.91588 12.2888 4.86711 12.2888 3.80178 12.2888C3.80178 12.7264 3.80178 13.1283 3.80178 13.5721Z" fill="white"/>
</svg>
