<svg width="16" height="18" viewBox="0 0 16 18" fill="none" xmlns="http://www.w3.org/2000/svg">
<path d="M0 16.499H15.3203V18.0001H0V16.499Z" fill="#1886C7"/>
<path d="M13.778 16.4989H1.54199V0.649339C1.54199 0.477124 1.6104 0.311962 1.73218 0.190187C1.85395 0.0684124 2.01912 0 2.19133 0H13.1286C13.3009 0 13.466 0.0684124 13.5878 0.190187C13.7096 0.311962 13.778 0.477124 13.778 0.649339V16.4989Z" fill="white"/>
<path d="M5.83398 12.8455H9.48733V16.4988H5.83398V12.8455Z" fill="#34A4E6"/>
<path d="M4.83984 11.568H10.481V12.8456H4.83984V11.568Z" fill="#69C7FF"/>
<path d="M3.16504 1.62349H6.46254V3.1884H3.16504V1.62349Z" fill="#34A4E6"/>
<path d="M3.16504 5.00078H6.46254V6.56569H3.16504V5.00078Z" fill="#34A4E6"/>
<path d="M3.16504 8.37842H6.46254V9.94333H3.16504V8.37842Z" fill="#34A4E6"/>
<path d="M8.85742 1.62344H12.1548V3.18835H8.85742V1.62344Z" fill="#34A4E6"/>
<path d="M8.85742 5.00078H12.1548V6.56569H8.85742V5.00078Z" fill="#34A4E6"/>
<path d="M8.85742 8.37842H12.1548V9.94333H8.85742V8.37842Z" fill="#34A4E6"/>
</svg>
