<svg width="65" height="65" viewBox="0 0 65 65" fill="none" xmlns="http://www.w3.org/2000/svg">
<circle cx="32.5" cy="32.5" r="32.5" fill="#4CBBB6"/>
<path d="M43.4917 44.7431C43.1553 43.9208 42.8127 43.0985 42.4389 42.2886C42.1087 41.566 41.6851 41.3542 40.8939 41.5348C39.891 41.7653 38.9067 42.0706 37.9037 42.2761C35.9663 42.6811 34.0226 42.7185 32.1101 42.1142C29.7117 41.3604 28.4347 39.6223 27.6497 37.3797H34.1535C34.6643 37.3797 35.0754 36.9685 35.0754 36.4577V34.4081C35.0754 33.8973 34.6643 33.4861 34.1535 33.4861H27.0268C27.0268 32.913 27.0205 32.3648 27.0268 31.8166H34.1535C34.6643 31.8166 35.0754 31.4054 35.0754 30.8946V28.845C35.0754 28.3342 34.6643 27.9231 34.1535 27.9231H27.9238C27.9238 27.8981 27.9238 27.8732 27.9363 27.8608C28.6838 26.1601 29.774 24.7958 31.5619 24.0856C33.6426 23.2633 35.7669 23.282 37.9099 23.7243C38.9254 23.9299 39.9221 24.2413 40.9375 24.4718C41.6789 24.64 42.1087 24.422 42.4264 23.7305C42.794 22.9331 43.1304 22.1233 43.4668 21.3072C43.7845 20.5409 43.5976 19.9989 42.875 19.5753C42.6943 19.4694 42.5074 19.3822 42.3143 19.3075C39.3116 18.1363 36.2155 17.7002 33.0197 18.211C30.7708 18.5724 28.6714 19.3448 26.8586 20.7527C24.5723 22.522 23.0896 24.8581 22.2299 27.6053L22.124 27.9231H18.922C18.4112 27.9231 18 28.3342 18 28.845V30.8946C18 31.4054 18.4112 31.8166 18.922 31.8166H21.445C21.445 32.3772 21.445 32.9192 21.445 33.4861H18.922C18.4112 33.4861 18 33.8973 18 34.4081V36.4577C18 36.9685 18.4112 37.3797 18.922 37.3797H21.9621C22.1925 38.1272 22.3857 38.8872 22.6785 39.6036C24.2172 43.3165 26.7963 45.9579 30.6773 47.2163C33.8856 48.2566 37.1188 48.2255 40.352 47.3346C41.193 47.1041 42.0277 46.8051 42.8251 46.4375C43.5976 46.0825 43.7969 45.4844 43.4917 44.7431Z" fill="white"/>
</svg>
